<?xml version="1.0" encoding="UTF-8" standalone="no"?>
<svg width="65px" height="81px" viewBox="0 0 65 81" version="1.1" xmlns="http://www.w3.org/2000/svg" xmlns:xlink="http://www.w3.org/1999/xlink" xmlns:sketch="http://www.bohemiancoding.com/sketch/ns">
    <!-- Generator: Sketch 3.4.4 (17249) - http://www.bohemiancoding.com/sketch -->
    <title>cam</title>
    <desc>Created with Sketch.</desc>
    <defs>
        <filter x="-50%" y="-50%" width="200%" height="200%" filterUnits="objectBoundingBox" id="filter-1">
            <feOffset dx="-1" dy="-1" in="SourceAlpha" result="shadowOffsetInner1"></feOffset>
            <feGaussianBlur stdDeviation="1" in="shadowOffsetInner1" result="shadowBlurInner1"></feGaussianBlur>
            <feComposite in="shadowBlurInner1" in2="SourceAlpha" operator="arithmetic" k2="-1" k3="1" result="shadowInnerInner1"></feComposite>
            <feColorMatrix values="0 0 0 0 0   0 0 0 0 0   0 0 0 0 0  0 0 0 0.145615376 0" in="shadowInnerInner1" type="matrix" result="shadowMatrixInner1"></feColorMatrix>
            <feMerge>
                <feMergeNode in="SourceGraphic"></feMergeNode>
                <feMergeNode in="shadowMatrixInner1"></feMergeNode>
            </feMerge>
        </filter>
        <filter x="-50%" y="-50%" width="200%" height="200%" filterUnits="objectBoundingBox" id="filter-2">
            <feOffset dx="3" dy="-1" in="SourceAlpha" result="shadowOffsetInner1"></feOffset>
            <feGaussianBlur stdDeviation="1" in="shadowOffsetInner1" result="shadowBlurInner1"></feGaussianBlur>
            <feComposite in="shadowBlurInner1" in2="SourceAlpha" operator="arithmetic" k2="-1" k3="1" result="shadowInnerInner1"></feComposite>
            <feColorMatrix values="0 0 0 0 0   0 0 0 0 0   0 0 0 0 0  0 0 0 0.145615376 0" in="shadowInnerInner1" type="matrix" result="shadowMatrixInner1"></feColorMatrix>
            <feMerge>
                <feMergeNode in="SourceGraphic"></feMergeNode>
                <feMergeNode in="shadowMatrixInner1"></feMergeNode>
            </feMerge>
        </filter>
        <filter x="-50%" y="-50%" width="200%" height="200%" filterUnits="objectBoundingBox" id="filter-3">
            <feOffset dx="1" dy="-1" in="SourceAlpha" result="shadowOffsetInner1"></feOffset>
            <feGaussianBlur stdDeviation="1" in="shadowOffsetInner1" result="shadowBlurInner1"></feGaussianBlur>
            <feComposite in="shadowBlurInner1" in2="SourceAlpha" operator="arithmetic" k2="-1" k3="1" result="shadowInnerInner1"></feComposite>
            <feColorMatrix values="0 0 0 0 0   0 0 0 0 0   0 0 0 0 0  0 0 0 0.35 0" in="shadowInnerInner1" type="matrix" result="shadowMatrixInner1"></feColorMatrix>
            <feMerge>
                <feMergeNode in="SourceGraphic"></feMergeNode>
                <feMergeNode in="shadowMatrixInner1"></feMergeNode>
            </feMerge>
        </filter>
        <filter x="-50%" y="-50%" width="200%" height="200%" filterUnits="objectBoundingBox" id="filter-4">
            <feOffset dx="1" dy="-1" in="SourceAlpha" result="shadowOffsetInner1"></feOffset>
            <feGaussianBlur stdDeviation="1" in="shadowOffsetInner1" result="shadowBlurInner1"></feGaussianBlur>
            <feComposite in="shadowBlurInner1" in2="SourceAlpha" operator="arithmetic" k2="-1" k3="1" result="shadowInnerInner1"></feComposite>
            <feColorMatrix values="0 0 0 0 0   0 0 0 0 0   0 0 0 0 0  0 0 0 0.35 0" in="shadowInnerInner1" type="matrix" result="shadowMatrixInner1"></feColorMatrix>
            <feMerge>
                <feMergeNode in="SourceGraphic"></feMergeNode>
                <feMergeNode in="shadowMatrixInner1"></feMergeNode>
            </feMerge>
        </filter>
        <rect id="path-5" x="0" y="0" width="30" height="27"></rect>
        <ellipse id="path-7" cx="28.5" cy="25" rx="28.5" ry="25"></ellipse>
        <filter x="-50%" y="-50%" width="200%" height="200%" filterUnits="objectBoundingBox" id="filter-9">
            <feOffset dx="0" dy="-0.200000003" in="SourceAlpha" result="shadowOffsetInner1"></feOffset>
            <feGaussianBlur stdDeviation="0" in="shadowOffsetInner1" result="shadowBlurInner1"></feGaussianBlur>
            <feComposite in="shadowBlurInner1" in2="SourceAlpha" operator="arithmetic" k2="-1" k3="1" result="shadowInnerInner1"></feComposite>
            <feColorMatrix values="0 0 0 0 0.428571429   0 0 0 0 0.303376963   0 0 0 0 0.222952178  0 0 0 0.294202899 0" in="shadowInnerInner1" type="matrix" result="shadowMatrixInner1"></feColorMatrix>
            <feMerge>
                <feMergeNode in="SourceGraphic"></feMergeNode>
                <feMergeNode in="shadowMatrixInner1"></feMergeNode>
            </feMerge>
        </filter>
    </defs>
    <g id="Page-1" stroke="none" stroke-width="1" fill="none" fill-rule="evenodd" sketch:type="MSPage">
        <g id="cam" sketch:type="MSArtboardGroup">
            <ellipse id="Oval-450" fill="#E9E7E7" filter="url(#filter-1)" sketch:type="MSShapeGroup" cx="49.5" cy="53" rx="6.5" ry="6"></ellipse>
            <ellipse id="Oval-451" fill="#E9E7E7" filter="url(#filter-2)" sketch:type="MSShapeGroup" cx="16.5" cy="53" rx="6.5" ry="6"></ellipse>
            <circle id="Oval-452" fill="#555555" filter="url(#filter-3)" sketch:type="MSShapeGroup" cx="41" cy="74" r="6"></circle>
            <circle id="Oval-453" fill="#555555" filter="url(#filter-4)" sketch:type="MSShapeGroup" cx="25" cy="74" r="6"></circle>
            <g id="Rectangle-691" sketch:type="MSLayerGroup" transform="translate(18.000000, 47.000000)">
                <mask id="mask-6" sketch:name="Mask" fill="white">
                    <use xlink:href="#path-5"></use>
                </mask>
                <use id="Mask" fill="#BEBEBE" sketch:type="MSShapeGroup" xlink:href="#path-5"></use>
                <rect id="Rectangle-695" fill="#E9E7E7" sketch:type="MSShapeGroup" mask="url(#mask-6)" x="6" y="4" width="9" height="23"></rect>
                <g id="Group" mask="url(#mask-6)" fill="#D8D8D8" sketch:type="MSShapeGroup">
                    <g transform="translate(13.500000, 7.599998)">
                        <circle id="Oval-923" cx="0.5" cy="12.5" r="0.5"></circle>
                        <circle id="Oval-923-Copy-8" cx="0.5" cy="16.5" r="0.5"></circle>
                        <circle id="Oval-923-Copy-2" cx="0.5" cy="8.5" r="0.5"></circle>
                        <circle id="Oval-923-Copy-4" cx="0.5" cy="4.5" r="0.5"></circle>
                        <circle id="Oval-923-Copy-6" cx="0.5" cy="0.5" r="0.5"></circle>
                    </g>
                </g>
                <rect id="Rectangle-695-Copy" fill="#E9E7E7" sketch:type="MSShapeGroup" mask="url(#mask-6)" x="15.2000008" y="4" width="9" height="23"></rect>
                <g id="Rectangle-691-+-Rectangle-691" mask="url(#mask-6)" sketch:type="MSShapeGroup">
                    <g transform="translate(-2.000000, -24.000000)" id="Rectangle-691">
                        <path d="M0.36603452,19.9055147 C0.36603452,19.9055147 4.87835827,19.7612185 7.24354477,22.5532267 C8.75634677,24.3390291 12,36.5309116 12,36.5309116 L12,51 L0,51 L0.36603452,19.9055147 Z" fill="#343548"></path>
                        <path d="M0.36603452,7.20714582 C0.36603452,7.20714582 4.87835827,19.7612185 7.24354477,22.5532267 C8.75634677,24.3390291 12,36.5309116 12,36.5309116 L12,38.3016311 L7.43376398,34.1555692 L0.36603452,7.20714582 Z" fill="#21223C"></path>
                        <path d="M5,0 C5,0 9.51232375,12.5540727 11.8775102,15.3460809 C13.3903122,17.1318833 16.6339655,29.3237658 16.6339655,29.3237658 L16.6339655,31.0944853 L12.0677295,26.9484234 L5,0 Z" fill="#DEDCDC"></path>
                        <path d="M17.5,0 C17.5,0 22.0123238,12.5540727 24.3775102,15.3460809 C25.8903122,17.1318833 29.1339655,29.3237658 29.1339655,29.3237658 L29.1339655,31.0944853 L24.5677295,26.9484234 L17.5,0 Z" fill="#D8D8D8" transform="translate(23.316983, 15.547243) scale(-1, 1) translate(-23.316983, -15.547243) "></path>
                    </g>
                </g>
                <g id="Rectangle-691-+-Rectangle-691" mask="url(#mask-6)" sketch:type="MSShapeGroup">
                    <g transform="translate(25.000000, 5.000000) scale(-1, 1) translate(-25.000000, -5.000000) translate(19.000000, -17.000000)" id="Rectangle-691">
                        <path d="M0.36603452,12.9055147 C0.36603452,12.9055147 4.87835827,12.7612185 7.24354477,15.5532267 C8.75634677,17.3390291 12,29.5309116 12,29.5309116 L12,44 L0,44 L0.36603452,12.9055147 Z" fill="#343548"></path>
                        <path d="M0.36603452,0.207145819 C0.36603452,0.207145819 4.87835827,12.7612185 7.24354477,15.5532267 C8.75634677,17.3390291 12,29.5309116 12,29.5309116 L12,31.3016311 L7.43376398,27.1555692 L0.36603452,0.207145819 Z" fill="#21223C"></path>
                    </g>
                </g>
            </g>
            <g id="Oval-449-+-Oval-458" sketch:type="MSLayerGroup" transform="translate(4.000000, 2.000000)">
                <mask id="mask-8" sketch:name="Oval 449" fill="white">
                    <use xlink:href="#path-7"></use>
                </mask>
                <use id="Oval-449" fill="#E2AE89" sketch:type="MSShapeGroup" xlink:href="#path-7"></use>
                <path d="M-1,40.3331577 C-1,40.3331577 11,28.9998243 25,28.9998243 C28.1741618,28.9998243 36.7210168,29.9071264 43.5,32.9998243 C50.9379635,36.3931613 56.5,41.9998243 56.5,41.9998243 C56.5,41.9998243 52.5650391,51.0459348 52.5,50.9998243 C51.3425839,50.1792555 44.3736715,32.0379819 25,31.4998243 C7,30.9998243 -3,50.9998243 -3,50.9998243 L-1,40.3331577 Z" id="Rectangle-534" fill-opacity="0.185552731" fill="#653E24" sketch:type="MSShapeGroup" mask="url(#mask-8)">
                    <g transform="translate(26.750000, 39.999912) rotate(-180.000000) translate(-26.750000, -39.999912) "></g>
                </path>
                <path d="M10.4783756,43.7511847 C10.4783756,43.7511847 13.4007719,39.4090985 16.3651295,38.0257316 C19.3294872,36.6423647 25.0207004,37.0047388 28.4688981,37.0047388 C32.1720094,37.0047388 38.5859667,36.86079 40.8360821,38.057172 C43.0861976,39.253554 47.0216244,43.7511847 47.0216244,43.7511847 L43.0861976,46 C43.0861976,46 41.9617899,41.1998527 40.8418531,40.3053114 C39.7219162,39.4107701 32.3815114,39.2535541 29.0311019,39.2535541 C25.1600285,39.2535541 17.7870254,39.2535541 16.2287121,40.2929406 C14.6703989,41.3323271 13.8515986,46 13.8515986,46 L10.4783756,43.7511847 Z" id="Rectangle-533" fill-opacity="0.185552731" fill="#653E24" sketch:type="MSShapeGroup" mask="url(#mask-8)"></path>
                <ellipse id="Oval-458" fill="#653E24" sketch:type="MSShapeGroup" mask="url(#mask-8)" cx="0" cy="13.5" rx="9" ry="21.5">
                    <g transform="translate(0.000000, 13.500000) rotate(6.000000) translate(-0.000000, -13.500000) "></g>
                </ellipse>
                <ellipse id="Oval-459" fill="#653E24" sketch:type="MSShapeGroup" mask="url(#mask-8)" cx="54.8106414" cy="10.8322137" rx="9.53283044" ry="22.8787931">
                    <g transform="translate(54.810641, 10.832214) scale(-1, 1) rotate(17.000000) translate(-54.810641, -10.832214) "></g>
                </ellipse>
                <path d="M50.5,3 C49,12 38.4999983,12.5 33.4999983,11 C28.4999983,9.5 16.5,15 9.5,16 C2.5,17 0,10 0,10 L7.50000023,-3.5 L34.5,-2 C34.5,-2 55,-1 50.5,3 Z" id="Path-94" fill="#653E24" filter="url(#filter-9)" sketch:type="MSShapeGroup" mask="url(#mask-8)">
                    <g transform="translate(25.572787, 6.298889) scale(-1, 1) rotate(12.000000) translate(-25.572787, -6.298889) "></g>
                </path>
            </g>
            <path d="M23.9754518,29.8668995 C23.8044924,27.6813844 22.7613319,26 21.5,26 C20.1192881,26 19,28.0147186 19,30.5 C19,31.9919822 19.4033834,33.314377 20.0245482,34.1331005 C20.0083676,33.9262502 20,33.714884 20,33.5 C20,31.0147186 21.1192881,29 22.5,29 C23.0518329,29 23.5619064,29.3218277 23.9754518,29.8668995 Z" id="Oval-461" fill="#555555" sketch:type="MSShapeGroup"></path>
            <path d="M43.9754518,29.8668995 C43.8044924,27.6813844 42.7613319,26 41.5,26 C40.1192881,26 39,28.0147186 39,30.5 C39,31.9919822 39.4033834,33.314377 40.0245482,34.1331005 C40.0083676,33.9262502 40,33.714884 40,33.5 C40,31.0147186 41.1192881,29 42.5,29 C43.0518329,29 43.5619064,29.3218277 43.9754518,29.8668995 Z" id="Oval-463" fill="#555555" sketch:type="MSShapeGroup"></path>
            <path d="M42.8578281,43.9123785 C42.0321241,45.0968682 37.7090313,46 32.5,46 C27.2909687,46 22.9678759,45.0968682 22.1421719,43.9123785 C24.7648071,44.5691722 28.902231,45 32.5,45 C36.097769,45 40.2351929,44.5691722 42.8578281,43.9123785 Z" id="Oval-465" fill="#555555" sketch:type="MSShapeGroup"></path>
        </g>
    </g>
</svg>