<?xml version="1.0" encoding="UTF-8" standalone="no"?>
<svg width="65px" height="87px" viewBox="0 0 65 87" version="1.1" xmlns="http://www.w3.org/2000/svg" xmlns:xlink="http://www.w3.org/1999/xlink" xmlns:sketch="http://www.bohemiancoding.com/sketch/ns">
    <!-- Generator: Sketch 3.2.1 (9971) - http://www.bohemiancoding.com/sketch -->
    <title>deric</title>
    <desc>Created with Sketch.</desc>
    <defs>
        <filter x="-50%" y="-50%" width="200%" height="200%" filterUnits="objectBoundingBox" id="filter-1">
            <feOffset dx="-1" dy="-1" in="SourceAlpha" result="shadowOffsetInner1"></feOffset>
            <feGaussianBlur stdDeviation="1" in="shadowOffsetInner1" result="shadowBlurInner1"></feGaussianBlur>
            <feComposite in="shadowBlurInner1" in2="SourceAlpha" operator="arithmetic" k2="-1" k3="1" result="shadowInnerInner1"></feComposite>
            <feColorMatrix values="0 0 0 0 0   0 0 0 0 0   0 0 0 0 0  0 0 0 0.145615376 0" in="shadowInnerInner1" type="matrix" result="shadowMatrixInner1"></feColorMatrix>
            <feMerge>
                <feMergeNode in="SourceGraphic"></feMergeNode>
                <feMergeNode in="shadowMatrixInner1"></feMergeNode>
            </feMerge>
        </filter>
        <filter x="-50%" y="-50%" width="200%" height="200%" filterUnits="objectBoundingBox" id="filter-2">
            <feOffset dx="3" dy="-1" in="SourceAlpha" result="shadowOffsetInner1"></feOffset>
            <feGaussianBlur stdDeviation="1" in="shadowOffsetInner1" result="shadowBlurInner1"></feGaussianBlur>
            <feComposite in="shadowBlurInner1" in2="SourceAlpha" operator="arithmetic" k2="-1" k3="1" result="shadowInnerInner1"></feComposite>
            <feColorMatrix values="0 0 0 0 0   0 0 0 0 0   0 0 0 0 0  0 0 0 0.145615376 0" in="shadowInnerInner1" type="matrix" result="shadowMatrixInner1"></feColorMatrix>
            <feMerge>
                <feMergeNode in="SourceGraphic"></feMergeNode>
                <feMergeNode in="shadowMatrixInner1"></feMergeNode>
            </feMerge>
        </filter>
        <filter x="-50%" y="-50%" width="200%" height="200%" filterUnits="objectBoundingBox" id="filter-3">
            <feOffset dx="1" dy="-1" in="SourceAlpha" result="shadowOffsetInner1"></feOffset>
            <feGaussianBlur stdDeviation="1" in="shadowOffsetInner1" result="shadowBlurInner1"></feGaussianBlur>
            <feComposite in="shadowBlurInner1" in2="SourceAlpha" operator="arithmetic" k2="-1" k3="1" result="shadowInnerInner1"></feComposite>
            <feColorMatrix values="0 0 0 0 0   0 0 0 0 0   0 0 0 0 0  0 0 0 0.35 0" in="shadowInnerInner1" type="matrix" result="shadowMatrixInner1"></feColorMatrix>
            <feMerge>
                <feMergeNode in="SourceGraphic"></feMergeNode>
                <feMergeNode in="shadowMatrixInner1"></feMergeNode>
            </feMerge>
        </filter>
        <filter x="-50%" y="-50%" width="200%" height="200%" filterUnits="objectBoundingBox" id="filter-4">
            <feOffset dx="1" dy="-1" in="SourceAlpha" result="shadowOffsetInner1"></feOffset>
            <feGaussianBlur stdDeviation="1" in="shadowOffsetInner1" result="shadowBlurInner1"></feGaussianBlur>
            <feComposite in="shadowBlurInner1" in2="SourceAlpha" operator="arithmetic" k2="-1" k3="1" result="shadowInnerInner1"></feComposite>
            <feColorMatrix values="0 0 0 0 0   0 0 0 0 0   0 0 0 0 0  0 0 0 0.35 0" in="shadowInnerInner1" type="matrix" result="shadowMatrixInner1"></feColorMatrix>
            <feMerge>
                <feMergeNode in="SourceGraphic"></feMergeNode>
                <feMergeNode in="shadowMatrixInner1"></feMergeNode>
            </feMerge>
        </filter>
        <filter x="-50%" y="-50%" width="200%" height="200%" filterUnits="objectBoundingBox" id="filter-5">
            <feOffset dx="2" dy="-2" in="SourceAlpha" result="shadowOffsetInner1"></feOffset>
            <feGaussianBlur stdDeviation="1" in="shadowOffsetInner1" result="shadowBlurInner1"></feGaussianBlur>
            <feComposite in="shadowBlurInner1" in2="SourceAlpha" operator="arithmetic" k2="-1" k3="1" result="shadowInnerInner1"></feComposite>
            <feColorMatrix values="0 0 0 0 0   0 0 0 0 0   0 0 0 0 0  0 0 0 0.180013021 0" in="shadowInnerInner1" type="matrix" result="shadowMatrixInner1"></feColorMatrix>
            <feMerge>
                <feMergeNode in="SourceGraphic"></feMergeNode>
                <feMergeNode in="shadowMatrixInner1"></feMergeNode>
            </feMerge>
        </filter>
        <ellipse id="path-6" cx="28.5" cy="25" rx="28.5" ry="25"></ellipse>
    </defs>
    <g id="Page-1" stroke="none" stroke-width="1" fill="none" fill-rule="evenodd" sketch:type="MSPage">
        <g id="deric" sketch:type="MSArtboardGroup">
            <ellipse id="Oval-450" fill="#373E51" filter="url(#filter-1)" sketch:type="MSShapeGroup" cx="49.5" cy="59" rx="6.5" ry="6"></ellipse>
            <ellipse id="Oval-451" fill="#373E51" filter="url(#filter-2)" sketch:type="MSShapeGroup" cx="16.5" cy="59" rx="6.5" ry="6"></ellipse>
            <circle id="Oval-452" fill="#555555" filter="url(#filter-3)" sketch:type="MSShapeGroup" cx="41" cy="80" r="6"></circle>
            <circle id="Oval-453" fill="#555555" filter="url(#filter-4)" sketch:type="MSShapeGroup" cx="25" cy="80" r="6"></circle>
            <rect id="Rectangle-528" fill="#373E51" filter="url(#filter-5)" sketch:type="MSShapeGroup" x="18" y="53" width="30" height="27"></rect>
            <path d="M37,57 C38.5,58 38.5,60.5 38,62 C37.5,63.5 38,66.5 38,66.5" id="Path-92" stroke="#D9D7D7" stroke-linecap="round" sketch:type="MSShapeGroup"></path>
            <path d="M26.1296195,57 C25.8305814,59.5 26.1296195,60.5 27.1296195,62 C28.1296195,63.5 26.1296195,67.5 26.1296195,67.5" id="Path-93" stroke="#D9D7D7" stroke-linecap="round" sketch:type="MSShapeGroup" transform="translate(26.714329, 62.250000) scale(-1, 1) translate(-26.714329, -62.250000) "></path>
            <path d="M32.5,71.5 L32.5,80" id="Path-91" stroke="#D9D7D7" sketch:type="MSShapeGroup"></path>
            <path d="M32.5,71.9999992 C32.5,71.9999992 34,61 36,56 C35.1358903,51.3091186 29.9237621,50.9852914 29,56 C31,60.5 32.5,71.9999992 32.5,71.9999992 Z" id="Oval-493" stroke="#D9D7D7" fill="#AEAEAE" sketch:type="MSShapeGroup"></path>
            <g id="Oval-449-+-Oval-458" sketch:type="MSLayerGroup" transform="translate(4.000000, 8.000000)">
                <mask id="mask-7" sketch:name="Oval 449" fill="white">
                    <use xlink:href="#path-6"></use>
                </mask>
                <use id="Oval-449" fill="#DB9E73" sketch:type="MSShapeGroup" xlink:href="#path-6"></use>
                <path d="M-1,40.3331577 C-1,40.3331577 11,28.9998243 25,28.9998243 C28.1741618,28.9998243 36.7210168,29.9071264 43.5,32.9998243 C50.9379635,36.3931613 56.5,41.9998243 56.5,41.9998243 C56.5,41.9998243 52.5650391,51.0459348 52.5,50.9998243 C51.3425839,50.1792555 44.3736715,32.0379819 25,31.4998243 C7,30.9998243 -3,50.9998243 -3,50.9998243 L-1,40.3331577 Z" id="Rectangle-534" fill-opacity="0.185552731" sketch:type="MSShapeGroup" mask="url(#mask-7)">
                    <g transform="translate(26.750000, 39.999912) rotate(-180.000000) translate(-26.750000, -39.999912) "></g>
                </path>
                <path d="M12.5,43 C12.5,43 15.0990541,39.1383345 17.7354268,37.9080272 C20.3717995,36.67772 25.4333207,37 28.5,37 C31.7933886,37 37.4976874,36.8719781 39.4988437,37.935989 C41.5,38.9999999 45,43 45,43 L41.5,45 C41.5,45 40.5,40.7309546 39.5039761,39.9353879 C38.5079522,39.1398212 31.9797107,39 29,39 C25.5572332,39 19,39 17.6141029,39.9243859 C16.2282059,40.8487717 15.5,45 15.5,45 L12.5,43 Z" id="Rectangle-533" fill-opacity="0.185552731" sketch:type="MSShapeGroup" mask="url(#mask-7)"></path>
                <ellipse id="Oval-458" fill="#2B180B" sketch:type="MSShapeGroup" mask="url(#mask-7)" cx="-0.5" cy="13" rx="7.5" ry="18">
                    <g transform="translate(-0.500000, 13.000000) rotate(6.000000) translate(0.500000, -13.000000) "></g>
                </ellipse>
                <ellipse id="Oval-459" fill="#2B180B" sketch:type="MSShapeGroup" mask="url(#mask-7)" cx="56.1875" cy="10.6875" rx="7.5" ry="18">
                    <g transform="translate(56.187500, 10.687500) scale(-1, 1) rotate(6.000000) translate(-56.187500, -10.687500) "></g>
                </ellipse>
                <path d="M53,8.5 C47,13.5 32.2241626,9.13596781 27.2918091,11.5 C14,9.5 6,17.5 6,17.5 L7.50000023,-3.5 L34.5,-2 C34.5,-2 57.5,4.5 53,8.5 Z" id="Path-94" fill="#2B180B" sketch:type="MSShapeGroup" mask="url(#mask-7)"></path>
            </g>
            <path d="M39.0387812,16 C39.5387812,8 35.5387812,7 35.5387812,7 C35.5387812,7 31.0387812,6.5 31.5387812,7.5 C32.0387812,8.5 34.0387812,13 34.0387812,15" id="Path-115" fill="#2B190C" sketch:type="MSShapeGroup" transform="translate(35.291017, 11.437500) scale(-1, 1) translate(-35.291017, -11.437500) "></path>
            <path d="M37,15 C37.5,7 33.2522357,5.5 33.2522357,5.5 C33.2522357,5.5 28.5,5 29,6 C29.5,7 32,12 32,14" id="Path-116" fill="#2B190C" sketch:type="MSShapeGroup" transform="translate(33.002028, 10.187500) scale(-1, 1) translate(-33.002028, -10.187500) "></path>
            <path d="M34.4563805,13.5832581 C34.1174137,5.57481871 30.0347977,4.99841067 30.0347977,4.99841067 C30.0347977,4.99841067 24.3982106,5.05774236 25.0000001,6.00000002 C25.6017895,6.94225768 29.1701856,11.1223347 29.3792425,13.1113785" id="Path-117" fill="#2B190C" sketch:type="MSShapeGroup" transform="translate(29.705704, 9.290834) scale(-1, 1) rotate(23.000000) translate(-29.705704, -9.290834) "></path>
            <path d="M29,15 C29.5,7 25.5,6 25.5,6 C25.5,6 21,5.5 21.5,6.5 C22,7.5 24,12 24,14" id="Path-118" fill="#2B190C" sketch:type="MSShapeGroup" transform="translate(25.252236, 10.437500) scale(-1, 1) rotate(20.000000) translate(-25.252236, -10.437500) "></path>
            <path d="M25,16 C25.5,8 21.5,7 21.5,7 C21.5,7 17,6.5 17.5,7.5 C18,8.5 20,13 20,15" id="Path-119" fill="#2B190C" sketch:type="MSShapeGroup" transform="translate(21.252236, 11.437500) scale(-1, 1) rotate(27.000000) translate(-21.252236, -11.437500) "></path>
            <path d="M21.0531599,18.8745438 C19.4655705,11.0177277 15.3430481,11.087078 15.3430481,11.087078 C15.3430481,11.087078 10.8669724,11.7688008 11.6087543,12.6053171 C12.3505363,13.4418334 15.4470737,17.2708616 15.9647117,19.2027132" id="Path-120" fill="#2B190C" sketch:type="MSShapeGroup" transform="translate(16.289472, 15.144890) scale(-1, 1) rotate(45.000000) translate(-16.289472, -15.144890) "></path>
            <path d="M23.9754518,35.8668995 C23.8044924,33.6813844 22.7613319,32 21.5,32 C20.1192881,32 19,34.0147186 19,36.5 C19,37.9919822 19.4033834,39.314377 20.0245482,40.1331005 C20.0083676,39.9262502 20,39.714884 20,39.5 C20,37.0147186 21.1192881,35 22.5,35 C23.0518329,35 23.5619064,35.3218277 23.9754518,35.8668995 Z" id="Oval-461" fill="#555555" sketch:type="MSShapeGroup"></path>
            <path d="M43.9754518,35.8668995 C43.8044924,33.6813844 42.7613319,32 41.5,32 C40.1192881,32 39,34.0147186 39,36.5 C39,37.9919822 39.4033834,39.314377 40.0245482,40.1331005 C40.0083676,39.9262502 40,39.714884 40,39.5 C40,37.0147186 41.1192881,35 42.5,35 C43.0518329,35 43.5619064,35.3218277 43.9754518,35.8668995 Z" id="Oval-463" fill="#555555" sketch:type="MSShapeGroup"></path>
            <path d="M42.8578281,49.9123785 C42.0321241,51.0968682 37.7090313,52 32.5,52 C27.2909687,52 22.9678759,51.0968682 22.1421719,49.9123785 C24.7648071,50.5691722 28.902231,51 32.5,51 C36.097769,51 40.2351929,50.5691722 42.8578281,49.9123785 Z" id="Oval-465" fill="#555555" sketch:type="MSShapeGroup"></path>
        </g>
    </g>
</svg>