<?xml version="1.0" encoding="UTF-8" standalone="no"?>
<svg width="65px" height="87px" viewBox="0 0 65 87" version="1.1" xmlns="http://www.w3.org/2000/svg" xmlns:xlink="http://www.w3.org/1999/xlink" xmlns:sketch="http://www.bohemiancoding.com/sketch/ns">
    <!-- Generator: Sketch 3.4.4 (17249) - http://www.bohemiancoding.com/sketch -->
    <title>eric</title>
    <desc>Created with Sketch.</desc>
    <defs>
        <filter x="-50%" y="-50%" width="200%" height="200%" filterUnits="objectBoundingBox" id="filter-1">
            <feOffset dx="-1" dy="-1" in="SourceAlpha" result="shadowOffsetInner1"></feOffset>
            <feGaussianBlur stdDeviation="1" in="shadowOffsetInner1" result="shadowBlurInner1"></feGaussianBlur>
            <feComposite in="shadowBlurInner1" in2="SourceAlpha" operator="arithmetic" k2="-1" k3="1" result="shadowInnerInner1"></feComposite>
            <feColorMatrix values="0 0 0 0 0   0 0 0 0 0   0 0 0 0 0  0 0 0 0.145615376 0" in="shadowInnerInner1" type="matrix" result="shadowMatrixInner1"></feColorMatrix>
            <feMerge>
                <feMergeNode in="SourceGraphic"></feMergeNode>
                <feMergeNode in="shadowMatrixInner1"></feMergeNode>
            </feMerge>
        </filter>
        <ellipse id="path-2" cx="6.5" cy="6" rx="6.5" ry="6"></ellipse>
        <filter x="-50%" y="-50%" width="200%" height="200%" filterUnits="objectBoundingBox" id="filter-4">
            <feOffset dx="1" dy="-1" in="SourceAlpha" result="shadowOffsetInner1"></feOffset>
            <feGaussianBlur stdDeviation="1" in="shadowOffsetInner1" result="shadowBlurInner1"></feGaussianBlur>
            <feComposite in="shadowBlurInner1" in2="SourceAlpha" operator="arithmetic" k2="-1" k3="1" result="shadowInnerInner1"></feComposite>
            <feColorMatrix values="0 0 0 0 0   0 0 0 0 0   0 0 0 0 0  0 0 0 0.35 0" in="shadowInnerInner1" type="matrix" result="shadowMatrixInner1"></feColorMatrix>
            <feMerge>
                <feMergeNode in="SourceGraphic"></feMergeNode>
                <feMergeNode in="shadowMatrixInner1"></feMergeNode>
            </feMerge>
        </filter>
        <filter x="-50%" y="-50%" width="200%" height="200%" filterUnits="objectBoundingBox" id="filter-5">
            <feOffset dx="1" dy="-1" in="SourceAlpha" result="shadowOffsetInner1"></feOffset>
            <feGaussianBlur stdDeviation="1" in="shadowOffsetInner1" result="shadowBlurInner1"></feGaussianBlur>
            <feComposite in="shadowBlurInner1" in2="SourceAlpha" operator="arithmetic" k2="-1" k3="1" result="shadowInnerInner1"></feComposite>
            <feColorMatrix values="0 0 0 0 0   0 0 0 0 0   0 0 0 0 0  0 0 0 0.35 0" in="shadowInnerInner1" type="matrix" result="shadowMatrixInner1"></feColorMatrix>
            <feMerge>
                <feMergeNode in="SourceGraphic"></feMergeNode>
                <feMergeNode in="shadowMatrixInner1"></feMergeNode>
            </feMerge>
        </filter>
        <filter x="-50%" y="-50%" width="200%" height="200%" filterUnits="objectBoundingBox" id="filter-6">
            <feOffset dx="3" dy="-1" in="SourceAlpha" result="shadowOffsetInner1"></feOffset>
            <feGaussianBlur stdDeviation="1" in="shadowOffsetInner1" result="shadowBlurInner1"></feGaussianBlur>
            <feComposite in="shadowBlurInner1" in2="SourceAlpha" operator="arithmetic" k2="-1" k3="1" result="shadowInnerInner1"></feComposite>
            <feColorMatrix values="0 0 0 0 0   0 0 0 0 0   0 0 0 0 0  0 0 0 0.145615376 0" in="shadowInnerInner1" type="matrix" result="shadowMatrixInner1"></feColorMatrix>
            <feMerge>
                <feMergeNode in="SourceGraphic"></feMergeNode>
                <feMergeNode in="shadowMatrixInner1"></feMergeNode>
            </feMerge>
        </filter>
        <ellipse id="path-7" cx="6.5" cy="6" rx="6.5" ry="6"></ellipse>
        <filter x="-50%" y="-50%" width="200%" height="200%" filterUnits="objectBoundingBox" id="filter-9">
            <feOffset dx="2" dy="-2" in="SourceAlpha" result="shadowOffsetInner1"></feOffset>
            <feGaussianBlur stdDeviation="1" in="shadowOffsetInner1" result="shadowBlurInner1"></feGaussianBlur>
            <feComposite in="shadowBlurInner1" in2="SourceAlpha" operator="arithmetic" k2="-1" k3="1" result="shadowInnerInner1"></feComposite>
            <feColorMatrix values="0 0 0 0 0   0 0 0 0 0   0 0 0 0 0  0 0 0 0.180013021 0" in="shadowInnerInner1" type="matrix" result="shadowMatrixInner1"></feColorMatrix>
            <feMerge>
                <feMergeNode in="SourceGraphic"></feMergeNode>
                <feMergeNode in="shadowMatrixInner1"></feMergeNode>
            </feMerge>
        </filter>
        <rect id="path-10" x="0" y="0.518518519" width="28" height="37"></rect>
        <ellipse id="path-12" cx="28.5" cy="25" rx="28.5" ry="25"></ellipse>
        <filter x="-50%" y="-50%" width="200%" height="200%" filterUnits="objectBoundingBox" id="filter-14">
            <feOffset dx="0" dy="-0.200000003" in="SourceAlpha" result="shadowOffsetInner1"></feOffset>
            <feGaussianBlur stdDeviation="0" in="shadowOffsetInner1" result="shadowBlurInner1"></feGaussianBlur>
            <feComposite in="shadowBlurInner1" in2="SourceAlpha" operator="arithmetic" k2="-1" k3="1" result="shadowInnerInner1"></feComposite>
            <feColorMatrix values="0 0 0 0 0.428571429   0 0 0 0 0.303376963   0 0 0 0 0.222952178  0 0 0 0.294202899 0" in="shadowInnerInner1" type="matrix" result="shadowMatrixInner1"></feColorMatrix>
            <feMerge>
                <feMergeNode in="SourceGraphic"></feMergeNode>
                <feMergeNode in="shadowMatrixInner1"></feMergeNode>
            </feMerge>
        </filter>
    </defs>
    <g id="Page-1" stroke="none" stroke-width="1" fill="none" fill-rule="evenodd" sketch:type="MSPage">
        <g id="eric" sketch:type="MSArtboardGroup">
            <g id="Oval-450-+-Rectangle-565" sketch:type="MSLayerGroup" transform="translate(43.000000, 49.000000)">
                <mask id="mask-3" sketch:name="Oval 450" fill="white">
                    <use xlink:href="#path-2"></use>
                </mask>
                <use id="Oval-450" fill="#0A0C0F" filter="url(#filter-1)" sketch:type="MSShapeGroup" xlink:href="#path-2"></use>
            </g>
            <circle id="Oval-452" fill="#555555" filter="url(#filter-4)" sketch:type="MSShapeGroup" cx="41" cy="80" r="6"></circle>
            <circle id="Oval-453" fill="#555555" filter="url(#filter-5)" sketch:type="MSShapeGroup" cx="25" cy="80" r="6"></circle>
            <g id="Oval-451-+-Rectangle-564" sketch:type="MSLayerGroup" transform="translate(10.000000, 49.000000)">
                <mask id="mask-8" sketch:name="Oval 451" fill="white">
                    <use xlink:href="#path-7"></use>
                </mask>
                <use id="Oval-451" fill="#0A0C0F" filter="url(#filter-6)" sketch:type="MSShapeGroup" xlink:href="#path-7"></use>
            </g>
            <g id="Rectangle-528-+-Rectangle-557" sketch:type="MSLayerGroup" transform="translate(19.000000, 43.000000)">
                <mask id="mask-11" sketch:name="Rectangle 528" fill="white">
                    <use xlink:href="#path-10"></use>
                </mask>
                <use id="Rectangle-528" fill="#0A0C0F" filter="url(#filter-9)" sketch:type="MSShapeGroup" xlink:href="#path-10"></use>
            </g>
            <rect id="Rectangle-566" fill="#2C2B2B" sketch:type="MSShapeGroup" transform="translate(28.045862, 52.639038) rotate(-48.000000) translate(-28.045862, -52.639038) " x="25.9732237" y="49.0119216" width="4.14527575" height="7.25423255"></rect>
            <rect id="Rectangle-567" fill="#2C2B2B" sketch:type="MSShapeGroup" transform="translate(37.045862, 52.639038) scale(-1, 1) rotate(-48.000000) translate(-37.045862, -52.639038) " x="34.9732237" y="49.0119216" width="4.14527575" height="7.25423255"></rect>
            <path d="M32.5,54 L32.5,80.5" id="Path-112" stroke="#2C2B2B" sketch:type="MSShapeGroup"></path>
            <circle id="Oval-537" fill="#2C2B2B" sketch:type="MSShapeGroup" cx="34.2000046" cy="57.5" r="0.5"></circle>
            <circle id="Oval-538" fill="#2C2B2B" sketch:type="MSShapeGroup" cx="34.2000046" cy="61.5" r="0.5"></circle>
            <circle id="Oval-539" fill="#2C2B2B" sketch:type="MSShapeGroup" cx="34.2000046" cy="65.5" r="0.5"></circle>
            <circle id="Oval-540" fill="#2C2B2B" sketch:type="MSShapeGroup" cx="34.2000046" cy="69.5" r="0.5"></circle>
            <circle id="Oval-541" fill="#2C2B2B" sketch:type="MSShapeGroup" cx="34.2000046" cy="73.5" r="0.5"></circle>
            <circle id="Oval-542" fill="#2C2B2B" sketch:type="MSShapeGroup" cx="34.2000046" cy="77.5" r="0.5"></circle>
            <g id="Group" sketch:type="MSLayerGroup" transform="translate(4.000000, 2.000000)">
                <path d="M15.3681843,12.374492 C13.7807278,4.51764027 9.65714141,4.58727574 9.65714141,4.58727574 C9.65714141,4.58727574 5.17986859,5.26931929 5.92178355,6.10579995 C6.66369852,6.94228062 9.76076791,10.7711662 10.278406,12.7030178" id="Path-120" fill="#321B0F" sketch:type="MSShapeGroup" transform="translate(10.603510, 8.645106) scale(-1, 1) rotate(24.000000) translate(-10.603510, -8.645106) "></path>
                <g id="Oval-449-+-Oval-458" transform="translate(0.000000, 2.000000)">
                    <mask id="mask-13" sketch:name="Oval 449" fill="white">
                        <use xlink:href="#path-12"></use>
                    </mask>
                    <use id="Oval-449" fill="#E4AC85" sketch:type="MSShapeGroup" xlink:href="#path-12"></use>
                    <ellipse id="Oval-458" fill="#3D2212" sketch:type="MSShapeGroup" mask="url(#mask-13)" cx="-0.5" cy="13" rx="7.5" ry="18">
                        <g transform="translate(-0.500000, 13.000000) rotate(8.000000) translate(0.500000, -13.000000) "></g>
                    </ellipse>
                    <ellipse id="Oval-459" fill="#3D2212" sketch:type="MSShapeGroup" mask="url(#mask-13)" cx="56.1875" cy="10.6875" rx="7.5" ry="18">
                        <g transform="translate(56.187500, 10.687500) scale(-1, 1) rotate(6.000000) translate(-56.187500, -10.687500) "></g>
                    </ellipse>
                    <path d="M50.5,3 C49,12 38,10.5 34.5,9 C31,7.5 22.5,11.5 15.5,12.5 C8.5,13.5 9.99999999,9 4.49999999,7.5 C3.15845954,4.81691903 7.50000023,-3.5 7.50000023,-3.5 L34.5,-2 C34.5,-2 55,-1 50.5,3 Z" id="Path-94" fill="#3D2212" filter="url(#filter-14)" sketch:type="MSShapeGroup" mask="url(#mask-13)"></path>
                </g>
                <path d="M19.9754518,29.8668995 C19.8044924,27.6813844 18.7613319,26 17.5,26 C16.1192881,26 15,28.0147186 15,30.5 C15,31.9919822 15.4033834,33.314377 16.0245482,34.1331005 C16.0083676,33.9262502 16,33.714884 16,33.5 C16,31.0147186 17.1192881,29 18.5,29 C19.0518329,29 19.5619064,29.3218277 19.9754518,29.8668995 Z" id="Oval-461" fill="#555555" sketch:type="MSShapeGroup"></path>
                <path d="M39.9754518,29.8668995 C39.8044924,27.6813844 38.7613319,26 37.5,26 C36.1192881,26 35,28.0147186 35,30.5 C35,31.9919822 35.4033834,33.314377 36.0245482,34.1331005 C36.0083676,33.9262502 36,33.714884 36,33.5 C36,31.0147186 37.1192881,29 38.5,29 C39.0518329,29 39.5619064,29.3218277 39.9754518,29.8668995 Z" id="Oval-463" fill="#555555" sketch:type="MSShapeGroup"></path>
                <path d="M38.8578281,43.9123785 C38.0321241,45.0968682 33.7090313,46 28.5,46 C23.2909687,46 18.9678759,45.0968682 18.1421719,43.9123785 C20.7648071,44.5691722 24.902231,45 28.5,45 C32.097769,45 36.2351929,44.5691722 38.8578281,43.9123785 Z" id="Oval-465" fill="#555555" sketch:type="MSShapeGroup"></path>
                <path d="M37.698781,9.50500011 C38.198781,1.50500011 34.198781,0.505000114 34.198781,0.505000114 C34.198781,0.505000114 29.698781,0.00500011444 30.198781,1.00500011 C30.698781,2.00500011 32.698781,6.50500011 32.698781,8.50500011" id="Path-115" fill="#3E2213" sketch:type="MSShapeGroup"></path>
                <path d="M41.5387812,9.50500011 C42.0387812,1.50500011 38.0387812,0.505000114 38.0387812,0.505000114 C38.0387812,0.505000114 33.5387812,0.00500011444 34.0387812,1.00500011 C34.5387812,2.00500011 36.5387812,6.50500011 36.5387812,8.50500011" id="Path-115-Copy" fill="#3E2213" sketch:type="MSShapeGroup"></path>
                <path d="M45.5387812,10.125 C46.0387812,2.125 42.0387812,1.125 42.0387812,1.125 C42.0387812,1.125 37.5387812,0.625 38.0387812,1.625 C38.5387812,2.625 40.5387812,7.125 40.5387812,9.125" id="Path-115-Copy-2" fill="#3E2213" sketch:type="MSShapeGroup"></path>
                <path d="M34.0968583,10.2049999 C34.5968583,2.20499992 30.3490939,0.704999924 30.3490939,0.704999924 C30.3490939,0.704999924 25.5968583,0.204999924 26.0968583,1.20499992 C26.5968583,2.20499992 29.0968583,7.20499992 29.0968583,9.20499992" id="Path-116" fill="#3E2213" sketch:type="MSShapeGroup"></path>
                <path d="M30.4563805,9.58325811 C30.1174137,1.57481871 26.0347977,0.998410669 26.0347977,0.998410669 C26.0347977,0.998410669 20.3982106,1.05774236 21.0000001,2.00000002 C21.6017895,2.94225768 25.1701856,7.12233474 25.3792425,9.11137853" id="Path-117" fill="#3E2213" sketch:type="MSShapeGroup"></path>
                <path d="M25.4563805,10.5832581 C25.1174137,2.57481871 21.0347977,1.99841067 21.0347977,1.99841067 C21.0347977,1.99841067 16.5071849,1.97152781 17.1089743,2.91378547 C17.7107637,3.85604313 20.1701856,8.12233474 20.3792425,10.1113785" id="Path-118" fill="#3E2213" sketch:type="MSShapeGroup"></path>
                <path d="M22.7296753,10.487209 C21.1422188,2.63035725 17.0186324,2.69999272 17.0186324,2.69999272 C17.0186324,2.69999272 12.5413596,3.38203627 13.2832746,4.21851693 C14.0251895,5.0549976 17.1222589,8.88388317 17.639897,10.8157348" id="Path-119" fill="#3E2213" sketch:type="MSShapeGroup"></path>
                <path d="M18.5296745,11.7872092 C16.9422181,3.93035744 12.8186317,3.99999291 12.8186317,3.99999291 C12.8186317,3.99999291 8.34135883,4.68203646 9.0832738,5.51851712 C9.82518877,6.35499779 7.68579946,7.9951718 8.20343756,9.92702345" id="Path-120" fill="#3E2213" sketch:type="MSShapeGroup"></path>
                <path d="M8.97802734,5.2555542 C8.97802734,5.2555542 13.5363159,7.10870361 11.8688354,12.5096436" id="Path-342" stroke="#4C2A17" stroke-width="0.4" sketch:type="MSShapeGroup"></path>
                <path d="M18,3 C18,3 22.5582886,4.85314941 20.8908081,10.2540894" id="Path-342-Copy" stroke="#4C2A17" stroke-width="0.4" sketch:type="MSShapeGroup"></path>
                <path d="M30,1 C30,1 34.5582886,2.85314941 32.8908081,8.25408936" id="Path-342-Copy-2" stroke="#4C2A17" stroke-width="0.4" sketch:type="MSShapeGroup"></path>
                <path d="M38.8578281,1 C38.8578281,1 43.4161167,2.85314941 41.7486362,8.25408936" id="Path-342-Copy-3" stroke="#4C2A17" stroke-width="0.4" sketch:type="MSShapeGroup"></path>
                <g id="Oval-449-+-Oval-458" transform="translate(4.000000, 22.000000)" stroke="#67391A" sketch:type="MSShapeGroup">
                    <path d="M8,1 C8,1 12.2457893,0.5 13.912456,0.5 C16.2457893,0.5 20,1 20,1 C20,1 21.5072213,8.23156166 19,10.5 C17,12 12.5,12 9.49999992,10.5 C6.49999992,8 8,1 8,1 Z" id="Rectangle-573" stroke-linecap="round" stroke-linejoin="round"></path>
                    <path d="M28,1 C28,1 32.2457893,0.5 33.912456,0.5 C36.2457893,0.5 40,1 40,1 C40,1 41.5072213,8.23156166 39,10.5 C37,12 32.5,12 29.4999999,10.5 C26.4999999,8 28,1 28,1 Z" id="Rectangle-574" stroke-linecap="round" stroke-linejoin="round" transform="translate(34.037106, 6.062500) scale(-1, 1) translate(-34.037106, -6.062500) "></path>
                    <path d="M8,2.5 L0,1" id="Path-138"></path>
                    <path d="M48.5,2.5 L40,0.5" id="Path-139" transform="translate(44.250000, 1.500000) scale(-1, 1) translate(-44.250000, -1.500000) "></path>
                    <path d="M20,3 C20,3 22.625,2.5 24,2.5 C25.2916667,2.5 28,3 28,3" id="Path-140"></path>
                </g>
            </g>
        </g>
    </g>
</svg>