<?xml version="1.0" encoding="UTF-8" standalone="no"?>
<svg width="65px" height="81px" viewBox="0 0 65 81" version="1.1" xmlns="http://www.w3.org/2000/svg" xmlns:xlink="http://www.w3.org/1999/xlink" xmlns:sketch="http://www.bohemiancoding.com/sketch/ns">
    <!-- Generator: Sketch 3.4.4 (17249) - http://www.bohemiancoding.com/sketch -->
    <title>laura</title>
    <desc>Created with Sketch.</desc>
    <defs>
        <filter x="-50%" y="-50%" width="200%" height="200%" filterUnits="objectBoundingBox" id="filter-1">
            <feOffset dx="-1" dy="-1" in="SourceAlpha" result="shadowOffsetInner1"></feOffset>
            <feGaussianBlur stdDeviation="1" in="shadowOffsetInner1" result="shadowBlurInner1"></feGaussianBlur>
            <feComposite in="shadowBlurInner1" in2="SourceAlpha" operator="arithmetic" k2="-1" k3="1" result="shadowInnerInner1"></feComposite>
            <feColorMatrix values="0 0 0 0 0   0 0 0 0 0   0 0 0 0 0  0 0 0 0.145615376 0" in="shadowInnerInner1" type="matrix" result="shadowMatrixInner1"></feColorMatrix>
            <feMerge>
                <feMergeNode in="SourceGraphic"></feMergeNode>
                <feMergeNode in="shadowMatrixInner1"></feMergeNode>
            </feMerge>
        </filter>
        <filter x="-50%" y="-50%" width="200%" height="200%" filterUnits="objectBoundingBox" id="filter-2">
            <feOffset dx="3" dy="-1" in="SourceAlpha" result="shadowOffsetInner1"></feOffset>
            <feGaussianBlur stdDeviation="1" in="shadowOffsetInner1" result="shadowBlurInner1"></feGaussianBlur>
            <feComposite in="shadowBlurInner1" in2="SourceAlpha" operator="arithmetic" k2="-1" k3="1" result="shadowInnerInner1"></feComposite>
            <feColorMatrix values="0 0 0 0 0   0 0 0 0 0   0 0 0 0 0  0 0 0 0.145615376 0" in="shadowInnerInner1" type="matrix" result="shadowMatrixInner1"></feColorMatrix>
            <feMerge>
                <feMergeNode in="SourceGraphic"></feMergeNode>
                <feMergeNode in="shadowMatrixInner1"></feMergeNode>
            </feMerge>
        </filter>
        <filter x="-50%" y="-50%" width="200%" height="200%" filterUnits="objectBoundingBox" id="filter-3">
            <feOffset dx="1" dy="-1" in="SourceAlpha" result="shadowOffsetInner1"></feOffset>
            <feGaussianBlur stdDeviation="1" in="shadowOffsetInner1" result="shadowBlurInner1"></feGaussianBlur>
            <feComposite in="shadowBlurInner1" in2="SourceAlpha" operator="arithmetic" k2="-1" k3="1" result="shadowInnerInner1"></feComposite>
            <feColorMatrix values="0 0 0 0 0   0 0 0 0 0   0 0 0 0 0  0 0 0 0.35 0" in="shadowInnerInner1" type="matrix" result="shadowMatrixInner1"></feColorMatrix>
            <feMerge>
                <feMergeNode in="SourceGraphic"></feMergeNode>
                <feMergeNode in="shadowMatrixInner1"></feMergeNode>
            </feMerge>
        </filter>
        <filter x="-50%" y="-50%" width="200%" height="200%" filterUnits="objectBoundingBox" id="filter-4">
            <feOffset dx="1" dy="-1" in="SourceAlpha" result="shadowOffsetInner1"></feOffset>
            <feGaussianBlur stdDeviation="1" in="shadowOffsetInner1" result="shadowBlurInner1"></feGaussianBlur>
            <feComposite in="shadowBlurInner1" in2="SourceAlpha" operator="arithmetic" k2="-1" k3="1" result="shadowInnerInner1"></feComposite>
            <feColorMatrix values="0 0 0 0 0   0 0 0 0 0   0 0 0 0 0  0 0 0 0.35 0" in="shadowInnerInner1" type="matrix" result="shadowMatrixInner1"></feColorMatrix>
            <feMerge>
                <feMergeNode in="SourceGraphic"></feMergeNode>
                <feMergeNode in="shadowMatrixInner1"></feMergeNode>
            </feMerge>
        </filter>
        <filter x="-50%" y="-50%" width="200%" height="200%" filterUnits="objectBoundingBox" id="filter-5">
            <feOffset dx="2" dy="-2" in="SourceAlpha" result="shadowOffsetInner1"></feOffset>
            <feGaussianBlur stdDeviation="1" in="shadowOffsetInner1" result="shadowBlurInner1"></feGaussianBlur>
            <feComposite in="shadowBlurInner1" in2="SourceAlpha" operator="arithmetic" k2="-1" k3="1" result="shadowInnerInner1"></feComposite>
            <feColorMatrix values="0 0 0 0 0   0 0 0 0 0   0 0 0 0 0  0 0 0 0.180013021 0" in="shadowInnerInner1" type="matrix" result="shadowMatrixInner1"></feColorMatrix>
            <feMerge>
                <feMergeNode in="SourceGraphic"></feMergeNode>
                <feMergeNode in="shadowMatrixInner1"></feMergeNode>
            </feMerge>
        </filter>
        <ellipse id="path-6" cx="28.5" cy="25" rx="28.5" ry="25"></ellipse>
        <filter x="-50%" y="-50%" width="200%" height="200%" filterUnits="objectBoundingBox" id="filter-8">
            <feOffset dx="0" dy="-0.499999911" in="SourceAlpha" result="shadowOffsetInner1"></feOffset>
            <feGaussianBlur stdDeviation="0" in="shadowOffsetInner1" result="shadowBlurInner1"></feGaussianBlur>
            <feComposite in="shadowBlurInner1" in2="SourceAlpha" operator="arithmetic" k2="-1" k3="1" result="shadowInnerInner1"></feComposite>
            <feColorMatrix values="0 0 0 0 0.258503401   0 0 0 0 0.148835292   0 0 0 0 0.148835292  0 0 0 0.35 0" in="shadowInnerInner1" type="matrix" result="shadowMatrixInner1"></feColorMatrix>
            <feMerge>
                <feMergeNode in="SourceGraphic"></feMergeNode>
                <feMergeNode in="shadowMatrixInner1"></feMergeNode>
            </feMerge>
        </filter>
        <filter x="-50%" y="-50%" width="200%" height="200%" filterUnits="objectBoundingBox" id="filter-9">
            <feOffset dx="0" dy="-1" in="SourceAlpha" result="shadowOffsetInner1"></feOffset>
            <feGaussianBlur stdDeviation="0" in="shadowOffsetInner1" result="shadowBlurInner1"></feGaussianBlur>
            <feComposite in="shadowBlurInner1" in2="SourceAlpha" operator="arithmetic" k2="-1" k3="1" result="shadowInnerInner1"></feComposite>
            <feColorMatrix values="0 0 0 0 0.258503401   0 0 0 0 0.148835292   0 0 0 0 0.148835292  0 0 0 0.35 0" in="shadowInnerInner1" type="matrix" result="shadowMatrixInner1"></feColorMatrix>
            <feMerge>
                <feMergeNode in="SourceGraphic"></feMergeNode>
                <feMergeNode in="shadowMatrixInner1"></feMergeNode>
            </feMerge>
        </filter>
        <filter x="-50%" y="-50%" width="200%" height="200%" filterUnits="objectBoundingBox" id="filter-10">
            <feOffset dx="0" dy="-1" in="SourceAlpha" result="shadowOffsetInner1"></feOffset>
            <feGaussianBlur stdDeviation="0" in="shadowOffsetInner1" result="shadowBlurInner1"></feGaussianBlur>
            <feComposite in="shadowBlurInner1" in2="SourceAlpha" operator="arithmetic" k2="-1" k3="1" result="shadowInnerInner1"></feComposite>
            <feColorMatrix values="0 0 0 0 0.258503401   0 0 0 0 0.148835292   0 0 0 0 0.148835292  0 0 0 0.35 0" in="shadowInnerInner1" type="matrix" result="shadowMatrixInner1"></feColorMatrix>
            <feMerge>
                <feMergeNode in="SourceGraphic"></feMergeNode>
                <feMergeNode in="shadowMatrixInner1"></feMergeNode>
            </feMerge>
        </filter>
    </defs>
    <g id="Page-1" stroke="none" stroke-width="1" fill="none" fill-rule="evenodd" sketch:type="MSPage">
        <g id="laura" sketch:type="MSArtboardGroup">
            <ellipse id="Oval-450" fill="#350B5A" filter="url(#filter-1)" sketch:type="MSShapeGroup" cx="49.5" cy="55" rx="6.5" ry="6"></ellipse>
            <ellipse id="Oval-451" fill="#350B5A" filter="url(#filter-2)" sketch:type="MSShapeGroup" cx="16.5" cy="55" rx="6.5" ry="6"></ellipse>
            <circle id="Oval-452" fill="#515151" filter="url(#filter-3)" sketch:type="MSShapeGroup" cx="41" cy="74" r="6"></circle>
            <circle id="Oval-453" fill="#515151" filter="url(#filter-4)" sketch:type="MSShapeGroup" cx="25" cy="74" r="6"></circle>
            <rect id="Rectangle-528" fill="#340A5A" filter="url(#filter-5)" sketch:type="MSShapeGroup" x="18" y="49" width="30" height="25"></rect>
            <path d="M29,53 L37,53 L33,61.8914738 L29,53 Z" id="Rectangle-550" fill="#C2C2C2" sketch:type="MSShapeGroup"></path>
            <g id="Oval-449-+-Oval-458" sketch:type="MSLayerGroup" transform="translate(4.000000, 5.000000)">
                <mask id="mask-7" sketch:name="Oval 449" fill="white">
                    <use xlink:href="#path-6"></use>
                </mask>
                <use id="Oval-449" fill="#E2A980" sketch:type="MSShapeGroup" xlink:href="#path-6"></use>
            </g>
            <path d="M23.9754518,32.8668995 C23.8044924,30.6813844 22.7613319,29 21.5,29 C20.1192881,29 19,31.0147186 19,33.5 C19,34.9919822 19.4033834,36.314377 20.0245482,37.1331005 C20.0083676,36.9262502 20,36.714884 20,36.5 C20,34.0147186 21.1192881,32 22.5,32 C23.0518329,32 23.5619064,32.3218277 23.9754518,32.8668995 Z" id="Oval-461" fill="#555555" sketch:type="MSShapeGroup"></path>
            <path d="M43.9754518,32.8668995 C43.8044924,30.6813844 42.7613319,29 41.5,29 C40.1192881,29 39,31.0147186 39,33.5 C39,34.9919822 39.4033834,36.314377 40.0245482,37.1331005 C40.0083676,36.9262502 40,36.714884 40,36.5 C40,34.0147186 41.1192881,32 42.5,32 C43.0518329,32 43.5619064,32.3218277 43.9754518,32.8668995 Z" id="Oval-463" fill="#555555" sketch:type="MSShapeGroup"></path>
            <path d="M42.8578281,46.9123785 C42.0321241,48.0968682 37.7090313,49 32.5,49 C27.2909687,49 22.9678759,48.0968682 22.1421719,46.9123785 C24.7648071,47.5691722 28.902231,48 32.5,48 C36.097769,48 40.2351929,47.5691722 42.8578281,46.9123785 Z" id="Oval-465" fill="#555555" sketch:type="MSShapeGroup"></path>
            <g id="Group" sketch:type="MSLayerGroup" transform="translate(4.000000, 4.000000)">
                <path d="M34.4999996,8.49999983 C31.4999996,23.499999 10.0000003,19.4999992 6.00000007,26.9999992 C1.99999989,34.4999992 4.5,19.5 4.5,19.5 C4.5,19.5 37.4999996,-6.49999937 34.4999996,8.49999983 Z" id="Path-96" fill="#582A1A" filter="url(#filter-8)" sketch:type="MSShapeGroup"></path>
                <path d="M6.56612286,48.0910988 C8.36895077,51.3581867 9.0085907,43.781353 5.51019573,35.5 C2.01180077,27.218647 7.67092514,29.0464315 7.67092514,25 C7.67092514,16.9918711 51,0.5 28.5,0.5 C6.5,1.5 0,16.9918711 0,25 C0,33.0081289 2.92190751,41.4870453 6.56612286,48.0910988 Z" id="Oval-507" fill="#582A1A" filter="url(#filter-9)" sketch:type="MSShapeGroup"></path>
                <path d="M57.6093509,36.5000015 C55.0819169,42.6186385 48.3666606,48.6358334 49.5622521,51.325914 C44.3155137,47.6935572 51.1650634,38.4701286 52.5941682,36.5000015 C54.023273,34.5298744 54.1649356,29.8629686 52,26.9999996 C49.6117418,21.4856123 35.5,15.5 34,10.4999996 C32.5,5.49999914 30.5695665,-0.475447135 39,2.49999996 C56,8.49999989 57.0272637,16.9999996 57.0272637,25 C57.0272637,28.217634 59.3098391,32.3833085 57.6093509,36.5000015 Z" id="Oval-508" fill="#582A1A" filter="url(#filter-10)" sketch:type="MSShapeGroup"></path>
                <path d="M39,5 C39.5,8.5 51.5,17 52.5,20.5 C53.5,24 55,26.5 55,26.5" id="Path-135" stroke="#4C2B18" stroke-width="0.499999911" stroke-linecap="round" stroke-linejoin="round" sketch:type="MSShapeGroup"></path>
                <path d="M26.5,4 C19.5,5 6.5,16 5.5,20 C4.5,24 3.5,26 3.5,26" id="Path-136" stroke="#4C2B18" stroke-width="0.499999911" stroke-linecap="round" stroke-linejoin="round" sketch:type="MSShapeGroup"></path>
            </g>
        </g>
    </g>
</svg>