<?xml version="1.0" encoding="UTF-8" standalone="no"?>
<svg width="65px" height="87px" viewBox="0 0 65 87" version="1.1" xmlns="http://www.w3.org/2000/svg" xmlns:xlink="http://www.w3.org/1999/xlink" xmlns:sketch="http://www.bohemiancoding.com/sketch/ns">
    <!-- Generator: Sketch 3.4.4 (17249) - http://www.bohemiancoding.com/sketch -->
    <title>luke</title>
    <desc>Created with Sketch.</desc>
    <defs>
        <filter x="-50%" y="-50%" width="200%" height="200%" filterUnits="objectBoundingBox" id="filter-1">
            <feOffset dx="-1" dy="-1" in="SourceAlpha" result="shadowOffsetInner1"></feOffset>
            <feGaussianBlur stdDeviation="1" in="shadowOffsetInner1" result="shadowBlurInner1"></feGaussianBlur>
            <feComposite in="shadowBlurInner1" in2="SourceAlpha" operator="arithmetic" k2="-1" k3="1" result="shadowInnerInner1"></feComposite>
            <feColorMatrix values="0 0 0 0 0   0 0 0 0 0   0 0 0 0 0  0 0 0 0.145615376 0" in="shadowInnerInner1" type="matrix" result="shadowMatrixInner1"></feColorMatrix>
            <feMerge>
                <feMergeNode in="SourceGraphic"></feMergeNode>
                <feMergeNode in="shadowMatrixInner1"></feMergeNode>
            </feMerge>
        </filter>
        <ellipse id="path-2" cx="6.5" cy="6" rx="6.5" ry="6"></ellipse>
        <filter x="-50%" y="-50%" width="200%" height="200%" filterUnits="objectBoundingBox" id="filter-4">
            <feOffset dx="1" dy="-1" in="SourceAlpha" result="shadowOffsetInner1"></feOffset>
            <feGaussianBlur stdDeviation="1" in="shadowOffsetInner1" result="shadowBlurInner1"></feGaussianBlur>
            <feComposite in="shadowBlurInner1" in2="SourceAlpha" operator="arithmetic" k2="-1" k3="1" result="shadowInnerInner1"></feComposite>
            <feColorMatrix values="0 0 0 0 0   0 0 0 0 0   0 0 0 0 0  0 0 0 0.35 0" in="shadowInnerInner1" type="matrix" result="shadowMatrixInner1"></feColorMatrix>
            <feMerge>
                <feMergeNode in="SourceGraphic"></feMergeNode>
                <feMergeNode in="shadowMatrixInner1"></feMergeNode>
            </feMerge>
        </filter>
        <filter x="-50%" y="-50%" width="200%" height="200%" filterUnits="objectBoundingBox" id="filter-5">
            <feOffset dx="1" dy="-1" in="SourceAlpha" result="shadowOffsetInner1"></feOffset>
            <feGaussianBlur stdDeviation="1" in="shadowOffsetInner1" result="shadowBlurInner1"></feGaussianBlur>
            <feComposite in="shadowBlurInner1" in2="SourceAlpha" operator="arithmetic" k2="-1" k3="1" result="shadowInnerInner1"></feComposite>
            <feColorMatrix values="0 0 0 0 0   0 0 0 0 0   0 0 0 0 0  0 0 0 0.35 0" in="shadowInnerInner1" type="matrix" result="shadowMatrixInner1"></feColorMatrix>
            <feMerge>
                <feMergeNode in="SourceGraphic"></feMergeNode>
                <feMergeNode in="shadowMatrixInner1"></feMergeNode>
            </feMerge>
        </filter>
        <filter x="-50%" y="-50%" width="200%" height="200%" filterUnits="objectBoundingBox" id="filter-6">
            <feOffset dx="3" dy="-1" in="SourceAlpha" result="shadowOffsetInner1"></feOffset>
            <feGaussianBlur stdDeviation="1" in="shadowOffsetInner1" result="shadowBlurInner1"></feGaussianBlur>
            <feComposite in="shadowBlurInner1" in2="SourceAlpha" operator="arithmetic" k2="-1" k3="1" result="shadowInnerInner1"></feComposite>
            <feColorMatrix values="0 0 0 0 0   0 0 0 0 0   0 0 0 0 0  0 0 0 0.145615376 0" in="shadowInnerInner1" type="matrix" result="shadowMatrixInner1"></feColorMatrix>
            <feMerge>
                <feMergeNode in="SourceGraphic"></feMergeNode>
                <feMergeNode in="shadowMatrixInner1"></feMergeNode>
            </feMerge>
        </filter>
        <ellipse id="path-7" cx="6.5" cy="6" rx="6.5" ry="6"></ellipse>
        <filter x="-50%" y="-50%" width="200%" height="200%" filterUnits="objectBoundingBox" id="filter-9">
            <feOffset dx="2" dy="-2" in="SourceAlpha" result="shadowOffsetInner1"></feOffset>
            <feGaussianBlur stdDeviation="1" in="shadowOffsetInner1" result="shadowBlurInner1"></feGaussianBlur>
            <feComposite in="shadowBlurInner1" in2="SourceAlpha" operator="arithmetic" k2="-1" k3="1" result="shadowInnerInner1"></feComposite>
            <feColorMatrix values="0 0 0 0 0   0 0 0 0 0   0 0 0 0 0  0 0 0 0.180013021 0" in="shadowInnerInner1" type="matrix" result="shadowMatrixInner1"></feColorMatrix>
            <feMerge>
                <feMergeNode in="SourceGraphic"></feMergeNode>
                <feMergeNode in="shadowMatrixInner1"></feMergeNode>
            </feMerge>
        </filter>
        <rect id="path-10" x="0" y="0.518518519" width="28" height="37"></rect>
        <ellipse id="path-12" cx="28.5" cy="25" rx="28.5" ry="25"></ellipse>
        <filter x="-50%" y="-50%" width="200%" height="200%" filterUnits="objectBoundingBox" id="filter-14">
            <feOffset dx="-1.5" dy="4.5999999" in="SourceAlpha" result="shadowOffsetInner1"></feOffset>
            <feGaussianBlur stdDeviation="0" in="shadowOffsetInner1" result="shadowBlurInner1"></feGaussianBlur>
            <feComposite in="shadowBlurInner1" in2="SourceAlpha" operator="arithmetic" k2="-1" k3="1" result="shadowInnerInner1"></feComposite>
            <feColorMatrix values="0 0 0 0 0.639215686   0 0 0 0 0.364705882   0 0 0 0 0.188235294  0 0 0 0.35 0" in="shadowInnerInner1" type="matrix" result="shadowMatrixInner1"></feColorMatrix>
            <feMerge>
                <feMergeNode in="SourceGraphic"></feMergeNode>
                <feMergeNode in="shadowMatrixInner1"></feMergeNode>
            </feMerge>
        </filter>
        <filter x="-50%" y="-50%" width="200%" height="200%" filterUnits="objectBoundingBox" id="filter-15">
            <feOffset dx="-0.5" dy="0.600000024" in="SourceAlpha" result="shadowOffsetInner1"></feOffset>
            <feGaussianBlur stdDeviation="0" in="shadowOffsetInner1" result="shadowBlurInner1"></feGaussianBlur>
            <feComposite in="shadowBlurInner1" in2="SourceAlpha" operator="arithmetic" k2="-1" k3="1" result="shadowInnerInner1"></feComposite>
            <feColorMatrix values="0 0 0 0 0.639215686   0 0 0 0 0.364705882   0 0 0 0 0.188235294  0 0 0 0.35 0" in="shadowInnerInner1" type="matrix" result="shadowMatrixInner1"></feColorMatrix>
            <feMerge>
                <feMergeNode in="SourceGraphic"></feMergeNode>
                <feMergeNode in="shadowMatrixInner1"></feMergeNode>
            </feMerge>
        </filter>
        <filter x="-50%" y="-50%" width="200%" height="200%" filterUnits="objectBoundingBox" id="filter-16">
            <feOffset dx="0.700000048" dy="-0.899999976" in="SourceAlpha" result="shadowOffsetInner1"></feOffset>
            <feGaussianBlur stdDeviation="0" in="shadowOffsetInner1" result="shadowBlurInner1"></feGaussianBlur>
            <feComposite in="shadowBlurInner1" in2="SourceAlpha" operator="arithmetic" k2="-1" k3="1" result="shadowInnerInner1"></feComposite>
            <feColorMatrix values="0 0 0 0 0.641129889   0 0 0 0 0.365185762   0 0 0 0 0.187919562  0 0 0 0.294202899 0" in="shadowInnerInner1" type="matrix" result="shadowMatrixInner1"></feColorMatrix>
            <feMerge>
                <feMergeNode in="SourceGraphic"></feMergeNode>
                <feMergeNode in="shadowMatrixInner1"></feMergeNode>
            </feMerge>
        </filter>
    </defs>
    <g id="Page-1" stroke="none" stroke-width="1" fill="none" fill-rule="evenodd" sketch:type="MSPage">
        <g id="luke" sketch:type="MSArtboardGroup">
            <g id="Oval-450-+-Rectangle-565" sketch:type="MSLayerGroup" transform="translate(43.000000, 49.000000)">
                <mask id="mask-3" sketch:name="Oval 450" fill="white">
                    <use xlink:href="#path-2"></use>
                </mask>
                <use id="Oval-450" fill="#304060" filter="url(#filter-1)" sketch:type="MSShapeGroup" xlink:href="#path-2"></use>
            </g>
            <circle id="Oval-452" fill="#555555" filter="url(#filter-4)" sketch:type="MSShapeGroup" cx="41" cy="80" r="6"></circle>
            <circle id="Oval-453" fill="#555555" filter="url(#filter-5)" sketch:type="MSShapeGroup" cx="25" cy="80" r="6"></circle>
            <g id="Oval-451-+-Rectangle-564" sketch:type="MSLayerGroup" transform="translate(10.000000, 49.000000)">
                <mask id="mask-8" sketch:name="Oval 451" fill="white">
                    <use xlink:href="#path-7"></use>
                </mask>
                <use id="Oval-451" fill="#304060" filter="url(#filter-6)" sketch:type="MSShapeGroup" xlink:href="#path-7"></use>
            </g>
            <g id="Rectangle-528-+-Rectangle-557" sketch:type="MSLayerGroup" transform="translate(19.000000, 43.000000)">
                <mask id="mask-11" sketch:name="Rectangle 528" fill="white">
                    <use xlink:href="#path-10"></use>
                </mask>
                <use id="Rectangle-528" fill="#304060" filter="url(#filter-9)" sketch:type="MSShapeGroup" xlink:href="#path-10"></use>
            </g>
            <rect id="Rectangle-566" fill="#586A8D" sketch:type="MSShapeGroup" transform="translate(28.045862, 52.639038) rotate(-48.000000) translate(-28.045862, -52.639038) " x="25.9732237" y="49.0119216" width="4.14527575" height="7.25423255"></rect>
            <rect id="Rectangle-567" fill="#586A8D" sketch:type="MSShapeGroup" transform="translate(37.045862, 52.639038) scale(-1, 1) rotate(-48.000000) translate(-37.045862, -52.639038) " x="34.9732237" y="49.0119216" width="4.14527575" height="7.25423255"></rect>
            <g id="Oval-449-+-Oval-458" sketch:type="MSLayerGroup" transform="translate(4.000000, 4.000000)">
                <mask id="mask-13" sketch:name="Oval 449" fill="white">
                    <use xlink:href="#path-12"></use>
                </mask>
                <use id="Oval-449" fill="#E4AC85" sketch:type="MSShapeGroup" xlink:href="#path-12"></use>
                <ellipse id="Oval-458" fill="#583019" filter="url(#filter-14)" sketch:type="MSShapeGroup" mask="url(#mask-13)" cx="-0.5" cy="13" rx="7.5" ry="18">
                    <g transform="translate(-0.500000, 13.000000) rotate(8.000000) translate(0.500000, -13.000000) "></g>
                </ellipse>
                <ellipse id="Oval-459" fill="#583019" filter="url(#filter-15)" sketch:type="MSShapeGroup" mask="url(#mask-13)" cx="56.1875" cy="10.6875" rx="7.5" ry="18">
                    <g transform="translate(56.187500, 10.687500) scale(-1, 1) rotate(6.000000) translate(-56.187500, -10.687500) "></g>
                </ellipse>
                <path d="M50.5,3 C49,12 38,10.5 34.5,9 C31,7.5 22.5,11.5 15.5,12.5 C8.5,13.5 9.99999999,9 4.49999999,7.5 C3.15845954,4.81691903 7.50000023,-3.5 7.50000023,-3.5 L34.5,-2 C34.5,-2 55,-1 50.5,3 Z" id="Path-94" fill="#583019" filter="url(#filter-16)" sketch:type="MSShapeGroup" mask="url(#mask-13)"></path>
            </g>
            <path d="M23.9754518,31.8668995 C23.8044924,29.6813844 22.7613319,28 21.5,28 C20.1192881,28 19,30.0147186 19,32.5 C19,33.9919822 19.4033834,35.314377 20.0245482,36.1331005 C20.0083676,35.9262502 20,35.714884 20,35.5 C20,33.0147186 21.1192881,31 22.5,31 C23.0518329,31 23.5619064,31.3218277 23.9754518,31.8668995 Z" id="Oval-461" fill="#555555" sketch:type="MSShapeGroup"></path>
            <path d="M43.9754518,31.8668995 C43.8044924,29.6813844 42.7613319,28 41.5,28 C40.1192881,28 39,30.0147186 39,32.5 C39,33.9919822 39.4033834,35.314377 40.0245482,36.1331005 C40.0083676,35.9262502 40,35.714884 40,35.5 C40,33.0147186 41.1192881,31 42.5,31 C43.0518329,31 43.5619064,31.3218277 43.9754518,31.8668995 Z" id="Oval-463" fill="#555555" sketch:type="MSShapeGroup"></path>
            <path d="M42.8578281,45.9123785 C42.0321241,47.0968682 37.7090313,48 32.5,48 C27.2909687,48 22.9678759,47.0968682 22.1421719,45.9123785 C24.7648071,46.5691722 28.902231,47 32.5,47 C36.097769,47 40.2351929,46.5691722 42.8578281,45.9123785 Z" id="Oval-465" fill="#555555" sketch:type="MSShapeGroup"></path>
            <path d="M32.5,54 L32.5,80.5" id="Path-112" stroke="#586A8D" sketch:type="MSShapeGroup"></path>
            <circle id="Oval-537" fill="#2C2B2B" sketch:type="MSShapeGroup" cx="34.2000046" cy="57.5" r="0.5"></circle>
            <circle id="Oval-538" fill="#2C2B2B" sketch:type="MSShapeGroup" cx="34.2000046" cy="61.5" r="0.5"></circle>
            <circle id="Oval-539" fill="#2C2B2B" sketch:type="MSShapeGroup" cx="34.2000046" cy="65.5" r="0.5"></circle>
            <circle id="Oval-540" fill="#2C2B2B" sketch:type="MSShapeGroup" cx="34.2000046" cy="69.5" r="0.5"></circle>
            <circle id="Oval-541" fill="#2C2B2B" sketch:type="MSShapeGroup" cx="34.2000046" cy="73.5" r="0.5"></circle>
            <circle id="Oval-542" fill="#2C2B2B" sketch:type="MSShapeGroup" cx="34.2000046" cy="77.5" r="0.5"></circle>
            <g id="Group" sketch:type="MSLayerGroup" transform="translate(8.000000, 24.000000)" stroke="#201006">
                <path d="M8,1 C8,1 12.2457893,0.5 13.912456,0.5 C16.2457893,0.5 20,1 20,1 C20,1 21.5072213,8.23156166 19,10.5 C17,12 12.5,12 9.49999992,10.5 C6.49999992,8 8,1 8,1 Z" id="Rectangle-573" stroke-linecap="round" stroke-linejoin="round" sketch:type="MSShapeGroup"></path>
                <path d="M28,1 C28,1 32.2457893,0.5 33.912456,0.5 C36.2457893,0.5 40,1 40,1 C40,1 41.5072213,8.23156166 39,10.5 C37,12 32.5,12 29.4999999,10.5 C26.4999999,8 28,1 28,1 Z" id="Rectangle-574" stroke-linecap="round" stroke-linejoin="round" sketch:type="MSShapeGroup" transform="translate(34.037106, 6.062500) scale(-1, 1) translate(-34.037106, -6.062500) "></path>
                <path d="M8,2.5 L0,1" id="Path-138" sketch:type="MSShapeGroup"></path>
                <path d="M48.5,2.5 L40,0.5" id="Path-139" sketch:type="MSShapeGroup" transform="translate(44.250000, 1.500000) scale(-1, 1) translate(-44.250000, -1.500000) "></path>
                <path d="M20,3 C20,3 22.625,2.5 24,2.5 C25.2916667,2.5 28,3 28,3" id="Path-140" sketch:type="MSShapeGroup"></path>
            </g>
            <g id="Group" sketch:type="MSLayerGroup" transform="translate(20.000000, 2.000000)" fill="#583019">
                <path d="M23.4315169,9.15163812 C23.8920432,4.70927545 20.2078327,4.15398011 20.2078327,4.15398011 C20.2078327,4.15398011 16.0630958,3.87633244 16.5236221,4.43162778 C16.9841485,4.98692311 18.8262537,7.48575212 18.8262537,8.59634279" id="Path-115" sketch:type="MSShapeGroup" transform="translate(19.979629, 6.618103) scale(-1, 1) rotate(9.000000) translate(-19.979629, -6.618103) "></path>
                <path d="M8.18187945,5.7240235 C8.32208091,6.33229509 8.61211923,7.00165592 9.11729149,7.72530427 L11.7561923,5.81678192 C11.8042089,6.54309392 12.0560418,7.37880169 12.6406077,8.31726902 L14.5299739,7.09613165 C14.5323849,7.56574944 14.5992028,8.08153114 14.7497852,8.64672523 L19.2114826,7.37784462 C19.0377479,6.28092717 20.8776936,3.17842259 21.2456828,2.55792168 C21.6136719,1.93742076 17.3339353,2.89637304 17.3339353,2.89637304 C17.3339353,2.89637304 17.1383718,2.971516 16.8505377,3.13913605 C17.1821387,2.02638245 17.6066053,0.939578339 17.6934008,0.582720375 C17.8638937,-0.118257215 13.3472068,2.41223361 13.3472068,2.41223361 C13.3472068,2.41223361 12.9834048,2.66293474 12.6027815,3.14647549 C12.6116373,1.97398618 12.7899313,0.677107294 12.8707659,0.248076379 C13.0043388,-0.460863451 9.51387655,1.79138096 9.51387655,1.79138096 C9.51387655,1.79138096 9.27231937,1.97721219 8.9871864,2.32825177 C8.99634612,1.67509903 9.04578532,1.12237805 9.08027876,0.885313897 C9.16967564,0.270913189 5.51248948,1.09072701 5.51248948,1.09072701 C5.51248948,1.09072701 2.44810271,2.12727998 5.55791469,6.49971845 L8.18187945,5.7240235 Z M1.31403128,8.3060603 C-1.24304126,3.67949441 1.18278867,2.25197625 1.18278867,2.25197625 C1.18278867,2.25197625 4.08521995,1.01563415 4.02471284,1.71153607 C3.96420574,2.40743798 3.86087542,5.48673831 4.41566774,6.66950893 L1.31403128,8.3060603 Z" id="Path-116" sketch:type="MSShapeGroup"></path>
            </g>
        </g>
    </g>
</svg>