<?xml version="1.0" encoding="UTF-8" standalone="no"?>
<svg width="65px" height="81px" viewBox="0 0 65 81" version="1.1" xmlns="http://www.w3.org/2000/svg" xmlns:xlink="http://www.w3.org/1999/xlink" xmlns:sketch="http://www.bohemiancoding.com/sketch/ns">
    <!-- Generator: Sketch 3.4.4 (17249) - http://www.bohemiancoding.com/sketch -->
    <title>matt-c</title>
    <desc>Created with Sketch.</desc>
    <defs>
        <filter x="-50%" y="-50%" width="200%" height="200%" filterUnits="objectBoundingBox" id="filter-1">
            <feOffset dx="-1" dy="-1" in="SourceAlpha" result="shadowOffsetInner1"></feOffset>
            <feGaussianBlur stdDeviation="1" in="shadowOffsetInner1" result="shadowBlurInner1"></feGaussianBlur>
            <feComposite in="shadowBlurInner1" in2="SourceAlpha" operator="arithmetic" k2="-1" k3="1" result="shadowInnerInner1"></feComposite>
            <feColorMatrix values="0 0 0 0 0   0 0 0 0 0   0 0 0 0 0  0 0 0 0.145615376 0" in="shadowInnerInner1" type="matrix" result="shadowMatrixInner1"></feColorMatrix>
            <feMerge>
                <feMergeNode in="SourceGraphic"></feMergeNode>
                <feMergeNode in="shadowMatrixInner1"></feMergeNode>
            </feMerge>
        </filter>
        <filter x="-50%" y="-50%" width="200%" height="200%" filterUnits="objectBoundingBox" id="filter-2">
            <feOffset dx="3" dy="-1" in="SourceAlpha" result="shadowOffsetInner1"></feOffset>
            <feGaussianBlur stdDeviation="1" in="shadowOffsetInner1" result="shadowBlurInner1"></feGaussianBlur>
            <feComposite in="shadowBlurInner1" in2="SourceAlpha" operator="arithmetic" k2="-1" k3="1" result="shadowInnerInner1"></feComposite>
            <feColorMatrix values="0 0 0 0 0   0 0 0 0 0   0 0 0 0 0  0 0 0 0.145615376 0" in="shadowInnerInner1" type="matrix" result="shadowMatrixInner1"></feColorMatrix>
            <feMerge>
                <feMergeNode in="SourceGraphic"></feMergeNode>
                <feMergeNode in="shadowMatrixInner1"></feMergeNode>
            </feMerge>
        </filter>
        <filter x="-50%" y="-50%" width="200%" height="200%" filterUnits="objectBoundingBox" id="filter-3">
            <feOffset dx="1" dy="-1" in="SourceAlpha" result="shadowOffsetInner1"></feOffset>
            <feGaussianBlur stdDeviation="1" in="shadowOffsetInner1" result="shadowBlurInner1"></feGaussianBlur>
            <feComposite in="shadowBlurInner1" in2="SourceAlpha" operator="arithmetic" k2="-1" k3="1" result="shadowInnerInner1"></feComposite>
            <feColorMatrix values="0 0 0 0 0   0 0 0 0 0   0 0 0 0 0  0 0 0 0.35 0" in="shadowInnerInner1" type="matrix" result="shadowMatrixInner1"></feColorMatrix>
            <feMerge>
                <feMergeNode in="SourceGraphic"></feMergeNode>
                <feMergeNode in="shadowMatrixInner1"></feMergeNode>
            </feMerge>
        </filter>
        <filter x="-50%" y="-50%" width="200%" height="200%" filterUnits="objectBoundingBox" id="filter-4">
            <feOffset dx="1" dy="-1" in="SourceAlpha" result="shadowOffsetInner1"></feOffset>
            <feGaussianBlur stdDeviation="1" in="shadowOffsetInner1" result="shadowBlurInner1"></feGaussianBlur>
            <feComposite in="shadowBlurInner1" in2="SourceAlpha" operator="arithmetic" k2="-1" k3="1" result="shadowInnerInner1"></feComposite>
            <feColorMatrix values="0 0 0 0 0   0 0 0 0 0   0 0 0 0 0  0 0 0 0.35 0" in="shadowInnerInner1" type="matrix" result="shadowMatrixInner1"></feColorMatrix>
            <feMerge>
                <feMergeNode in="SourceGraphic"></feMergeNode>
                <feMergeNode in="shadowMatrixInner1"></feMergeNode>
            </feMerge>
        </filter>
        <rect id="path-5" x="0" y="0" width="30" height="27"></rect>
        <ellipse id="path-7" cx="28.5" cy="25" rx="28.5" ry="25"></ellipse>
        <filter x="-50%" y="-50%" width="200%" height="200%" filterUnits="objectBoundingBox" id="filter-9">
            <feOffset dx="0" dy="-0.200000003" in="SourceAlpha" result="shadowOffsetInner1"></feOffset>
            <feGaussianBlur stdDeviation="0" in="shadowOffsetInner1" result="shadowBlurInner1"></feGaussianBlur>
            <feComposite in="shadowBlurInner1" in2="SourceAlpha" operator="arithmetic" k2="-1" k3="1" result="shadowInnerInner1"></feComposite>
            <feColorMatrix values="0 0 0 0 0.428571429   0 0 0 0 0.303376963   0 0 0 0 0.222952178  0 0 0 0.294202899 0" in="shadowInnerInner1" type="matrix" result="shadowMatrixInner1"></feColorMatrix>
            <feMerge>
                <feMergeNode in="SourceGraphic"></feMergeNode>
                <feMergeNode in="shadowMatrixInner1"></feMergeNode>
            </feMerge>
        </filter>
    </defs>
    <g id="Page-1" stroke="none" stroke-width="1" fill="none" fill-rule="evenodd" sketch:type="MSPage">
        <g id="matt-c" sketch:type="MSArtboardGroup">
            <ellipse id="Oval-450" fill="#343548" filter="url(#filter-1)" sketch:type="MSShapeGroup" cx="49.5" cy="53" rx="6.5" ry="6"></ellipse>
            <ellipse id="Oval-451" fill="#343548" filter="url(#filter-2)" sketch:type="MSShapeGroup" cx="16.5" cy="53" rx="6.5" ry="6"></ellipse>
            <circle id="Oval-452" fill="#555555" filter="url(#filter-3)" sketch:type="MSShapeGroup" cx="41" cy="74" r="6"></circle>
            <circle id="Oval-453" fill="#555555" filter="url(#filter-4)" sketch:type="MSShapeGroup" cx="25" cy="74" r="6"></circle>
            <g id="Rectangle-691" sketch:type="MSLayerGroup" transform="translate(18.000000, 47.000000)">
                <mask id="mask-6" sketch:name="Mask" fill="white">
                    <use xlink:href="#path-5"></use>
                </mask>
                <use id="Mask" fill="#BEBEBE" sketch:type="MSShapeGroup" xlink:href="#path-5"></use>
                <rect id="Rectangle-695" fill="#E9E7E7" sketch:type="MSShapeGroup" mask="url(#mask-6)" x="6" y="4" width="9" height="23"></rect>
                <g id="Group" mask="url(#mask-6)" fill="#D8D8D8" sketch:type="MSShapeGroup">
                    <g transform="translate(13.500000, 7.599998)">
                        <circle id="Oval-923" cx="0.5" cy="12.5" r="0.5"></circle>
                        <circle id="Oval-923-Copy-8" cx="0.5" cy="16.5" r="0.5"></circle>
                        <circle id="Oval-923-Copy-2" cx="0.5" cy="8.5" r="0.5"></circle>
                        <circle id="Oval-923-Copy-4" cx="0.5" cy="4.5" r="0.5"></circle>
                        <circle id="Oval-923-Copy-6" cx="0.5" cy="0.5" r="0.5"></circle>
                    </g>
                </g>
                <rect id="Rectangle-695-Copy" fill="#E9E7E7" sketch:type="MSShapeGroup" mask="url(#mask-6)" x="15.2000008" y="4" width="9" height="23"></rect>
                <g id="Rectangle-691-+-Rectangle-691" mask="url(#mask-6)" sketch:type="MSShapeGroup">
                    <g transform="translate(23.500000, 5.500000) scale(-1, 1) translate(-23.500000, -5.500000) translate(16.000000, -17.000000)" id="Rectangle-691">
                        <path d="M0.427040273,12.9055147 C0.427040273,12.9055147 5.69141799,12.7612185 8.45080223,15.5532267 C10.2157379,17.3390291 14,29.5309116 14,29.5309116 L14,44 L0,44 L0.427040273,12.9055147 Z" fill="#343548"></path>
                        <path d="M0.427040273,0.207145819 C0.427040273,0.207145819 5.69141799,12.7612185 8.45080223,15.5532267 C10.2157379,17.3390291 14,29.5309116 14,29.5309116 L14,31.3016311 C14,31.3016311 14.5137331,44.0072633 14.0000002,44.0073854 C13.9793734,44.0073903 12.5556057,44.6929133 12.5285646,43.7363893 C12.4322845,40.3306657 12.5285646,30.6482297 12.5285646,30.6482297 L0.427040273,0.207145819 Z" fill="#21223C"></path>
                    </g>
                </g>
                <g id="Rectangle-691-+-Rectangle-691" mask="url(#mask-6)" sketch:type="MSShapeGroup">
                    <g transform="translate(-1.000000, -17.000000)" id="Rectangle-691">
                        <path d="M0.427040273,12.9055147 C0.427040273,12.9055147 5.69141799,12.7612185 8.45080223,15.5532267 C10.2157379,17.3390291 14,29.5309116 14,29.5309116 L14,44 L0,44 L0.427040273,12.9055147 Z" fill="#343548"></path>
                        <path d="M1.21660849e-14,0.399999619 C1.21660849e-14,0.399999619 5.45460796,12.9540723 8.31370359,15.7460805 C10.1424159,17.5318829 14.0634237,29.7237654 14.0634237,29.7237654 L14.0634237,31.4944849 C14.0634237,31.4944849 14.5957207,44.2001171 14.0634239,44.2002392 C14.0420517,44.2002441 12.5668356,44.8857671 12.5388174,43.9292431 C12.4390582,40.5235195 12.5388174,30.8410835 12.5388174,30.8410835 L1.21660849e-14,0.399999619 Z" fill="#21223C"></path>
                    </g>
                </g>
            </g>
            <g id="Oval-449-+-Oval-458" sketch:type="MSLayerGroup" transform="translate(4.000000, 2.000000)">
                <mask id="mask-8" sketch:name="Oval 449" fill="white">
                    <use xlink:href="#path-7"></use>
                </mask>
                <use id="Oval-449" fill="#E2AE89" sketch:type="MSShapeGroup" xlink:href="#path-7"></use>
                <path d="M-1,40.3331577 C-1,40.3331577 11,28.9998243 25,28.9998243 C28.1741618,28.9998243 36.7210168,29.9071264 43.5,32.9998243 C50.9379635,36.3931613 56.5,41.9998243 56.5,41.9998243 C56.5,41.9998243 52.5650391,51.0459348 52.5,50.9998243 C51.3425839,50.1792555 44.3736715,32.0379819 25,31.4998243 C7,30.9998243 -3,50.9998243 -3,50.9998243 L-1,40.3331577 Z" id="Rectangle-534" fill-opacity="0.185552731" fill="#704020" sketch:type="MSShapeGroup" mask="url(#mask-8)">
                    <g transform="translate(26.750000, 39.999912) rotate(-180.000000) translate(-26.750000, -39.999912) "></g>
                </path>
                <path d="M10.4783756,43.7511847 C10.4783756,43.7511847 13.4007719,39.4090985 16.3651295,38.0257316 C19.3294872,36.6423647 25.0207004,37.0047388 28.4688981,37.0047388 C32.1720094,37.0047388 38.5859667,36.86079 40.8360821,38.057172 C43.0861976,39.253554 47.0216244,43.7511847 47.0216244,43.7511847 L43.0861976,46 C43.0861976,46 41.9617899,41.1998527 40.8418531,40.3053114 C39.7219162,39.4107701 32.3815114,39.2535541 29.0311019,39.2535541 C25.1600285,39.2535541 17.7870254,39.2535541 16.2287121,40.2929406 C14.6703989,41.3323271 13.8515986,46 13.8515986,46 L10.4783756,43.7511847 Z" id="Rectangle-533" fill-opacity="0.185552731" fill="#704020" sketch:type="MSShapeGroup" mask="url(#mask-8)"></path>
                <ellipse id="Oval-458" fill="#70401F" sketch:type="MSShapeGroup" mask="url(#mask-8)" cx="0" cy="13.5" rx="9" ry="21.5">
                    <g transform="translate(0.000000, 13.500000) rotate(6.000000) translate(-0.000000, -13.500000) "></g>
                </ellipse>
                <ellipse id="Oval-459" fill="#70401F" sketch:type="MSShapeGroup" mask="url(#mask-8)" cx="54.8106414" cy="10.8322137" rx="9.53283044" ry="22.8787931">
                    <g transform="translate(54.810641, 10.832214) scale(-1, 1) rotate(17.000000) translate(-54.810641, -10.832214) "></g>
                </ellipse>
                <path d="M47.5,3 C46,12 35.4999983,12.5 30.4999983,11 C25.4999983,9.5 13.5,15 6.5,16 C-0.5,17 -3,10 -3,10 L4.50000023,-3.5 L31.5,-2 C31.5,-2 52,-1 47.5,3 Z" id="Path-94" fill="#70401F" filter="url(#filter-9)" sketch:type="MSShapeGroup" mask="url(#mask-8)">
                    <g transform="translate(22.572787, 6.298889) rotate(12.000000) translate(-22.572787, -6.298889) "></g>
                </path>
            </g>
            <path d="M23.9754518,29.8668995 C23.8044924,27.6813844 22.7613319,26 21.5,26 C20.1192881,26 19,28.0147186 19,30.5 C19,31.9919822 19.4033834,33.314377 20.0245482,34.1331005 C20.0083676,33.9262502 20,33.714884 20,33.5 C20,31.0147186 21.1192881,29 22.5,29 C23.0518329,29 23.5619064,29.3218277 23.9754518,29.8668995 Z" id="Oval-461" fill="#555555" sketch:type="MSShapeGroup"></path>
            <path d="M43.9754518,29.8668995 C43.8044924,27.6813844 42.7613319,26 41.5,26 C40.1192881,26 39,28.0147186 39,30.5 C39,31.9919822 39.4033834,33.314377 40.0245482,34.1331005 C40.0083676,33.9262502 40,33.714884 40,33.5 C40,31.0147186 41.1192881,29 42.5,29 C43.0518329,29 43.5619064,29.3218277 43.9754518,29.8668995 Z" id="Oval-463" fill="#555555" sketch:type="MSShapeGroup"></path>
            <path d="M42.8578281,43.9123785 C42.0321241,45.0968682 37.7090313,46 32.5,46 C27.2909687,46 22.9678759,45.0968682 22.1421719,43.9123785 C24.7648071,44.5691722 28.902231,45 32.5,45 C36.097769,45 40.2351929,44.5691722 42.8578281,43.9123785 Z" id="Oval-465" fill="#555555" sketch:type="MSShapeGroup"></path>
            <g id="Path-358-+-Path-358-+-Oval-1035" sketch:type="MSLayerGroup" transform="translate(29.000000, 58.000000)">
                <path d="M10,0 L10,1.44817772 L12.4337239,2.01464629" id="Path-358" stroke="#21223C" stroke-width="0.2" sketch:type="MSShapeGroup"></path>
                <path d="M13,0 L13,1.44817772 L15.4337239,2.01464629" id="Path-358" stroke="#21223C" stroke-width="0.2" sketch:type="MSShapeGroup" transform="translate(14.216862, 1.007323) scale(-1, 1) translate(-14.216862, -1.007323) "></path>
                <circle id="Oval-1035" fill="#9C9696" sketch:type="MSShapeGroup" cx="12.7000008" cy="2" r="0.5"></circle>
                <circle id="Oval-1035-Copy" fill="#9C9696" sketch:type="MSShapeGroup" cx="0.5" cy="2.5" r="0.5"></circle>
                <circle id="Oval-1035-Copy-2" fill="#9C9696" sketch:type="MSShapeGroup" cx="0.5" cy="5.5" r="0.5"></circle>
                <circle id="Oval-1035-Copy-3" fill="#9C9696" sketch:type="MSShapeGroup" cx="0.5" cy="8.5" r="0.5"></circle>
                <circle id="Oval-1035-Copy-4" fill="#9C9696" sketch:type="MSShapeGroup" cx="0.5" cy="11.5" r="0.5"></circle>
            </g>
            <g id="Path-358-+-Path-358-+-Oval-1035-Copy" sketch:type="MSLayerGroup" transform="translate(21.000000, 58.000000)">
                <path d="M0,0 L0,1.44817772 L2.43372393,2.01464629" id="Path-358" stroke="#21223C" stroke-width="0.2" sketch:type="MSShapeGroup"></path>
                <path d="M3,0 L3,1.44817772 L5.43372393,2.01464629" id="Path-358" stroke="#21223C" stroke-width="0.2" sketch:type="MSShapeGroup" transform="translate(4.216862, 1.007323) scale(-1, 1) translate(-4.216862, -1.007323) "></path>
                <circle id="Oval-1035" fill="#9C9696" sketch:type="MSShapeGroup" cx="2.70000076" cy="2" r="0.5"></circle>
            </g>
            <circle id="Oval-1035-Copy-5" fill="#D3BF4C" sketch:type="MSShapeGroup" cx="45" cy="59" r="1"></circle>
        </g>
    </g>
</svg>