<?xml version="1.0" encoding="UTF-8" standalone="no"?>
<svg width="65px" height="87px" viewBox="0 0 65 87" version="1.1" xmlns="http://www.w3.org/2000/svg" xmlns:xlink="http://www.w3.org/1999/xlink" xmlns:sketch="http://www.bohemiancoding.com/sketch/ns">
    <!-- Generator: Sketch 3.4.4 (17249) - http://www.bohemiancoding.com/sketch -->
    <title>mitch</title>
    <desc>Created with Sketch.</desc>
    <defs>
        <filter x="-50%" y="-50%" width="200%" height="200%" filterUnits="objectBoundingBox" id="filter-1">
            <feOffset dx="-1" dy="-1" in="SourceAlpha" result="shadowOffsetInner1"></feOffset>
            <feGaussianBlur stdDeviation="1" in="shadowOffsetInner1" result="shadowBlurInner1"></feGaussianBlur>
            <feComposite in="shadowBlurInner1" in2="SourceAlpha" operator="arithmetic" k2="-1" k3="1" result="shadowInnerInner1"></feComposite>
            <feColorMatrix values="0 0 0 0 0   0 0 0 0 0   0 0 0 0 0  0 0 0 0.145615376 0" in="shadowInnerInner1" type="matrix" result="shadowMatrixInner1"></feColorMatrix>
            <feMerge>
                <feMergeNode in="SourceGraphic"></feMergeNode>
                <feMergeNode in="shadowMatrixInner1"></feMergeNode>
            </feMerge>
        </filter>
        <ellipse id="path-2" cx="6.5" cy="6" rx="6.5" ry="6"></ellipse>
        <filter x="-50%" y="-50%" width="200%" height="200%" filterUnits="objectBoundingBox" id="filter-4">
            <feOffset dx="1" dy="-1" in="SourceAlpha" result="shadowOffsetInner1"></feOffset>
            <feGaussianBlur stdDeviation="1" in="shadowOffsetInner1" result="shadowBlurInner1"></feGaussianBlur>
            <feComposite in="shadowBlurInner1" in2="SourceAlpha" operator="arithmetic" k2="-1" k3="1" result="shadowInnerInner1"></feComposite>
            <feColorMatrix values="0 0 0 0 0   0 0 0 0 0   0 0 0 0 0  0 0 0 0.35 0" in="shadowInnerInner1" type="matrix" result="shadowMatrixInner1"></feColorMatrix>
            <feMerge>
                <feMergeNode in="SourceGraphic"></feMergeNode>
                <feMergeNode in="shadowMatrixInner1"></feMergeNode>
            </feMerge>
        </filter>
        <filter x="-50%" y="-50%" width="200%" height="200%" filterUnits="objectBoundingBox" id="filter-5">
            <feOffset dx="1" dy="-1" in="SourceAlpha" result="shadowOffsetInner1"></feOffset>
            <feGaussianBlur stdDeviation="1" in="shadowOffsetInner1" result="shadowBlurInner1"></feGaussianBlur>
            <feComposite in="shadowBlurInner1" in2="SourceAlpha" operator="arithmetic" k2="-1" k3="1" result="shadowInnerInner1"></feComposite>
            <feColorMatrix values="0 0 0 0 0   0 0 0 0 0   0 0 0 0 0  0 0 0 0.35 0" in="shadowInnerInner1" type="matrix" result="shadowMatrixInner1"></feColorMatrix>
            <feMerge>
                <feMergeNode in="SourceGraphic"></feMergeNode>
                <feMergeNode in="shadowMatrixInner1"></feMergeNode>
            </feMerge>
        </filter>
        <filter x="-50%" y="-50%" width="200%" height="200%" filterUnits="objectBoundingBox" id="filter-6">
            <feOffset dx="3" dy="-1" in="SourceAlpha" result="shadowOffsetInner1"></feOffset>
            <feGaussianBlur stdDeviation="1" in="shadowOffsetInner1" result="shadowBlurInner1"></feGaussianBlur>
            <feComposite in="shadowBlurInner1" in2="SourceAlpha" operator="arithmetic" k2="-1" k3="1" result="shadowInnerInner1"></feComposite>
            <feColorMatrix values="0 0 0 0 0   0 0 0 0 0   0 0 0 0 0  0 0 0 0.145615376 0" in="shadowInnerInner1" type="matrix" result="shadowMatrixInner1"></feColorMatrix>
            <feMerge>
                <feMergeNode in="SourceGraphic"></feMergeNode>
                <feMergeNode in="shadowMatrixInner1"></feMergeNode>
            </feMerge>
        </filter>
        <ellipse id="path-7" cx="6.5" cy="6" rx="6.5" ry="6"></ellipse>
        <filter x="-50%" y="-50%" width="200%" height="200%" filterUnits="objectBoundingBox" id="filter-9">
            <feOffset dx="2" dy="-2" in="SourceAlpha" result="shadowOffsetInner1"></feOffset>
            <feGaussianBlur stdDeviation="1" in="shadowOffsetInner1" result="shadowBlurInner1"></feGaussianBlur>
            <feComposite in="shadowBlurInner1" in2="SourceAlpha" operator="arithmetic" k2="-1" k3="1" result="shadowInnerInner1"></feComposite>
            <feColorMatrix values="0 0 0 0 0   0 0 0 0 0   0 0 0 0 0  0 0 0 0.180013021 0" in="shadowInnerInner1" type="matrix" result="shadowMatrixInner1"></feColorMatrix>
            <feMerge>
                <feMergeNode in="SourceGraphic"></feMergeNode>
                <feMergeNode in="shadowMatrixInner1"></feMergeNode>
            </feMerge>
        </filter>
        <rect id="path-10" x="0" y="0.518518519" width="28" height="37"></rect>
        <ellipse id="path-12" cx="28.5" cy="25" rx="28.5" ry="25"></ellipse>
        <filter x="-50%" y="-50%" width="200%" height="200%" filterUnits="objectBoundingBox" id="filter-14">
            <feOffset dx="0" dy="-0.200000003" in="SourceAlpha" result="shadowOffsetInner1"></feOffset>
            <feGaussianBlur stdDeviation="0" in="shadowOffsetInner1" result="shadowBlurInner1"></feGaussianBlur>
            <feComposite in="shadowBlurInner1" in2="SourceAlpha" operator="arithmetic" k2="-1" k3="1" result="shadowInnerInner1"></feComposite>
            <feColorMatrix values="0 0 0 0 0.428571429   0 0 0 0 0.303376963   0 0 0 0 0.222952178  0 0 0 0.294202899 0" in="shadowInnerInner1" type="matrix" result="shadowMatrixInner1"></feColorMatrix>
            <feMerge>
                <feMergeNode in="SourceGraphic"></feMergeNode>
                <feMergeNode in="shadowMatrixInner1"></feMergeNode>
            </feMerge>
        </filter>
        <path d="M5.5,1.11111111 L0.75,0 L0.75,4 L5.5,2.88888889 L10.25,4 L10.25,0 L5.5,1.11111111 Z" id="path-15"></path>
        <filter x="-50%" y="-50%" width="200%" height="200%" filterUnits="objectBoundingBox" id="filter-16">
            <feOffset dx="0.100000001" dy="0.100000001" in="SourceAlpha" result="shadowOffsetOuter1"></feOffset>
            <feGaussianBlur stdDeviation="0.150000006" in="shadowOffsetOuter1" result="shadowBlurOuter1"></feGaussianBlur>
            <feColorMatrix values="0 0 0 0 0   0 0 0 0 0   0 0 0 0 0  0 0 0 0.35 0" in="shadowBlurOuter1" type="matrix" result="shadowMatrixOuter1"></feColorMatrix>
            <feMerge>
                <feMergeNode in="shadowMatrixOuter1"></feMergeNode>
                <feMergeNode in="SourceGraphic"></feMergeNode>
            </feMerge>
        </filter>
        <circle id="path-17" cx="5.5" cy="2" r="1.5"></circle>
    </defs>
    <g id="Page-1" stroke="none" stroke-width="1" fill="none" fill-rule="evenodd" sketch:type="MSPage">
        <g id="mitch" sketch:type="MSArtboardGroup">
            <path d="M19.3681843,14.374492 C17.7807278,6.51764027 13.6571414,6.58727574 13.6571414,6.58727574 C13.6571414,6.58727574 9.17986859,7.26931929 9.92178355,8.10579995 C10.6636985,8.94228062 13.7607679,12.7711662 14.278406,14.7030178" id="Path-120" fill="#321B0F" sketch:type="MSShapeGroup" transform="translate(14.603510, 10.645106) scale(-1, 1) rotate(24.000000) translate(-14.603510, -10.645106) "></path>
            <g id="Oval-450-+-Rectangle-565" sketch:type="MSLayerGroup" transform="translate(43.000000, 49.000000)">
                <mask id="mask-3" sketch:name="Oval 450" fill="white">
                    <use xlink:href="#path-2"></use>
                </mask>
                <use id="Oval-450" fill="#4A4E93" filter="url(#filter-1)" sketch:type="MSShapeGroup" xlink:href="#path-2"></use>
                <g id="Group-+-Group" mask="url(#mask-3)" opacity="0.8">
                    <g transform="translate(14.500000, -0.000000) rotate(-31.000000) translate(-14.500000, 0.000000) translate(-1.000000, -15.000000)" id="Group">
                        <g transform="translate(2.000000, 0.000000)">
                            <rect id="Rectangle-732" fill="#3D1739" sketch:type="MSShapeGroup" x="0.628812314" y="0" width="1" height="30"></rect>
                            <rect id="Rectangle-732-Copy" fill="#3D1739" sketch:type="MSShapeGroup" x="3" y="0" width="1" height="30"></rect>
                            <rect id="Rectangle-732-Copy-2" fill="#3D1739" sketch:type="MSShapeGroup" x="5" y="0" width="1" height="30"></rect>
                            <rect id="Rectangle-732-Copy-3" fill="#3D1739" sketch:type="MSShapeGroup" x="7" y="0" width="1" height="30"></rect>
                            <rect id="Rectangle-732-Copy-4" fill="#3D1739" sketch:type="MSShapeGroup" x="9" y="0" width="1" height="30"></rect>
                            <rect id="Rectangle-732-Copy-7" fill="#3D1739" sketch:type="MSShapeGroup" x="15" y="0" width="1" height="30"></rect>
                            <rect id="Rectangle-732-Copy-8" fill="#3D1739" sketch:type="MSShapeGroup" x="17" y="0" width="1" height="30"></rect>
                            <rect id="Rectangle-732-Copy-9" fill="#3D1739" sketch:type="MSShapeGroup" x="19" y="0" width="1" height="30"></rect>
                            <rect id="Rectangle-732-Copy-10" fill="#3D1739" sketch:type="MSShapeGroup" x="21" y="0" width="1" height="30"></rect>
                            <rect id="Rectangle-732-Copy-11" fill="#3D1739" sketch:type="MSShapeGroup" x="23" y="0" width="1" height="30"></rect>
                            <rect id="Rectangle-732-Copy-12" fill="#3D1739" sketch:type="MSShapeGroup" x="25" y="0" width="1" height="30"></rect>
                        </g>
                        <g transform="translate(15.400000, 15.599998) rotate(-270.000000) translate(-15.400000, -15.599998) translate(1.900000, 0.599998)" fill-opacity="0.300000012">
                            <rect id="Rectangle-732" fill="#F8E81C" sketch:type="MSShapeGroup" x="0.628812314" y="0" width="1" height="30"></rect>
                            <rect id="Rectangle-732-Copy" fill="#F8E81C" sketch:type="MSShapeGroup" x="3" y="0" width="1" height="30"></rect>
                            <rect id="Rectangle-732-Copy-2" fill="#F8E81C" sketch:type="MSShapeGroup" x="5" y="0" width="1" height="30"></rect>
                            <rect id="Rectangle-732-Copy-3" fill="#F8E81C" sketch:type="MSShapeGroup" x="7" y="0" width="1" height="30"></rect>
                            <rect id="Rectangle-732-Copy-4" fill="#F8E81C" sketch:type="MSShapeGroup" x="9" y="-3.55271368e-15" width="1" height="30"></rect>
                            <rect id="Rectangle-732-Copy-7" fill="#F8E81C" sketch:type="MSShapeGroup" x="15" y="-3.55271368e-15" width="1" height="30"></rect>
                            <rect id="Rectangle-732-Copy-13" fill="#F8E81C" sketch:type="MSShapeGroup" x="10.9700012" y="-3.55271368e-15" width="1" height="30"></rect>
                            <rect id="Rectangle-732-Copy-14" fill="#F8E81C" sketch:type="MSShapeGroup" x="13" y="-3.55271368e-15" width="1" height="30"></rect>
                            <rect id="Rectangle-732-Copy-8" fill="#F8E81C" sketch:type="MSShapeGroup" x="17" y="-3.55271368e-15" width="1" height="30"></rect>
                            <rect id="Rectangle-732-Copy-9" fill="#F8E81C" sketch:type="MSShapeGroup" x="19" y="-3.55271368e-15" width="1" height="30"></rect>
                            <rect id="Rectangle-732-Copy-10" fill="#F8E81C" sketch:type="MSShapeGroup" x="21" y="-3.55271368e-15" width="1" height="30"></rect>
                            <rect id="Rectangle-732-Copy-11" fill="#F8E81C" sketch:type="MSShapeGroup" x="23" y="-3.55271368e-15" width="1" height="30"></rect>
                            <rect id="Rectangle-732-Copy-12" fill="#F8E81C" sketch:type="MSShapeGroup" x="25" y="-3.55271368e-15" width="1" height="30"></rect>
                        </g>
                    </g>
                </g>
            </g>
            <circle id="Oval-452" fill="#555555" filter="url(#filter-4)" sketch:type="MSShapeGroup" cx="41" cy="80" r="6"></circle>
            <circle id="Oval-453" fill="#555555" filter="url(#filter-5)" sketch:type="MSShapeGroup" cx="25" cy="80" r="6"></circle>
            <g id="Oval-451-+-Rectangle-564" sketch:type="MSLayerGroup" transform="translate(10.000000, 49.000000)">
                <mask id="mask-8" sketch:name="Oval 451" fill="white">
                    <use xlink:href="#path-7"></use>
                </mask>
                <use id="Oval-451" fill="#4A4E93" filter="url(#filter-6)" sketch:type="MSShapeGroup" xlink:href="#path-7"></use>
                <g id="Group-+-Group" mask="url(#mask-8)" opacity="0.8">
                    <g transform="translate(11.011664, 1.840600) rotate(-31.000000) translate(-11.011664, -1.840600) translate(-4.488336, -13.159400)" id="Group">
                        <g transform="translate(2.000000, 0.000000)">
                            <rect id="Rectangle-732" fill="#3D1739" sketch:type="MSShapeGroup" x="0.628812314" y="0" width="1" height="30"></rect>
                            <rect id="Rectangle-732-Copy" fill="#3D1739" sketch:type="MSShapeGroup" x="3" y="0" width="1" height="30"></rect>
                            <rect id="Rectangle-732-Copy-2" fill="#3D1739" sketch:type="MSShapeGroup" x="5" y="0" width="1" height="30"></rect>
                            <rect id="Rectangle-732-Copy-3" fill="#3D1739" sketch:type="MSShapeGroup" x="7" y="0" width="1" height="30"></rect>
                            <rect id="Rectangle-732-Copy-4" fill="#3D1739" sketch:type="MSShapeGroup" x="9" y="0" width="1" height="30"></rect>
                            <rect id="Rectangle-732-Copy-7" fill="#3D1739" sketch:type="MSShapeGroup" x="15" y="0" width="1" height="30"></rect>
                            <rect id="Rectangle-732-Copy-8" fill="#3D1739" sketch:type="MSShapeGroup" x="17" y="0" width="1" height="30"></rect>
                            <rect id="Rectangle-732-Copy-9" fill="#3D1739" sketch:type="MSShapeGroup" x="19" y="0" width="1" height="30"></rect>
                            <rect id="Rectangle-732-Copy-10" fill="#3D1739" sketch:type="MSShapeGroup" x="21" y="0" width="1" height="30"></rect>
                            <rect id="Rectangle-732-Copy-11" fill="#3D1739" sketch:type="MSShapeGroup" x="23" y="0" width="1" height="30"></rect>
                            <rect id="Rectangle-732-Copy-12" fill="#3D1739" sketch:type="MSShapeGroup" x="25" y="0" width="1" height="30"></rect>
                        </g>
                        <g transform="translate(15.400000, 15.599998) rotate(-270.000000) translate(-15.400000, -15.599998) translate(1.900000, 0.599998)" fill-opacity="0.300000012">
                            <rect id="Rectangle-732" fill="#F8E81C" sketch:type="MSShapeGroup" x="0.628812314" y="0" width="1" height="30"></rect>
                            <rect id="Rectangle-732-Copy" fill="#F8E81C" sketch:type="MSShapeGroup" x="3" y="0" width="1" height="30"></rect>
                            <rect id="Rectangle-732-Copy-2" fill="#F8E81C" sketch:type="MSShapeGroup" x="5" y="0" width="1" height="30"></rect>
                            <rect id="Rectangle-732-Copy-3" fill="#F8E81C" sketch:type="MSShapeGroup" x="7" y="0" width="1" height="30"></rect>
                            <rect id="Rectangle-732-Copy-4" fill="#F8E81C" sketch:type="MSShapeGroup" x="9" y="-3.55271368e-15" width="1" height="30"></rect>
                            <rect id="Rectangle-732-Copy-7" fill="#F8E81C" sketch:type="MSShapeGroup" x="15" y="-3.55271368e-15" width="1" height="30"></rect>
                            <rect id="Rectangle-732-Copy-13" fill="#F8E81C" sketch:type="MSShapeGroup" x="10.9700012" y="-3.55271368e-15" width="1" height="30"></rect>
                            <rect id="Rectangle-732-Copy-14" fill="#F8E81C" sketch:type="MSShapeGroup" x="13" y="-3.55271368e-15" width="1" height="30"></rect>
                            <rect id="Rectangle-732-Copy-8" fill="#F8E81C" sketch:type="MSShapeGroup" x="17" y="-3.55271368e-15" width="1" height="30"></rect>
                            <rect id="Rectangle-732-Copy-9" fill="#F8E81C" sketch:type="MSShapeGroup" x="19" y="-3.55271368e-15" width="1" height="30"></rect>
                            <rect id="Rectangle-732-Copy-10" fill="#F8E81C" sketch:type="MSShapeGroup" x="21" y="-3.55271368e-15" width="1" height="30"></rect>
                            <rect id="Rectangle-732-Copy-11" fill="#F8E81C" sketch:type="MSShapeGroup" x="23" y="-3.55271368e-15" width="1" height="30"></rect>
                            <rect id="Rectangle-732-Copy-12" fill="#F8E81C" sketch:type="MSShapeGroup" x="25" y="-3.55271368e-15" width="1" height="30"></rect>
                        </g>
                    </g>
                </g>
            </g>
            <g id="Rectangle-528-+-Rectangle-557" sketch:type="MSLayerGroup" transform="translate(19.000000, 43.000000)">
                <mask id="mask-11" sketch:name="Rectangle 528" fill="white">
                    <use xlink:href="#path-10"></use>
                </mask>
                <use id="Rectangle-528" fill="#4A4E93" filter="url(#filter-9)" sketch:type="MSShapeGroup" xlink:href="#path-10"></use>
                <g id="Group-+-Group" mask="url(#mask-11)" opacity="0.8">
                    <g transform="translate(-1.000000, 8.000000)" id="Group">
                        <g transform="translate(2.000000, 0.000000)">
                            <rect id="Rectangle-732" fill="#3D1739" sketch:type="MSShapeGroup" x="0.628812314" y="0" width="1" height="30"></rect>
                            <rect id="Rectangle-732-Copy" fill="#3D1739" sketch:type="MSShapeGroup" x="3" y="0" width="1" height="30"></rect>
                            <rect id="Rectangle-732-Copy-2" fill="#3D1739" sketch:type="MSShapeGroup" x="5" y="0" width="1" height="30"></rect>
                            <rect id="Rectangle-732-Copy-3" fill="#3D1739" sketch:type="MSShapeGroup" x="7" y="0" width="1" height="30"></rect>
                            <rect id="Rectangle-732-Copy-4" fill="#3D1739" sketch:type="MSShapeGroup" x="9" y="0" width="1" height="30"></rect>
                            <rect id="Rectangle-732-Copy-7" fill="#3D1739" sketch:type="MSShapeGroup" x="15" y="0" width="1" height="30"></rect>
                            <rect id="Rectangle-732-Copy-8" fill="#3D1739" sketch:type="MSShapeGroup" x="17" y="0" width="1" height="30"></rect>
                            <rect id="Rectangle-732-Copy-9" fill="#3D1739" sketch:type="MSShapeGroup" x="19" y="0" width="1" height="30"></rect>
                            <rect id="Rectangle-732-Copy-10" fill="#3D1739" sketch:type="MSShapeGroup" x="21" y="0" width="1" height="30"></rect>
                            <rect id="Rectangle-732-Copy-11" fill="#3D1739" sketch:type="MSShapeGroup" x="23" y="0" width="1" height="30"></rect>
                            <rect id="Rectangle-732-Copy-12" fill="#3D1739" sketch:type="MSShapeGroup" x="25" y="0" width="1" height="30"></rect>
                        </g>
                        <g transform="translate(15.400000, 15.599998) rotate(-270.000000) translate(-15.400000, -15.599998) translate(1.900000, 0.599998)" fill-opacity="0.300000012">
                            <rect id="Rectangle-732" fill="#F8E81C" sketch:type="MSShapeGroup" x="0.628812314" y="0" width="1" height="30"></rect>
                            <rect id="Rectangle-732-Copy" fill="#F8E81C" sketch:type="MSShapeGroup" x="3" y="0" width="1" height="30"></rect>
                            <rect id="Rectangle-732-Copy-2" fill="#F8E81C" sketch:type="MSShapeGroup" x="5" y="0" width="1" height="30"></rect>
                            <rect id="Rectangle-732-Copy-3" fill="#F8E81C" sketch:type="MSShapeGroup" x="7" y="0" width="1" height="30"></rect>
                            <rect id="Rectangle-732-Copy-4" fill="#F8E81C" sketch:type="MSShapeGroup" x="9" y="-3.55271368e-15" width="1" height="30"></rect>
                            <rect id="Rectangle-732-Copy-7" fill="#F8E81C" sketch:type="MSShapeGroup" x="15" y="-3.55271368e-15" width="1" height="30"></rect>
                            <rect id="Rectangle-732-Copy-13" fill="#F8E81C" sketch:type="MSShapeGroup" x="10.9700012" y="-3.55271368e-15" width="1" height="30"></rect>
                            <rect id="Rectangle-732-Copy-14" fill="#F8E81C" sketch:type="MSShapeGroup" x="13" y="-3.55271368e-15" width="1" height="30"></rect>
                            <rect id="Rectangle-732-Copy-8" fill="#F8E81C" sketch:type="MSShapeGroup" x="17" y="-3.55271368e-15" width="1" height="30"></rect>
                            <rect id="Rectangle-732-Copy-9" fill="#F8E81C" sketch:type="MSShapeGroup" x="19" y="-3.55271368e-15" width="1" height="30"></rect>
                            <rect id="Rectangle-732-Copy-10" fill="#F8E81C" sketch:type="MSShapeGroup" x="21" y="-3.55271368e-15" width="1" height="30"></rect>
                            <rect id="Rectangle-732-Copy-11" fill="#F8E81C" sketch:type="MSShapeGroup" x="23" y="-3.55271368e-15" width="1" height="30"></rect>
                            <rect id="Rectangle-732-Copy-12" fill="#F8E81C" sketch:type="MSShapeGroup" x="25" y="-3.55271368e-15" width="1" height="30"></rect>
                        </g>
                    </g>
                </g>
            </g>
            <rect id="Rectangle-566" fill="#3D1739" sketch:type="MSShapeGroup" transform="translate(28.045862, 52.639038) rotate(-48.000000) translate(-28.045862, -52.639038) " x="25.9732237" y="49.0119216" width="4.14527575" height="7.25423255"></rect>
            <rect id="Rectangle-567" fill="#3D1739" sketch:type="MSShapeGroup" transform="translate(37.045862, 52.639038) scale(-1, 1) rotate(-48.000000) translate(-37.045862, -52.639038) " x="34.9732237" y="49.0119216" width="4.14527575" height="7.25423255"></rect>
            <g id="Oval-449-+-Oval-458" sketch:type="MSLayerGroup" transform="translate(4.000000, 4.000000)">
                <mask id="mask-13" sketch:name="Oval 449" fill="white">
                    <use xlink:href="#path-12"></use>
                </mask>
                <use id="Oval-449" fill="#E4AC85" sketch:type="MSShapeGroup" xlink:href="#path-12"></use>
                <ellipse id="Oval-458" fill="#3D2212" sketch:type="MSShapeGroup" mask="url(#mask-13)" cx="-0.5" cy="13" rx="7.5" ry="18">
                    <g transform="translate(-0.500000, 13.000000) rotate(8.000000) translate(0.500000, -13.000000) "></g>
                </ellipse>
                <ellipse id="Oval-459" fill="#3D2212" sketch:type="MSShapeGroup" mask="url(#mask-13)" cx="56.1875" cy="10.6875" rx="7.5" ry="18">
                    <g transform="translate(56.187500, 10.687500) scale(-1, 1) rotate(6.000000) translate(-56.187500, -10.687500) "></g>
                </ellipse>
                <path d="M50.5,3 C49,12 38,10.5 34.5,9 C31,7.5 22.5,11.5 15.5,12.5 C8.5,13.5 9.99999999,9 4.49999999,7.5 C3.15845954,4.81691903 7.50000023,-3.5 7.50000023,-3.5 L34.5,-2 C34.5,-2 55,-1 50.5,3 Z" id="Path-94" fill="#3D2212" filter="url(#filter-14)" sketch:type="MSShapeGroup" mask="url(#mask-13)"></path>
            </g>
            <path d="M23.9754518,31.8668995 C23.8044924,29.6813844 22.7613319,28 21.5,28 C20.1192881,28 19,30.0147186 19,32.5 C19,33.9919822 19.4033834,35.314377 20.0245482,36.1331005 C20.0083676,35.9262502 20,35.714884 20,35.5 C20,33.0147186 21.1192881,31 22.5,31 C23.0518329,31 23.5619064,31.3218277 23.9754518,31.8668995 Z" id="Oval-461" fill="#555555" sketch:type="MSShapeGroup"></path>
            <path d="M43.9754518,31.8668995 C43.8044924,29.6813844 42.7613319,28 41.5,28 C40.1192881,28 39,30.0147186 39,32.5 C39,33.9919822 39.4033834,35.314377 40.0245482,36.1331005 C40.0083676,35.9262502 40,35.714884 40,35.5 C40,33.0147186 41.1192881,31 42.5,31 C43.0518329,31 43.5619064,31.3218277 43.9754518,31.8668995 Z" id="Oval-463" fill="#555555" sketch:type="MSShapeGroup"></path>
            <path d="M42.8578281,45.9123785 C42.0321241,47.0968682 37.7090313,48 32.5,48 C27.2909687,48 22.9678759,47.0968682 22.1421719,45.9123785 C24.7648071,46.5691722 28.902231,47 32.5,47 C36.097769,47 40.2351929,46.5691722 42.8578281,45.9123785 Z" id="Oval-465" fill="#555555" sketch:type="MSShapeGroup"></path>
            <path d="M32.5,54 L32.5,80.5" id="Path-112" stroke="#3D1739" sketch:type="MSShapeGroup"></path>
            <circle id="Oval-537" fill="#2C2B2B" sketch:type="MSShapeGroup" cx="34.2000046" cy="57.5" r="0.5"></circle>
            <circle id="Oval-538" fill="#2C2B2B" sketch:type="MSShapeGroup" cx="34.2000046" cy="61.5" r="0.5"></circle>
            <circle id="Oval-539" fill="#2C2B2B" sketch:type="MSShapeGroup" cx="34.2000046" cy="65.5" r="0.5"></circle>
            <circle id="Oval-540" fill="#2C2B2B" sketch:type="MSShapeGroup" cx="34.2000046" cy="69.5" r="0.5"></circle>
            <circle id="Oval-541" fill="#2C2B2B" sketch:type="MSShapeGroup" cx="34.2000046" cy="73.5" r="0.5"></circle>
            <circle id="Oval-542" fill="#2C2B2B" sketch:type="MSShapeGroup" cx="34.2000046" cy="77.5" r="0.5"></circle>
            <path d="M43.883187,13.6813824 C44.569545,3.16083443 39.0786811,1.84576594 39.0786811,1.84576594 C39.0786811,1.84576594 32.9014591,1.18823169 33.5878171,2.50330019 C34.2741751,3.81836868 37.0196071,9.7361769 37.0196071,12.3663139" id="Path-115" fill="#3E2213" sketch:type="MSShapeGroup" transform="translate(38.738571, 7.681382) rotate(-52.000000) translate(-38.738571, -7.681382) "></path>
            <path d="M38.0968583,12.2049999 C38.5968583,4.20499992 34.3490939,2.70499992 34.3490939,2.70499992 C34.3490939,2.70499992 29.5968583,2.20499992 30.0968583,3.20499992 C30.5968583,4.20499992 33.0968583,9.20499992 33.0968583,11.2049999" id="Path-116" fill="#3E2213" sketch:type="MSShapeGroup"></path>
            <path d="M34.4563805,11.5832581 C34.1174137,3.57481871 30.0347977,2.99841067 30.0347977,2.99841067 C30.0347977,2.99841067 24.3982106,3.05774236 25.0000001,4.00000002 C25.6017895,4.94225768 29.1701856,9.12233474 29.3792425,11.1113785" id="Path-117" fill="#3E2213" sketch:type="MSShapeGroup"></path>
            <path d="M29.4563805,12.5832581 C29.1174137,4.57481871 25.0347977,3.99841067 25.0347977,3.99841067 C25.0347977,3.99841067 20.5071849,3.97152781 21.1089743,4.91378547 C21.7107637,5.85604313 24.1701856,10.1223347 24.3792425,12.1113785" id="Path-118" fill="#3E2213" sketch:type="MSShapeGroup"></path>
            <path d="M26.7296753,12.487209 C25.1422188,4.63035725 21.0186324,4.69999272 21.0186324,4.69999272 C21.0186324,4.69999272 16.5413596,5.38203627 17.2832746,6.21851693 C18.0251895,7.0549976 21.1222589,10.8838832 21.639897,12.8157348" id="Path-119" fill="#3E2213" sketch:type="MSShapeGroup"></path>
            <path d="M22.5296745,13.7872092 C20.9422181,5.93035744 16.8186317,5.99999291 16.8186317,5.99999291 C16.8186317,5.99999291 12.3413588,6.68203646 13.0832738,7.51851712 C13.8251888,8.35499779 11.6857995,9.9951718 12.2034376,11.9270235" id="Path-120" fill="#3E2213" sketch:type="MSShapeGroup"></path>
            <path d="M12.9780273,7.2555542 C12.9780273,7.2555542 17.5363159,9.10870361 15.8688354,14.5096436" id="Path-342" stroke="#4C2A17" stroke-width="0.4" sketch:type="MSShapeGroup"></path>
            <path d="M22,5 C22,5 26.5582886,6.85314941 24.8908081,12.2540894" id="Path-342-Copy" stroke="#4C2A17" stroke-width="0.4" sketch:type="MSShapeGroup"></path>
            <path d="M34,3 C34,3 38.5582886,4.85314941 36.8908081,10.2540894" id="Path-342-Copy-2" stroke="#4C2A17" stroke-width="0.4" sketch:type="MSShapeGroup"></path>
            <g id="Rectangle-714-+-Oval-1016" sketch:type="MSLayerGroup" transform="translate(27.000000, 53.000000)">
                <g id="Rectangle-714">
                    <use fill="#8A1010" sketch:type="MSShapeGroup" xlink:href="#path-15"></use>
                    <use fill="none" xlink:href="#path-15"></use>
                </g>
                <g id="Oval-1016" filter="url(#filter-16)">
                    <use fill="#8A1010" sketch:type="MSShapeGroup" xlink:href="#path-17"></use>
                    <use fill="none" xlink:href="#path-17"></use>
                </g>
            </g>
        </g>
    </g>
</svg>