<?xml version="1.0" encoding="UTF-8" standalone="no"?>
<svg width="65px" height="87px" viewBox="0 0 65 87" version="1.1" xmlns="http://www.w3.org/2000/svg" xmlns:xlink="http://www.w3.org/1999/xlink" xmlns:sketch="http://www.bohemiancoding.com/sketch/ns">
    <!-- Generator: Sketch 3.2.1 (9971) - http://www.bohemiancoding.com/sketch -->
    <title>nate</title>
    <desc>Created with Sketch.</desc>
    <defs>
        <filter x="-50%" y="-50%" width="200%" height="200%" filterUnits="objectBoundingBox" id="filter-1">
            <feOffset dx="-1" dy="-1" in="SourceAlpha" result="shadowOffsetInner1"></feOffset>
            <feGaussianBlur stdDeviation="1" in="shadowOffsetInner1" result="shadowBlurInner1"></feGaussianBlur>
            <feComposite in="shadowBlurInner1" in2="SourceAlpha" operator="arithmetic" k2="-1" k3="1" result="shadowInnerInner1"></feComposite>
            <feColorMatrix values="0 0 0 0 0   0 0 0 0 0   0 0 0 0 0  0 0 0 0.145615376 0" in="shadowInnerInner1" type="matrix" result="shadowMatrixInner1"></feColorMatrix>
            <feMerge>
                <feMergeNode in="SourceGraphic"></feMergeNode>
                <feMergeNode in="shadowMatrixInner1"></feMergeNode>
            </feMerge>
        </filter>
        <ellipse id="path-2" cx="6.5" cy="6" rx="6.5" ry="6"></ellipse>
        <filter x="-50%" y="-50%" width="200%" height="200%" filterUnits="objectBoundingBox" id="filter-4">
            <feOffset dx="1" dy="-1" in="SourceAlpha" result="shadowOffsetInner1"></feOffset>
            <feGaussianBlur stdDeviation="1" in="shadowOffsetInner1" result="shadowBlurInner1"></feGaussianBlur>
            <feComposite in="shadowBlurInner1" in2="SourceAlpha" operator="arithmetic" k2="-1" k3="1" result="shadowInnerInner1"></feComposite>
            <feColorMatrix values="0 0 0 0 0   0 0 0 0 0   0 0 0 0 0  0 0 0 0.35 0" in="shadowInnerInner1" type="matrix" result="shadowMatrixInner1"></feColorMatrix>
            <feMerge>
                <feMergeNode in="SourceGraphic"></feMergeNode>
                <feMergeNode in="shadowMatrixInner1"></feMergeNode>
            </feMerge>
        </filter>
        <filter x="-50%" y="-50%" width="200%" height="200%" filterUnits="objectBoundingBox" id="filter-5">
            <feOffset dx="1" dy="-1" in="SourceAlpha" result="shadowOffsetInner1"></feOffset>
            <feGaussianBlur stdDeviation="1" in="shadowOffsetInner1" result="shadowBlurInner1"></feGaussianBlur>
            <feComposite in="shadowBlurInner1" in2="SourceAlpha" operator="arithmetic" k2="-1" k3="1" result="shadowInnerInner1"></feComposite>
            <feColorMatrix values="0 0 0 0 0   0 0 0 0 0   0 0 0 0 0  0 0 0 0.35 0" in="shadowInnerInner1" type="matrix" result="shadowMatrixInner1"></feColorMatrix>
            <feMerge>
                <feMergeNode in="SourceGraphic"></feMergeNode>
                <feMergeNode in="shadowMatrixInner1"></feMergeNode>
            </feMerge>
        </filter>
        <filter x="-50%" y="-50%" width="200%" height="200%" filterUnits="objectBoundingBox" id="filter-6">
            <feOffset dx="3" dy="-1" in="SourceAlpha" result="shadowOffsetInner1"></feOffset>
            <feGaussianBlur stdDeviation="1" in="shadowOffsetInner1" result="shadowBlurInner1"></feGaussianBlur>
            <feComposite in="shadowBlurInner1" in2="SourceAlpha" operator="arithmetic" k2="-1" k3="1" result="shadowInnerInner1"></feComposite>
            <feColorMatrix values="0 0 0 0 0   0 0 0 0 0   0 0 0 0 0  0 0 0 0.145615376 0" in="shadowInnerInner1" type="matrix" result="shadowMatrixInner1"></feColorMatrix>
            <feMerge>
                <feMergeNode in="SourceGraphic"></feMergeNode>
                <feMergeNode in="shadowMatrixInner1"></feMergeNode>
            </feMerge>
        </filter>
        <ellipse id="path-7" cx="6.5" cy="6" rx="6.5" ry="6"></ellipse>
        <filter x="-50%" y="-50%" width="200%" height="200%" filterUnits="objectBoundingBox" id="filter-9">
            <feOffset dx="2" dy="-2" in="SourceAlpha" result="shadowOffsetInner1"></feOffset>
            <feGaussianBlur stdDeviation="1" in="shadowOffsetInner1" result="shadowBlurInner1"></feGaussianBlur>
            <feComposite in="shadowBlurInner1" in2="SourceAlpha" operator="arithmetic" k2="-1" k3="1" result="shadowInnerInner1"></feComposite>
            <feColorMatrix values="0 0 0 0 0   0 0 0 0 0   0 0 0 0 0  0 0 0 0.180013021 0" in="shadowInnerInner1" type="matrix" result="shadowMatrixInner1"></feColorMatrix>
            <feMerge>
                <feMergeNode in="SourceGraphic"></feMergeNode>
                <feMergeNode in="shadowMatrixInner1"></feMergeNode>
            </feMerge>
        </filter>
        <rect id="path-10" x="0" y="0.518518519" width="28" height="37"></rect>
        <ellipse id="path-12" cx="28.5" cy="25" rx="28.5" ry="25"></ellipse>
        <linearGradient x1="50%" y1="-86.3636032%" x2="50%" y2="100%" id="linearGradient-14">
            <stop stop-color="#3D2413" stop-opacity="0.768115942" offset="0%"></stop>
            <stop stop-color="#3D2413" offset="100%"></stop>
        </linearGradient>
        <linearGradient x1="102.502554%" y1="2.86507323%" x2="37.7489785%" y2="62.8003103%" id="linearGradient-15">
            <stop stop-color="#3D2413" stop-opacity="0.768115942" offset="0%"></stop>
            <stop stop-color="#3D2413" offset="100%"></stop>
        </linearGradient>
        <filter x="-50%" y="-50%" width="200%" height="200%" filterUnits="objectBoundingBox" id="filter-16">
            <feOffset dx="0" dy="-0.200000003" in="SourceAlpha" result="shadowOffsetInner1"></feOffset>
            <feGaussianBlur stdDeviation="0" in="shadowOffsetInner1" result="shadowBlurInner1"></feGaussianBlur>
            <feComposite in="shadowBlurInner1" in2="SourceAlpha" operator="arithmetic" k2="-1" k3="1" result="shadowInnerInner1"></feComposite>
            <feColorMatrix values="0 0 0 0 0.428571429   0 0 0 0 0.303376963   0 0 0 0 0.222952178  0 0 0 0.294202899 0" in="shadowInnerInner1" type="matrix" result="shadowMatrixInner1"></feColorMatrix>
            <feMerge>
                <feMergeNode in="SourceGraphic"></feMergeNode>
                <feMergeNode in="shadowMatrixInner1"></feMergeNode>
            </feMerge>
        </filter>
    </defs>
    <g id="Page-1" stroke="none" stroke-width="1" fill="none" fill-rule="evenodd" sketch:type="MSPage">
        <g id="nate" sketch:type="MSArtboardGroup">
            <g id="Oval-450-+-Rectangle-565" sketch:type="MSLayerGroup" transform="translate(43.000000, 49.000000)">
                <mask id="mask-3" sketch:name="Oval 450" fill="white">
                    <use xlink:href="#path-2"></use>
                </mask>
                <use id="Oval-450" fill="#38BFC4" filter="url(#filter-1)" sketch:type="MSShapeGroup" xlink:href="#path-2"></use>
                <rect id="Rectangle-565" fill-opacity="0.608695652" fill="#9E6FF5" sketch:type="MSShapeGroup" mask="url(#mask-3)" x="-10" y="5" width="32" height="4">
                    <g transform="translate(6.000000, 7.000000) rotate(-60.000000) translate(-6.000000, -7.000000) "></g>
                </rect>
            </g>
            <circle id="Oval-452" fill="#555555" filter="url(#filter-4)" sketch:type="MSShapeGroup" cx="41" cy="80" r="6"></circle>
            <circle id="Oval-453" fill="#555555" filter="url(#filter-5)" sketch:type="MSShapeGroup" cx="25" cy="80" r="6"></circle>
            <g id="Oval-451-+-Rectangle-564" sketch:type="MSLayerGroup" transform="translate(10.000000, 49.000000)">
                <mask id="mask-8" sketch:name="Oval 451" fill="white">
                    <use xlink:href="#path-7"></use>
                </mask>
                <use id="Oval-451" fill="#38BFC4" filter="url(#filter-6)" sketch:type="MSShapeGroup" xlink:href="#path-7"></use>
                <rect id="Rectangle-564" fill-opacity="0.608695652" fill="#9E6FF5" sketch:type="MSShapeGroup" mask="url(#mask-8)" x="-10" y="5" width="32" height="4">
                    <g transform="translate(6.000000, 7.000000) rotate(-116.000000) translate(-6.000000, -7.000000) "></g>
                </rect>
            </g>
            <g id="Rectangle-528-+-Rectangle-557" sketch:type="MSLayerGroup" transform="translate(19.000000, 43.000000)">
                <mask id="mask-11" sketch:name="Rectangle 528" fill="white">
                    <use xlink:href="#path-10"></use>
                </mask>
                <use id="Rectangle-528" fill="#38BFC4" filter="url(#filter-9)" sketch:type="MSShapeGroup" xlink:href="#path-10"></use>
                <rect id="Rectangle-557" fill-opacity="0.608695652" fill="#9E6FF5" sketch:type="MSShapeGroup" mask="url(#mask-11)" x="-0.933333333" y="10.1111111" width="29.8666667" height="5.48148148"></rect>
                <rect id="Rectangle-558" fill-opacity="0.608695652" fill="#9E6FF5" sketch:type="MSShapeGroup" mask="url(#mask-11)" x="-0.933333333" y="19.7037037" width="29.8666667" height="5.48148148"></rect>
                <rect id="Rectangle-559" fill-opacity="0.608695652" fill="#9E6FF5" sketch:type="MSShapeGroup" mask="url(#mask-11)" x="-0.933333333" y="29.2962963" width="29.8666667" height="5.48148148"></rect>
                <path d="M2.8,44.3214286 L2.8,2.03571429 L6.53333333,2.03571429 L6.53333333,44.3214286 L2.8,44.3214286 L2.8,44.3214286 Z" id="Rectangle-560" fill-opacity="0.608695652" fill="#9E6FF5" sketch:type="MSShapeGroup" mask="url(#mask-11)"></path>
                <path d="M9.33333333,44.3214286 L9.33333333,2.03571429 L13.0666667,2.03571429 L13.0666667,44.3214286 L9.33333333,44.3214286 L9.33333333,44.3214286 Z" id="Rectangle-561" fill-opacity="0.608695652" fill="#9E6FF5" sketch:type="MSShapeGroup" mask="url(#mask-11)"></path>
                <path d="M15.8666667,44.3214286 L15.8666667,2.03571429 L19.6,2.03571429 L19.6,44.3214286 L15.8666667,44.3214286 L15.8666667,44.3214286 Z" id="Rectangle-562" fill-opacity="0.608695652" fill="#9E6FF5" sketch:type="MSShapeGroup" mask="url(#mask-11)"></path>
                <path d="M22.4,44.3214286 L22.4,2.03571429 L26.1333333,2.03571429 L26.1333333,44.3214286 L22.4,44.3214286 L22.4,44.3214286 Z" id="Rectangle-563" fill-opacity="0.608695652" fill="#9E6FF5" sketch:type="MSShapeGroup" mask="url(#mask-11)"></path>
            </g>
            <rect id="Rectangle-566" fill="#33A8AC" sketch:type="MSShapeGroup" transform="translate(28.045862, 52.639038) rotate(-48.000000) translate(-28.045862, -52.639038) " x="25.9732237" y="49.0119216" width="4.14527575" height="7.25423255"></rect>
            <rect id="Rectangle-567" fill="#33A8AC" sketch:type="MSShapeGroup" transform="translate(37.045862, 52.639038) scale(-1, 1) rotate(-48.000000) translate(-37.045862, -52.639038) " x="34.9732237" y="49.0119216" width="4.14527575" height="7.25423255"></rect>
            <g id="Oval-449-+-Oval-458" sketch:type="MSLayerGroup" transform="translate(4.000000, 4.000000)">
                <mask id="mask-13" sketch:name="Oval 449" fill="white">
                    <use xlink:href="#path-12"></use>
                </mask>
                <use id="Oval-449" fill="#E4AC85" sketch:type="MSShapeGroup" xlink:href="#path-12"></use>
                <path d="M16.7999992,44.5 C22.4999997,47.6899791 32.5,48.1954294 38,45 C37,53.5 39,52 39,52 L15,52 C15,52 18.2999973,51 16.7999992,44.5 Z" id="Rectangle-568" fill="url(#linearGradient-14)" sketch:type="MSShapeGroup" mask="url(#mask-13)"></path>
                <path d="M14.5,41 C14.5,41 15.4999998,38.5 17.5,38 C18.4613776,37.7596556 28.6820879,38 28.6820879,38 L28.6820883,39.7979492 C28.6820883,39.7979492 19.4144508,39.7713873 18.5,40 C16.5,40.5 16.5,44.0000001 16.5,44.0000001 L14.5,41 Z" id="Rectangle-569" fill="url(#linearGradient-14)" sketch:type="MSShapeGroup" mask="url(#mask-13)"></path>
                <path d="M28.5999985,40.9465901 C28.5999985,40.9465901 29.41791,38.5 31.4179101,38 C32.3792877,37.7596556 40.5,38 40.5,38 L40.5,39.7979492 C40.5,39.7979492 33.332361,39.7713873 32.4179101,40 C30.4179101,40.5 30.5999985,43.9999999 30.5999985,43.9999999 L28.5999985,40.9465901 Z" id="Rectangle-570" fill="url(#linearGradient-14)" sketch:type="MSShapeGroup" mask="url(#mask-13)">
                    <g transform="translate(34.549999, 40.946590) scale(-1, 1) translate(-34.549999, -40.946590) "></g>
                </path>
                <path d="M9.05941988e-14,29.5 C4.5,32.5 17.5,39.5 17.5,48 C17.5,56.5 6.5,49 6.5,49 L-1.5,30.5 C-1.5,30.5 -4.5,26.5 9.05941988e-14,29.5 Z" id="Path-113" fill="url(#linearGradient-15)" sketch:type="MSShapeGroup" mask="url(#mask-13)"></path>
                <path d="M40,29.5 C44.5,32.5 57.5,39.5 57.5,48 C57.5,56.5 46.5,49 46.5,49 L38.5,30.5 C38.5,30.5 35.5,26.5 40,29.5 Z" id="Path-114" fill="url(#linearGradient-14)" sketch:type="MSShapeGroup" mask="url(#mask-13)">
                    <g transform="translate(47.510204, 40.219989) scale(-1, 1) translate(-47.510204, -40.219989) "></g>
                </path>
                <ellipse id="Oval-458" fill="#3C2412" sketch:type="MSShapeGroup" mask="url(#mask-13)" cx="-0.5" cy="13" rx="7.5" ry="18">
                    <g transform="translate(-0.500000, 13.000000) rotate(8.000000) translate(0.500000, -13.000000) "></g>
                </ellipse>
                <ellipse id="Oval-459" fill="#3C2412" sketch:type="MSShapeGroup" mask="url(#mask-13)" cx="56.1875" cy="10.6875" rx="7.5" ry="18">
                    <g transform="translate(56.187500, 10.687500) scale(-1, 1) rotate(6.000000) translate(-56.187500, -10.687500) "></g>
                </ellipse>
                <path d="M50.5,3 C49,12 38,10.5 34.5,9 C31,7.5 22.5,11.5 15.5,12.5 C8.5,13.5 9.99999999,9 4.49999999,7.5 C3.15845954,4.81691903 7.50000023,-3.5 7.50000023,-3.5 L34.5,-2 C34.5,-2 55,-1 50.5,3 Z" id="Path-94" fill="#3C2412" filter="url(#filter-16)" sketch:type="MSShapeGroup" mask="url(#mask-13)"></path>
            </g>
            <path d="M23.9754518,31.8668995 C23.8044924,29.6813844 22.7613319,28 21.5,28 C20.1192881,28 19,30.0147186 19,32.5 C19,33.9919822 19.4033834,35.314377 20.0245482,36.1331005 C20.0083676,35.9262502 20,35.714884 20,35.5 C20,33.0147186 21.1192881,31 22.5,31 C23.0518329,31 23.5619064,31.3218277 23.9754518,31.8668995 Z" id="Oval-461" fill="#555555" sketch:type="MSShapeGroup"></path>
            <path d="M43.9754518,31.8668995 C43.8044924,29.6813844 42.7613319,28 41.5,28 C40.1192881,28 39,30.0147186 39,32.5 C39,33.9919822 39.4033834,35.314377 40.0245482,36.1331005 C40.0083676,35.9262502 40,35.714884 40,35.5 C40,33.0147186 41.1192881,31 42.5,31 C43.0518329,31 43.5619064,31.3218277 43.9754518,31.8668995 Z" id="Oval-463" fill="#555555" sketch:type="MSShapeGroup"></path>
            <path d="M42.8578281,45.9123785 C42.0321241,47.0968682 37.7090313,48 32.5,48 C27.2909687,48 22.9678759,47.0968682 22.1421719,45.9123785 C24.7648071,46.5691722 28.902231,47 32.5,47 C36.097769,47 40.2351929,46.5691722 42.8578281,45.9123785 Z" id="Oval-465" fill="#555555" sketch:type="MSShapeGroup"></path>
            <path d="M32.5,54 L32.5,80.5" id="Path-112" stroke="#616161" sketch:type="MSShapeGroup"></path>
            <circle id="Oval-537" fill="#616161" sketch:type="MSShapeGroup" cx="34.2000046" cy="57.5" r="0.5"></circle>
            <circle id="Oval-538" fill="#616161" sketch:type="MSShapeGroup" cx="34.2000046" cy="61.5" r="0.5"></circle>
            <circle id="Oval-539" fill="#616161" sketch:type="MSShapeGroup" cx="34.2000046" cy="65.5" r="0.5"></circle>
            <circle id="Oval-540" fill="#616161" sketch:type="MSShapeGroup" cx="34.2000046" cy="69.5" r="0.5"></circle>
            <circle id="Oval-541" fill="#616161" sketch:type="MSShapeGroup" cx="34.2000046" cy="73.5" r="0.5"></circle>
            <circle id="Oval-542" fill="#616161" sketch:type="MSShapeGroup" cx="34.2000046" cy="77.5" r="0.5"></circle>
            <path d="M43,12 C43.5,4 39.5,3 39.5,3 C39.5,3 35,2.5 35.5,3.5 C36,4.5 38,9 38,11" id="Path-115" fill="#3D2413" sketch:type="MSShapeGroup"></path>
            <path d="M39,12 C39.5,4 35.2522357,2.5 35.2522357,2.5 C35.2522357,2.5 30.5,2 31,3 C31.5,4 34,9 34,11" id="Path-116" fill="#3D2413" sketch:type="MSShapeGroup"></path>
            <path d="M34.4563805,11.5832581 C34.1174137,3.57481871 30.0347977,2.99841067 30.0347977,2.99841067 C30.0347977,2.99841067 24.3982106,3.05774236 25.0000001,4.00000002 C25.6017895,4.94225768 29.1701856,9.12233474 29.3792425,11.1113785" id="Path-117" fill="#3D2413" sketch:type="MSShapeGroup"></path>
            <path d="M29,13 C29.5,5 25.5,4 25.5,4 C25.5,4 21,3.5 21.5,4.5 C22,5.5 24,10 24,12" id="Path-118" fill="#3D2413" sketch:type="MSShapeGroup" transform="translate(25.252236, 8.437500) rotate(-6.000000) translate(-25.252236, -8.437500) "></path>
            <path d="M25,14 C25.5,6 21.5,5 21.5,5 C21.5,5 17,4.5 17.5,5.5 C18,6.5 20,11 20,13" id="Path-119" fill="#3D2413" sketch:type="MSShapeGroup" transform="translate(21.252236, 9.437500) rotate(-15.000000) translate(-21.252236, -9.437500) "></path>
            <path d="M21.0531599,14.8745438 C19.4655705,7.01772768 15.3430481,7.08707803 15.3430481,7.08707803 C15.3430481,7.08707803 10.8669724,7.76880082 11.6087543,8.60531712 C12.3505363,9.44183343 15.4470737,13.2708616 15.9647117,15.2027132" id="Path-120" fill="#3D2413" sketch:type="MSShapeGroup"></path>
        </g>
    </g>
</svg>