<?xml version="1.0" encoding="UTF-8" standalone="no"?>
<svg width="65px" height="87px" viewBox="0 0 65 87" version="1.1" xmlns="http://www.w3.org/2000/svg" xmlns:xlink="http://www.w3.org/1999/xlink" xmlns:sketch="http://www.bohemiancoding.com/sketch/ns">
    <!-- Generator: Sketch 3.4.4 (17249) - http://www.bohemiancoding.com/sketch -->
    <title>paul</title>
    <desc>Created with Sketch.</desc>
    <defs>
        <filter x="-50%" y="-50%" width="200%" height="200%" filterUnits="objectBoundingBox" id="filter-1">
            <feOffset dx="-1" dy="-1" in="SourceAlpha" result="shadowOffsetInner1"></feOffset>
            <feGaussianBlur stdDeviation="1" in="shadowOffsetInner1" result="shadowBlurInner1"></feGaussianBlur>
            <feComposite in="shadowBlurInner1" in2="SourceAlpha" operator="arithmetic" k2="-1" k3="1" result="shadowInnerInner1"></feComposite>
            <feColorMatrix values="0 0 0 0 0   0 0 0 0 0   0 0 0 0 0  0 0 0 0.145615376 0" in="shadowInnerInner1" type="matrix" result="shadowMatrixInner1"></feColorMatrix>
            <feMerge>
                <feMergeNode in="SourceGraphic"></feMergeNode>
                <feMergeNode in="shadowMatrixInner1"></feMergeNode>
            </feMerge>
        </filter>
        <filter x="-50%" y="-50%" width="200%" height="200%" filterUnits="objectBoundingBox" id="filter-2">
            <feOffset dx="3" dy="-1" in="SourceAlpha" result="shadowOffsetInner1"></feOffset>
            <feGaussianBlur stdDeviation="1" in="shadowOffsetInner1" result="shadowBlurInner1"></feGaussianBlur>
            <feComposite in="shadowBlurInner1" in2="SourceAlpha" operator="arithmetic" k2="-1" k3="1" result="shadowInnerInner1"></feComposite>
            <feColorMatrix values="0 0 0 0 0   0 0 0 0 0   0 0 0 0 0  0 0 0 0.145615376 0" in="shadowInnerInner1" type="matrix" result="shadowMatrixInner1"></feColorMatrix>
            <feMerge>
                <feMergeNode in="SourceGraphic"></feMergeNode>
                <feMergeNode in="shadowMatrixInner1"></feMergeNode>
            </feMerge>
        </filter>
        <filter x="-50%" y="-50%" width="200%" height="200%" filterUnits="objectBoundingBox" id="filter-3">
            <feOffset dx="1" dy="-1" in="SourceAlpha" result="shadowOffsetInner1"></feOffset>
            <feGaussianBlur stdDeviation="1" in="shadowOffsetInner1" result="shadowBlurInner1"></feGaussianBlur>
            <feComposite in="shadowBlurInner1" in2="SourceAlpha" operator="arithmetic" k2="-1" k3="1" result="shadowInnerInner1"></feComposite>
            <feColorMatrix values="0 0 0 0 0   0 0 0 0 0   0 0 0 0 0  0 0 0 0.35 0" in="shadowInnerInner1" type="matrix" result="shadowMatrixInner1"></feColorMatrix>
            <feMerge>
                <feMergeNode in="SourceGraphic"></feMergeNode>
                <feMergeNode in="shadowMatrixInner1"></feMergeNode>
            </feMerge>
        </filter>
        <filter x="-50%" y="-50%" width="200%" height="200%" filterUnits="objectBoundingBox" id="filter-4">
            <feOffset dx="1" dy="-1" in="SourceAlpha" result="shadowOffsetInner1"></feOffset>
            <feGaussianBlur stdDeviation="1" in="shadowOffsetInner1" result="shadowBlurInner1"></feGaussianBlur>
            <feComposite in="shadowBlurInner1" in2="SourceAlpha" operator="arithmetic" k2="-1" k3="1" result="shadowInnerInner1"></feComposite>
            <feColorMatrix values="0 0 0 0 0   0 0 0 0 0   0 0 0 0 0  0 0 0 0.35 0" in="shadowInnerInner1" type="matrix" result="shadowMatrixInner1"></feColorMatrix>
            <feMerge>
                <feMergeNode in="SourceGraphic"></feMergeNode>
                <feMergeNode in="shadowMatrixInner1"></feMergeNode>
            </feMerge>
        </filter>
        <filter x="-50%" y="-50%" width="200%" height="200%" filterUnits="objectBoundingBox" id="filter-5">
            <feOffset dx="2" dy="-2" in="SourceAlpha" result="shadowOffsetInner1"></feOffset>
            <feGaussianBlur stdDeviation="1" in="shadowOffsetInner1" result="shadowBlurInner1"></feGaussianBlur>
            <feComposite in="shadowBlurInner1" in2="SourceAlpha" operator="arithmetic" k2="-1" k3="1" result="shadowInnerInner1"></feComposite>
            <feColorMatrix values="0 0 0 0 0   0 0 0 0 0   0 0 0 0 0  0 0 0 0.180013021 0" in="shadowInnerInner1" type="matrix" result="shadowMatrixInner1"></feColorMatrix>
            <feMerge>
                <feMergeNode in="SourceGraphic"></feMergeNode>
                <feMergeNode in="shadowMatrixInner1"></feMergeNode>
            </feMerge>
        </filter>
        <ellipse id="path-6" cx="28.5" cy="25" rx="28.5" ry="25"></ellipse>
    </defs>
    <g id="Page-1" stroke="none" stroke-width="1" fill="none" fill-rule="evenodd" sketch:type="MSPage">
        <g id="paul" sketch:type="MSArtboardGroup">
            <ellipse id="Oval-450" fill="#4A90E2" filter="url(#filter-1)" sketch:type="MSShapeGroup" cx="49.5" cy="59" rx="6.5" ry="6"></ellipse>
            <ellipse id="Oval-451" fill="#4A90E2" filter="url(#filter-2)" sketch:type="MSShapeGroup" cx="16.5" cy="59" rx="6.5" ry="6"></ellipse>
            <circle id="Oval-452" fill="#515151" filter="url(#filter-3)" sketch:type="MSShapeGroup" cx="41" cy="80" r="6"></circle>
            <circle id="Oval-453" fill="#515151" filter="url(#filter-4)" sketch:type="MSShapeGroup" cx="25" cy="80" r="6"></circle>
            <rect id="Rectangle-528" fill="#4990E2" filter="url(#filter-5)" sketch:type="MSShapeGroup" x="20" y="53" width="26" height="27"></rect>
            <g id="Oval-449-+-Oval-458" sketch:type="MSLayerGroup" transform="translate(4.000000, 8.000000)">
                <mask id="mask-7" sketch:name="Oval 449" fill="white">
                    <use xlink:href="#path-6"></use>
                </mask>
                <use id="Oval-449" fill="#F0BC97" sketch:type="MSShapeGroup" xlink:href="#path-6"></use>
                <ellipse id="Oval-458" stroke="#643D22" stroke-width="0.799999952" fill="#4A2D19" sketch:type="MSShapeGroup" mask="url(#mask-7)" cx="-0.5" cy="13" rx="7.5" ry="18">
                    <g transform="translate(-0.500000, 13.000000) rotate(6.000000) translate(0.500000, -13.000000) "></g>
                </ellipse>
                <ellipse id="Oval-459" stroke="#643D22" stroke-width="0.799999952" fill="#4A2D19" sketch:type="MSShapeGroup" mask="url(#mask-7)" cx="57.5" cy="13" rx="7.5" ry="18">
                    <g transform="translate(57.500000, 13.000000) scale(-1, 1) rotate(6.000000) translate(-57.500000, -13.000000) "></g>
                </ellipse>
                <ellipse id="Oval-459" fill="#4A2D19" sketch:type="MSShapeGroup" mask="url(#mask-7)" cx="32.426232" cy="3.44000986" rx="11.6611669" ry="28.329045">
                    <g transform="translate(32.426232, 3.440010) scale(-1, 1) rotate(-264.000000) translate(-32.426232, -3.440010) "></g>
                </ellipse>
            </g>
            <path d="M23.9754518,35.8668995 C23.8044924,33.6813844 22.7613319,32 21.5,32 C20.1192881,32 19,34.0147186 19,36.5 C19,37.9919822 19.4033834,39.314377 20.0245482,40.1331005 C20.0083676,39.9262502 20,39.714884 20,39.5 C20,37.0147186 21.1192881,35 22.5,35 C23.0518329,35 23.5619064,35.3218277 23.9754518,35.8668995 Z" id="Oval-461" fill="#555555" sketch:type="MSShapeGroup"></path>
            <path d="M43.9754518,35.8668995 C43.8044924,33.6813844 42.7613319,32 41.5,32 C40.1192881,32 39,34.0147186 39,36.5 C39,37.9919822 39.4033834,39.314377 40.0245482,40.1331005 C40.0083676,39.9262502 40,39.714884 40,39.5 C40,37.0147186 41.1192881,35 42.5,35 C43.0518329,35 43.5619064,35.3218277 43.9754518,35.8668995 Z" id="Oval-463" fill="#555555" sketch:type="MSShapeGroup"></path>
            <path d="M42.789962,49 C42.9276965,49.161555 43,49.3287671 43,49.5 C43,50.8807119 38.2989899,52 32.5,52 C26.7010101,52 22,50.8807119 22,49.5 C22,49.3287671 22.0723035,49.161555 22.210038,49 C23.1829057,50.1411202 27.4201884,51 32.5,51 C37.5798116,51 41.8170943,50.1411202 42.789962,49 Z" id="Oval-465" fill="#555555" sketch:type="MSShapeGroup"></path>
            <g id="Group" sketch:type="MSLayerGroup" transform="translate(39.000000, 59.000000)">
                <path d="M2.5,1 C2.20109931,1.17290471 2,1.49607663 2,1.8662178 C2,2.23635898 2.20109931,2.5595309 2.5,2.73243561 C2.79890069,2.5595309 3,2.23635898 3,1.8662178 C3,1.49607663 2.79890069,1.17290471 2.5,1 Z" id="Oval-1095" fill="#FFFFFF" sketch:type="MSShapeGroup"></path>
                <path d="M3.19612344,1.10395004 C2.89722275,1.27685475 2.69612344,1.60002667 2.69612344,1.97016784 C2.69612344,2.34030902 2.89722275,2.66348094 3.19612344,2.83638565 C3.49502412,2.66348094 3.69612344,2.34030902 3.69612344,1.97016784 C3.69612344,1.60002667 3.49502412,1.27685475 3.19612344,1.10395004 Z" id="Oval-1095-Copy-2" fill="#FFFFFF" sketch:type="MSShapeGroup" transform="translate(3.196123, 1.970168) rotate(-330.000000) translate(-3.196123, -1.970168) "></path>
                <path d="M1.79612191,1.10395004 C1.49722122,1.27685475 1.29612191,1.60002667 1.29612191,1.97016784 C1.29612191,2.34030902 1.49722122,2.66348094 1.79612191,2.83638565 C2.09502259,2.66348094 2.29612191,2.34030902 2.29612191,1.97016784 C2.29612191,1.60002667 2.09502259,1.27685475 1.79612191,1.10395004 Z" id="Oval-1095-Copy-2" fill="#FFFFFF" sketch:type="MSShapeGroup" transform="translate(1.796122, 1.970168) scale(-1, 1) rotate(-330.000000) translate(-1.796122, -1.970168) "></path>
                <path d="M4.5,2.5 L0.5,2.5" id="Line" stroke="#4A90E2" stroke-width="0.1" stroke-linecap="square" sketch:type="MSShapeGroup"></path>
                <path d="M4.5,2.2 L0.5,2.19999695" id="Line-Copy" stroke="#4A90E2" stroke-width="0.1" stroke-linecap="square" sketch:type="MSShapeGroup"></path>
            </g>
            <rect id="Rectangle-884" fill="#417EC5" sketch:type="MSShapeGroup" x="33" y="58" width="1" height="22"></rect>
            <g id="Group-+-Group" sketch:type="MSLayerGroup" transform="translate(25.000000, 58.000000)" stroke="#F8E81C" stroke-width="0.2" fill="#D8D8D8" fill-opacity="0">
                <g id="Group" transform="translate(9.000000, 0.000000)" sketch:type="MSShapeGroup">
                    <circle id="Oval-1101" cx="6.90000153" cy="0.5" r="0.5"></circle>
                    <circle id="Oval-1101-Copy" cx="5.90000153" cy="1.79999924" r="0.5"></circle>
                    <circle id="Oval-1101-Copy-2" cx="4.79999924" cy="2.70000076" r="0.5"></circle>
                    <circle id="Oval-1101-Copy-3" cx="3.5" cy="3.70000076" r="0.5"></circle>
                    <circle id="Oval-1101-Copy-4" cx="2" cy="4.5" r="0.5"></circle>
                    <circle id="Oval-1101-Copy-5" cx="0.5" cy="5.29999924" r="0.5"></circle>
                </g>
                <g id="Group" transform="translate(4.000000, 3.000000) scale(-1, 1) translate(-4.000000, -3.000000) " sketch:type="MSShapeGroup">
                    <circle id="Oval-1101" cx="6.90000153" cy="0.5" r="0.5"></circle>
                    <circle id="Oval-1101-Copy" cx="5.90000153" cy="1.79999924" r="0.5"></circle>
                    <circle id="Oval-1101-Copy-2" cx="4.79999924" cy="2.70000076" r="0.5"></circle>
                    <circle id="Oval-1101-Copy-3" cx="3.5" cy="3.70000076" r="0.5"></circle>
                    <circle id="Oval-1101-Copy-4" cx="2" cy="4.5" r="0.5"></circle>
                    <circle id="Oval-1101-Copy-5" cx="0.5" cy="5.29999924" r="0.5"></circle>
                </g>
            </g>
        </g>
    </g>
</svg>