<?xml version="1.0" encoding="utf-8"?>
<!-- Generator: Adobe Illustrator 18.1.1, SVG Export Plug-In . SVG Version: 6.00 Build 0)  -->
<!DOCTYPE svg PUBLIC "-//W3C//DTD SVG 1.1//EN" "http://www.w3.org/Graphics/SVG/1.1/DTD/svg11.dtd">
<svg version="1.1" id="Layer_1" xmlns="http://www.w3.org/2000/svg" xmlns:xlink="http://www.w3.org/1999/xlink" x="0px" y="0px"
	 viewBox="0 0 229.8 129.5" enable-background="new 0 0 229.8 129.5" xml:space="preserve">
<g>
	<path d="M35.3,87.6c1-0.7,1.8-1.4,2.7-2c1.6-1.2,3.2-2.3,4.9-3.4c0.3-0.2,0.6-0.5,0.9-0.7c0.4-0.2,0.7-0.6,1.2,0
		c0.1,0.1,0.4,0.1,0.6,0.1c0.8-0.2,1.4,0.2,1.7,0.9c0.5,1.4,1.1,2.9,1.5,4.3c0.4,1.7,1.2,3.3,1,5.1c-0.2,1.9,0,3.9,0,5.8
		c0,1.9,0.1,3.7-0.1,5.6c-0.1,1.9-0.6,3.7-0.6,5.6c-0.1,2.4,0.1,4.9,0.1,7.3c0,0.1,0.1,0.3,0.2,0.7c0.7-0.9,1.3-1.7,1.8-2.5
		c1.6-3.1,3.2-6.2,4.8-9.3c1-2,1.8-4.2,2.4-6.4c0.6-2,1.5-4,2.2-6c0.2-0.7,0.4-1.4,0.5-2.1c-0.6-0.4-1.1-0.9-1.7-1.3
		c-1.1-0.7-1.8-1.8-1.7-3.1c0.1-1.4,0-2.9,1-4.1c0.9-1.1,2.8-2.1,4.2-1.7c1,0.3,1.5,0.9,1.3,2c-0.1,1-0.2,1.9-0.4,2.9
		c-0.1,0.9-0.3,1.9-0.5,2.8c0,0.2,0,0.5,0,0.8c0.2,0,0.5,0,0.7-0.1c2.2-0.7,4.4-1.5,6.6-2.2c0.7-0.2,1.4-0.4,2.1-0.5
		c1.1-0.1,2.9,1,3,2.1c0.1,1.1,0.4,2.1,0.5,3.2c0.1,1.4,0.3,2.9,0.1,4.3c-0.1,1.3-0.7,2.5-1,3.8c-0.3,1.1-0.4,2.2-0.6,3.3
		c0,0.2,0,0.4-0.1,0.5c-0.4,1.4-0.9,2.8-1.3,4.3c-0.1,0.4-0.5,0.8-0.6,1.3c-0.3,1.1-0.5,2.2-0.8,3.4c-0.1,0.3-0.2,0.5-0.3,0.8
		c-0.3,1.6-0.6,3.2-0.8,4.8c1.9-1,3.4-2.2,4.6-3.8c1.4-1.8,2.8-3.6,4.2-5.5c0.9-1.3,1.7-2.6,2.5-4c0.9-1.5,1.6-3.2,2.6-4.7
		c1.6-2.5,2.8-5.3,4.1-7.9c0.7-1.5,1.1-3,1.7-4.6c0.3-0.9,0.8-1.7,1.3-2.5c0.3-0.5,1.3-0.3,1.6,0.3c0.6,1,1.1,2,1.7,3
		c0.4,0.7,0.4,1.2,0,2c-0.9,1.5-1.4,3.2-2.2,4.9c-0.1,0.2-0.2,0.4-0.3,0.6c-1,1.6-1.3,3.5-1.7,5.3c-0.1,0.5-0.3,1-0.5,1.5
		c-0.6,1.5-0.9,3.1-0.7,4.7c0.1,1.2-0.1,2.4,0,3.6c0,0.8,0.1,1.6,0.4,2.4c0.2,0.5,0.8,0.9,1.2,1.3c0.2,0.2,0.6,0.4,0.7,0.6
		c0.4,0.8,1.1,0.8,1.7,0.5c2.1-1.2,4.2-2.4,6.2-3.7c1.8-1.1,3.1-2.7,4.2-4.5c0.9-1.4,2.1-2.6,3.1-3.9c0.1-0.1,0.2-0.2,0.3-0.3
		c1.2-1.2,1-2.7,0.6-4.1c-0.4-1.4-0.8-2.8-1.1-4.2c-0.2-1.2-0.5-2.5-0.3-3.6c0.3-1.6,0.2-3.4,1.2-4.9c0.2-0.3,0.4-0.7,0.4-1.1
		c0.5-2.5,3.4-2.5,5-1.4c1.3,1,1.7,2.4,1.8,4c0.1,0.9,0.1,1.9-0.1,2.8c-0.2,1.1-0.8,2.1-0.8,3.2c0,1.4-0.9,2.4-1.2,3.6
		c-0.1,0.7-0.2,1.5,0.2,2.1c0.8,1.4,1,2.9,1.5,4.3c0.6,1.5,1,3.1,1.5,4.6c0.1,0.2,0,0.4,0,0.6l0.2,0.1c0.6-0.8,1.3-1.6,1.9-2.5
		c0.9-1.3,1.8-2.6,2.6-4c0.8-1.4,1.5-2.9,2.3-4.3c0.9-1.5,1.9-3,2.6-4.5c0.7-1.5,1-3.1,1.4-4.6c0.2-0.8,0.4-1.7,0.4-2.5
		c0.1-1.5,0.1-3.1,0.2-4.6c0.1-1.3,0.3-2.5,0.3-3.8c0.1-1.2,0.1-2.4,0-3.6c0-0.6-0.4-0.7-0.9-0.4c-2,1.4-4.3,1.9-6.6,2.5
		c-0.2,0.1-0.3,0.1-0.5,0.2c-2.1,1.4-4.4,2.1-6.9,2.5c-1.6,0.3-3.2,0.5-4.8,0.8c-1.7,0.3-3.4,0.7-5.1,0.9c-1.2,0.1-2.4,0.1-3.6,0
		c-1.4-0.1-2.7-0.4-4.2-0.3c-1.1,0.1-2.1-0.2-3.2-0.4c-0.1,0-0.3-0.1-0.4-0.2c-0.9-1.2-2.3-0.8-3.5-1c-1.5-0.3-3-0.6-4.4-1.1
		c-1.9-0.7-3.7-1.5-5.5-2.2c-0.2-0.1-0.3-0.1-0.5-0.1c-3.7-0.1-5-1.5-6.3-4.7c-0.8-1.9-1.4-3.9-1.3-5.9c0.1-2.7,0.1-5.5,1.7-7.7
		c1.3-1.9,3.2-3.3,5.5-3.9c1.2-0.3,2.3-0.3,3.5,0c0.6,0.2,0.9,0.4,0.7,0.9c-1.4,0.4-2.8,0.7-4.1,1.3c-1.5,0.7-2.8,1.9-3.4,3.6
		c-0.4,1.2-0.6,2.4-0.6,3.7c0,2.1,0.5,4.1,1.1,6.1c0.2,0.8,0.9,1.3,1.6,1.6c5.1,2.4,10.3,4.2,15.9,4.9c2.3,0.3,4.5,0.6,6.8,0.6
		c1.7,0,3.3-0.3,5-0.5c1.3-0.1,2.7-0.2,4-0.4c1.6-0.3,3.3-0.6,4.9-0.9c0.8-0.1,1.6-0.3,2.4-0.5c1.6-0.4,3.2-0.8,4.8-1.2
		c1.6-0.4,3.3-0.9,4.9-1.3c0.2-0.1,0.5-0.1,0.7-0.2c0.7-0.3,1.5-0.6,2.1-1c0.3-0.2,0.6-0.6,0.7-0.9c0.2-0.9,0.3-1.8,0.3-2.7
		c-0.1-1.4,0.2-2.6,0.3-4c0.1-1.8,0.3-3.6,0.5-5.4c0.1-1,0.1-2.1,0.1-3.1c0-0.4-0.3-1.2,0.4-1.2c0.5,0,1.3,0.4,1.5,0.8
		c0.9,2,1.8,4,2.4,6.1c0.3,1.2,0.2,2.7,0.2,4c0,1.2-0.1,2.4-0.2,3.7c0.6-0.1,0.9-0.2,1.2-0.3c2.8-1.3,5.5-2.6,8.3-3.9
		c2.3-1.1,4.5-2.2,6.8-3.1c2.5-0.9,5.1-1.4,7.6-2.3c2.5-0.9,5.1-1.2,7.8-1.3c2.7,0,5.2,0.6,7.7,1.8c1.5,0.7,2.9,1.4,4,2.7
		c2,2.4,3.8,4.9,4.2,8.1c0.3,1.9,0,3.8-0.4,5.7c-0.1,0.4-0.1,1-0.9,0.9c0.2-0.7,0.5-1.4,0.5-2.1c0.3-2.3,0.5-4.7-0.7-6.8
		c-1.1-2-2.3-4-4-5.5c-1.4-1.3-3.4-1.9-5.2-2.6c-1.3-0.5-2.8-0.5-4.2-0.6c-2-0.2-4,0.2-5.9,0.6c-2.5,0.6-5,1.3-7.4,2.2
		c-2.1,0.7-4.2,1.5-6.1,2.7c-2.3,1.5-4.8,2.6-7.2,4c-0.9,0.5-1.8,1.2-2.7,1.7c-0.5,0.3-0.9,0.5-1.4,0.7c-1.1,0.4-1.4,0.9-1.4,2.1
		c0,1.1-0.1,2.1-0.2,3.2c0,0.9-0.1,1.8-0.1,2.7c-0.1,1.5-0.2,3.1-0.2,4.6c-0.1,2.1,0,4.3-0.1,6.5c-0.1,2.5-0.4,4.9-0.5,7.4
		c-0.1,1.1,0,2.1-0.1,3.2c-0.1,1.3-0.5,2.7-0.5,4c0,1,0.3,1.9,0.5,2.9c0.1,0.3,0.1,0.7,0.1,1c0,0.5,0,1.1,0,1.6
		c0.1,0.1,0.2,0.1,0.3,0.2c0.9-0.8,1.9-1.6,2.8-2.6c1.3-1.5,2.5-3.2,3.8-4.8c0.7-0.9,1.6-1.6,2.2-2.5c0.5-0.6,0.9-1.3,0.6-2.2
		c-0.1-0.3,0-0.8,0.2-1.2c0.6-1.4,0.1-2.8,0.2-4.2c0.1-1.5,0.4-2.9,0.5-4.4c0.1-1,0-2,0.2-2.9c0.4-2.5,0.9-5,1.2-7.6
		c0.2-1.2,0.3-2.5,0.9-3.6c0.4-0.7,1.4-1.2,2.4-1.1c0.9,0.1,1.3,0.6,1.7,1.4c0.8,1.6,0.3,3.3,0.2,4.9c-0.2,2-0.5,3.9-0.8,5.9
		c-0.1,0.7-0.4,1.4-0.6,2c-0.1,0.4-0.2,0.8-0.4,1.5c0.3-0.2,0.4-0.3,0.4-0.3c0.8-2.2,2.6-3.4,4.3-4.8c0.6-0.5,1.2-1.2,1.8-1.7
		c0.8-0.7,1.6-1.5,2.8-1.7c0.8-0.1,1.6-0.7,2.4-1c1.8-0.7,3-0.3,3.3,1.8c0.2,1.6,0.3,3.1,0.5,4.7c0.1,1,0.1,1.9,0.3,2.9
		c0.1,0.7,0.5,1.3,0.8,2.1c0.3-0.3,0.6-0.6,0.9-0.9c1.2-1.9,3-2.8,5-3.6c0.2-0.1,0.5-0.1,0.8-0.3c1.5-1,3.5,0.7,3.5,2.3
		c0,1,0.5,2,0.7,3c0.1,0.5,0,1,0,1.5c0,0.9-0.1,1.7-0.1,2.6c0,2.3-0.3,4.5-0.9,6.7c-0.3,1.1,0,2.3-0.1,3.5c-0.1,1.2,0.4,2.3-0.1,3.5
		c-0.3,0.6,0,1.4,0,2.4c0.6-0.5,1.1-0.8,1.4-1.2c1.7-2.2,3.5-4.3,4.6-6.9c0.5-1.4,0.7-2.9,1-4.3c0.3-1.4,0.6-2.7,0.9-4.1
		c0.2-0.9,0.5-1.9,0.9-2.7c1.1-2,2.2-4,3.4-6c0.6-0.9,1.1-1.9,1.8-2.8c0.4-0.5,0.9-1,1.4-1.5c0.7-0.6,1.4-0.7,2.2-0.2
		c0.5,0.3,1.2,0.2,1.6,0.5c1.6,1.1,3.2,2.3,3.7,4.3c0.2,0.7,0.6,1.4,1.2,1.9c0.3,0.2,0.4,0.8,0.5,1.3c0,1.1,0.2,2.2-0.1,3.2
		c-0.7,2.1-1.4,4.1-2.4,6.1c-1.2,2.1-1.9,4.4-1.3,7c0.2,1.1,0,2.3,0,3.4c0,0.8,0.2,1.5,0.4,2.3c0,0.1,0.5,0.3,0.7,0.2
		c1.7-0.3,3.2-1,4.4-2.4c3.4-4,6.1-8.5,8.8-13.1c1-1.7,0.2-2.9-0.3-4.2c-0.9-2.5-1.6-5-1.3-7.6c0.1-1.2,0.8-2.3,1.2-3.4
		c0.3-0.9,0.8-1.6,1.6-2.1c0.6-0.3,1.1-0.6,1.8-0.2c0.6,0.3,1.3,0.3,2,0.5c0.7,0.3,1.2,0.7,1.3,1.6c0.1,1.4,0.5,2.7,0.6,4.1
		c0.2,1.6-0.4,3.1-0.9,4.6c-0.3,1.1-0.8,2.1-1.2,3.1c-0.1,0.3,0,0.7,0.2,1c0.8,1.3,1.3,2.8,2.2,4c1,1.3,1.3,3.2,1.9,4.8
		c0.1,0.3,0.2,0.7,0.4,1.1c3.4-1.7,7.1-2.4,10.8-2.6c0,0.1,0,0.2,0.1,0.3c-0.6,0.1-1.2,0.3-1.8,0.4c-2.6,0.3-5.1,1.1-7.3,2.6
		c-1.1,0.7-1,0.7-0.7,1.9c0.8,2.9,1.6,5.8,2.3,8.7c0.5,1.9,0.8,3.9,1,5.8c0.1,1.3-0.3,2.7-1.3,3.7c-1.1,1.1-2.4,1.1-3.7,1.1
		c-1,0-1.9,0.1-2.9,0.2c-0.9,0.1-1.7,0.3-2.5,0.4c-0.6,0.1-1.2,0.4-1.8,0c-0.3-0.3-0.6-0.5-0.8-0.9c-0.4-0.7-0.5-1.5-0.9-2.2
		c-0.8-1.3-0.7-2.8-0.5-4.1c0.4-2.5,1.2-4.9,2.6-7c0.9-1.4,1.7-2.8,2.7-4.1c0.7-0.9,0.4-1.6,0.1-2.4c-0.8-2.1-1.6-4.2-2.5-6.3
		c-0.1-0.2-0.3-0.3-0.4-0.4c-0.2,0.2-0.4,0.3-0.5,0.5c-0.3,0.7-0.6,1.4-0.9,2.1c-0.4,0.8-0.8,1.6-1.1,2.4c-1.1,2.8-2.9,5.2-4.8,7.4
		c-0.4,0.5-1.1,0.9-1.6,1.3c-0.8,0.5-1.5,1-2.3,1.5c-2.3,1.5-5.1,0.8-6.9-1.7c-0.4-0.6-0.7-1.4-1.2-2.2c-0.1,0.3-0.2,0.5-0.4,0.7
		c-0.8,1.1-0.8,2.6-2.1,3.5c-3.3,2-6.7,0.8-8.5-2.2c-0.6-0.9-0.7-2.2-1-3.3c0-0.2-0.1-0.3-0.2-0.8c-0.1,0.3-0.2,0.4-0.2,0.5
		c-0.5,1.2-1,2.5-1.7,3.7c-0.5,0.8-1.3,1.4-2.1,1.9c-0.4,0.2-0.8,0.2-0.9,0.7c-0.1,0.4-0.5,0.8-0.9,1.4c-1.2-1.2-2.2-2.2-3.1-3.2
		c-1-1.1-1.3-2.6-1.5-4c-0.5-2.9,0.2-5.8,0.7-8.6c0.5-3,1.6-5.8,2.3-8.7c0.3-1.1,0.5-2.1,0.7-3.2c0.1-0.5-0.1-1.1-0.2-1.6
		c0-0.1-0.5-0.3-0.7-0.2c-0.4,0.2-0.7,0.5-1,0.7c-0.5,0.3-0.8,0.9-1.6,0.8c-0.3,0-0.6,0.4-0.9,0.7c-0.6,0.6-1.1,1.2-1.7,1.7
		c-1.7,1.9-2.8,3.9-1.9,6.6c0,0.1,0.1,0.2,0.1,0.4c-0.2,1.6-0.4,3.3-0.6,4.9c-0.1,0.9-0.2,1.9-0.4,2.8c-0.1,0.6-0.3,1.3-0.4,1.9
		c-0.1,0.4-0.1,0.8-0.1,1.2c-0.1,1.4-0.1,2.9-0.3,4.3c-0.1,1.1-1.1,1.7-2.2,1.7c-1.1,0-2-0.3-2.5-1.5c-0.2-0.6-0.8-1.1-1.1-1.6
		c-0.6-1.2-0.4-2.4-0.1-3.6c0.3-1.1,0.7-2.2,0.7-3.2c0-3.3,1-6.5,1.2-9.8c0.2-2.9,0.8-5.8,1.2-8.8c0.2-1.5,0.5-3,0.7-4.5
		c0-0.4-0.1-0.8-0.2-1.3c-1.5,0.6-2.9,1.1-4.2,1.7c-0.5,0.2-0.8,0.8-1.1,1.2c-0.4,0.5-0.7,0.9-1.2,1.3c-1.4,1.2-2.6,2.6-3.9,4
		c-0.4,0.5-0.9,1-1.3,1.4c-0.7,0.7-1,1.6-0.9,2.6c0,1,0.1,2,0.2,3c0.2,2,0.5,4,0.6,5.9c0,0.5-0.2,1-0.2,1.6c-0.1,1.5,0,2.9-0.1,4.4
		c-0.1,1.2-0.4,2.4-0.5,3.7c-0.1,0.5,0,1-0.1,1.5c-0.1,1.1-0.2,2.2-1,3.1c-0.2,0.2-0.4,0.3-0.7,0.4c-1.5,0.2-3.1-0.7-3.8-2
		c-0.1-0.2-0.1-0.4-0.3-0.5c-1.2-0.8-1-1.9-0.9-3.1c0.3-2.5,0.5-5,0.8-7.5c0-0.4,0.1-0.8,0.2-1.1c0-0.3,0-0.5,0-0.9
		c-0.3,0.2-0.4,0.2-0.5,0.3c-0.6,1.2-1.2,2.4-2,3.5c-0.9,1.2-1.5,2.6-2.5,3.6c-1.1,1.1-1.9,2.4-3,3.5c-2.1,2.1-5.1,1.6-6.3-1.2
		c-0.4-1-0.9-2.1-1.3-3.1c-0.2-0.5-0.1-1-0.2-1.5c-0.6-1.6-0.5-3.2-0.5-4.8c-0.1-1.3,0.2-2.6,0.4-3.9c0.1-0.8,0.1-1.5,0.2-2.6
		c-0.2,0.4-0.4,0.6-0.5,0.9c-0.5,1.2-0.9,2.5-1.4,3.7c-0.7,1.4-1.6,2.7-2.4,4c-0.8,1.4-1.6,2.8-2.5,4.2c-0.9,1.4-1.9,2.7-2.8,4
		c-0.2,0.3-0.4,0.8-0.4,1.2c0,1.4,0.2,2.8,0.2,4.2c0,0.5-0.1,0.9-0.2,1.4c-0.5,1.6-0.9,3.3-1.4,4.9c-0.7,2.1-1.6,4.1-3.2,5.7
		c-1,1-3.1,0.9-4.3,0.2c-1.1-0.6-1.6-1.5-2-2.6c-0.1-0.3-0.1-0.6-0.1-0.9c0-0.3,0.1-0.6,0-0.8c-0.8-1.6,0.1-3,0.7-4.3
		c1-2.4,2.8-4.3,4.6-6.2c0.7-0.7,0.9-1.7,0.5-2.6c-0.7-1.7-1.2-3.5-1.9-5.2c-0.3-0.8-0.6-1.7-1-2.6c-1.2,1.4-2.6,2.6-3.4,4.4
		c-0.3,0.8-0.9,1.5-1.6,2.1c-1.5,1.4-3.1,2.7-4.8,3.8c-1,0.6-1.6,1.6-2.6,2.2c-0.4,0.2-0.9,0.4-1.4,0.6c-0.5,0.2-0.9,0.4-1.2,1
		c-0.1,0.4-0.9,0.6-1.3,0.8c-0.3,0.1-0.7,0.1-1.1,0.2c-1,0.4-2,0.2-2.7-0.3c-1.8-1.3-3.1-2.9-3.8-5.2c-0.4-1.4-0.9-2.7-0.9-4.1
		c0-2.1,0.3-4.2,0.5-6.3c0.1-0.7,0.3-1.5,0.2-2.4c-0.2,0.2-0.4,0.4-0.5,0.7c-0.5,1.1-0.8,2.2-1.3,3.3c-0.4,0.9-1.1,1.6-1.4,2.5
		c-0.8,1.9-2.2,3.4-3.2,5.1c-0.8,1.3-1.7,2.4-2.6,3.6c-0.9,1.1-1.8,2.3-2.8,3.4c-0.4,0.5-1,0.8-1.5,1.2c-0.4,0.3-1,0.3-0.9,1
		c0,0.1-0.4,0.3-0.7,0.3c-0.7,0-1.4-0.1-2.1-0.3c-0.3-0.1-0.7-0.5-0.9-0.8c-0.3-0.5-0.6-1.1-0.9-1.7c-0.3-0.7-0.8-1.3-0.9-2
		c-0.1-1.3,0.1-2.7-0.1-4.1c-0.1-1.5,0.6-2.7,0.8-4c0.2-1.3,0.6-2.6,0.9-3.9c0.4-1.3,0.9-2.6,1.4-3.9c0.7-1.7,1.3-3.5,2-5.2
		c0.8-2,1.5-4,2.3-6.1c0.1-0.3,0.2-0.6,0.2-0.8c0-0.2-0.3-0.5-0.4-0.5c-0.5,0.1-1,0.3-1.5,0.5c-1.6,0.7-3.2,1.4-4.8,2
		c-0.8,0.3-1.7,0.3-2.5,0.3c-0.5,0-0.8,0.1-0.9,0.6c-0.3,1.2-0.7,2.4-1.1,3.5c-0.7,1.9-1.4,3.8-2.1,5.6c-0.5,1.3-0.9,2.7-1.4,4
		c-0.1,0.4-0.4,0.7-0.5,1c-0.4,1.2-0.8,2.4-1.3,3.6l0,0.2c-1.1,1.6-1.3,3.6-2,5.4c-0.3,0.8-1.1,1.5-1.7,2.2
		c-0.5,0.7-1.4,1.1-1.4,2.1c0,0.1-0.1,0.3-0.1,0.4c-0.4,0.6-0.7,1.2-1.1,1.8c-0.6,0.9-1.5,0.5-2.3,0.5c-1.4,0-1.9-1.1-2.6-2.1
		c-1.5-2.2-1.8-4.7-2.1-7.2c-0.3-2.2-0.2-4.4,0-6.6c0.1-1.9,0.5-3.8,0.8-5.7c0.2-1.5,0.2-2.9,0.5-4.4c0.3-1.4,0.4-2.8,0.5-4.2
		c0.2-1.9,0.4-3.7,0.5-5.6c0.1-1,0-2-0.1-2.9c0-0.1-0.4-0.4-0.7-0.4c-0.2,0-0.5,0.2-0.7,0.4c-1.2,0.9-2.3,1.8-3.5,2.7
		c-0.7,0.5-1.4,0.8-2,1.3c-0.6,0.5-1.1,1-1.6,1.6c-0.3,0.2-0.5,0.6-0.8,0.7c-1.1,0.6-1.3,1.6-1.3,2.7c0,0.8-0.2,1.5-0.3,2.3
		c-0.1,1-0.2,2-0.3,2.9c-0.1,1.3-0.3,2.7-0.4,4c-0.2,1.7-0.4,3.5-0.5,5.2c-0.2,2.9-0.5,5.8-0.7,8.6c-0.2,1.9-0.3,3.7-0.5,5.5
		c-0.1,0.8-0.3,1.6-0.5,2.4c-0.1,0.5-1.1,0.8-1.6,0.7c-0.4-0.1-1,0.1-1.3-0.1c-0.7-0.5-1.7-0.7-2-1.7c-0.3-1-0.7-1.9-1-2.9
		c-0.1-0.5-0.2-1-0.2-1.5c0.3-2.4,0.8-4.8,1.1-7.2c0.3-2.3,0.3-4.6,0.4-6.8c0.1-0.8,0.2-1.6,0.1-2.5c-0.3,0.3-0.6,0.6-0.7,0.9
		c-0.5,1.1-1,2.2-1.5,3.2c-0.4,0.8-0.9,1.5-1.3,2.3c-0.7,1.3-1.5,2.6-2.2,3.9c-1.1,2.2-2.4,4.2-4.2,5.9c-0.9,1-2.1,1.9-2.6,3.1
		c-0.5,1.2-1.6,1.3-2.2,2.1c-0.3,0.4-1.3,0.3-1.9,0.3c-0.9,0-1.7-0.2-2.6-0.4c-0.7-0.2-1.3-0.5-1.8-1c-1-1-1.8-2.1-2.8-3.2
		c-1.1-1.2-0.9-2.7-1.3-4.1c-0.4-1.6-0.8-3.2-1-4.8C0.3,108,0,106.1,0,104.2c0-1.5-0.1-3.1,0.4-4.7c0.5-1.4,0.4-3,0.6-4.5
		c0.3-2,0.7-4,1.2-5.9c0.6-2.2,1.6-4.3,2.2-6.4c0.8-2.7,2.4-4.9,3.9-7.3c0.9-1.3,1.8-2.4,3-3.5c1-0.9,2.7-1.4,3.7-0.7l0.2,0.2
		c0.4,0.4,0.8,1,1.1,1c0.4,0,0.8-0.6,1.2-1c0.7-0.6,1.4-1.3,2.1-1.8c1-0.7,2.1-1.4,3.4-1.5c0.6,0,1.2-0.1,1.8-0.2l0.1,0.2
		c-0.2,0.1-0.3,0.2-0.5,0.3c-1.1,0.7-2.3,1.3-3.4,2c-0.7,0.4-1.2,1.1-1.8,1.6c-0.4,0.4-0.8,0.8-1.3,1.1c-0.8,0.7-0.8,1.1-0.4,2
		c1,2,0.8,4.4-0.7,6.1c-0.9,1-2.2,1.3-3.3,0.6c-0.9-0.5-1-1.4-0.9-2.3c0.2-2.2,1.1-4.2,2.6-5.9c-0.3-0.5-0.6-0.9-0.9-1.4
		c-0.2,0.2-0.5,0.4-0.4,0.6c0.1,1.1-0.5,1.7-1,2.6c-0.6,1-0.9,2.2-1.3,3.3c-0.5,1.4-1.1,2.9-1.6,4.3c-0.2,0.6-0.5,1.2-0.8,1.8
		c-0.1,0.1-0.1,0.3,0,0.4c0.6,1-0.2,1.8-0.4,2.7c-0.4,1.6-0.8,3.2-1.1,4.8c-0.2,1-0.3,2.1-0.5,3.1c-0.1,0.7-0.3,1.3-0.3,2
		c-0.2,1.7-0.3,3.5-0.4,5.2c-0.1,1.9-0.1,3.9-0.2,5.8c0,0.5-0.1,1.1-0.1,1.6c0.3,1.8,0.7,3.6,1.1,5.5c0.1,0.3,0,0.6,0,0.9
		c0.1,0.7,1.5,2.4,2.2,2.5c0.4,0,0.9-0.2,1.3-0.4c1.8-0.9,3.2-2.4,4.6-3.8c2.1-2.1,3.4-4.7,4.9-7.1c1.3-2,2.4-4.1,3.6-6.1
		c0.9-1.5,2-2.9,2.8-4.4c0.4-0.7,0.3-1.7,0.4-2.6c0.3-1.8,0.1-3.8,0.9-5.5c0.2-0.5,0.2-1.1,0.3-1.7c0.2-1.3,0.3-2.7,0.6-4
		c0.4-2.1,0.8-4.2,1.2-6.4c0.2-1.3,0.4-2.6,0.6-3.8l0-0.3c0.4-1.4,0.7-2.7,1.1-4.1l0-0.2c-0.5-1.9,0.2-3.7,0.7-5.5
		c0.7-2.2,1.5-4.5,2.4-6.6c0.7-1.7,1.5-3.4,2.4-4.9c0.8-1.2,1.8-2.3,3.4-2.5c0.4,0,1,0,1.2,0.3c1,1,1.7,2.2,1.8,3.7
		c0,1.6,0.3,3.1,0.3,4.7c0,0.9-0.3,1.9-0.6,2.8c-0.1,0.6-0.4,1.2-0.5,1.8c-0.4,2.5-1.6,4.8-2,7.3c-0.1,0.4-0.4,0.8-0.5,1.2
		c-0.4,1.1-0.8,2.2-1.2,3.3c-0.5,1.5-1.1,3.1-1.7,4.6c-0.5,1.3-1.2,2.6-1.7,3.9c-0.3,0.8-0.4,1.7-0.6,2.6
		C35.5,86.3,35.4,86.8,35.3,87.6z M196.9,89.1c-0.2-0.4-0.6-0.7-0.6-1c-0.1-1.6-1.2-2.5-2.1-3.7c-0.9-1.2-2-0.8-2.8,0.1
		c-0.6,0.7-0.7,1.5-0.9,2.3c-0.4,1.6-1,3.1-1.5,4.6c-0.1,0.4-0.3,0.8-0.5,1.3c-0.2,0.8-0.4,1.6-0.6,2.3c-0.2,0.6-0.5,1.2-0.5,1.8
		c-0.1,1.2,0,2.5-0.2,3.7c-0.5,3-1.1,6.1-1.6,9.1c-0.1,0.5,0.2,0.7,0.6,0.5c0.2-0.1,0.4-0.2,0.6-0.4c1.4-1.8,2.9-3.5,4.3-5.3
		c0.4-0.5,0.7-1.2,0.9-1.8c0.4-1.3,0.7-2.7,1-4c0.3-1.1,0.6-2.3,1-3.4c0.4-1.1,0.9-2.1,1.4-3.1C195.9,91.2,196.4,90.2,196.9,89.1z
		 M35.8,79.7c0.1,0,0.2,0.1,0.3,0.1c0.1-0.2,0.3-0.4,0.3-0.6c0.7-2,1.5-4.1,2.2-6.1c0.5-1.4,1.1-2.8,1.5-4.2
		c0.8-2.8,1.7-5.7,2.1-8.6c0.4-2.4,0.3-4.9,0.2-7.3c0-0.7-0.5-1.5-0.9-2.2c-0.3-0.5-0.6-0.4-0.9,0c-0.3,0.5-0.7,1-0.9,1.5
		c-0.7,1.3-1.5,2.6-2,4c-0.5,1.7-0.8,3.5-1,5.3c-0.3,3.3-0.7,6.6-0.3,10c0.2,1.7-0.3,3.5-0.4,5.3C36,77.8,35.9,78.7,35.8,79.7z
		 M215.3,109.3c-0.4,0.6-0.8,0.9-1,1.3c-1,1.8-2,3.6-3.1,5.3c-1.1,1.8-1.6,3.8-1.2,5.7c0.3,1.9,1.3,2.9,3.5,1.9
		c0.4-0.2,0.8-0.2,1.1-0.4c1.2-0.8,2.3-1.7,2.6-3.3c0.3-2.1,0-4-0.7-6c-0.3-0.9-0.4-2-0.7-3C215.7,110.5,215.5,110,215.3,109.3z
		 M113.8,120.5c-0.2-1-0.7-2.8-1.2-4.7c-0.1-0.5-0.5-0.3-0.8,0c-0.6,0.6-1.2,1.1-1.7,1.7c-0.5,0.5-1,0.9-1.4,1.5
		c-0.4,0.6-0.9,1.3-1.1,2c-0.4,1-1.1,1.9-0.9,3c0.1,0.8,0.4,1.6,0.5,2.4c0.2,1,0.9,1.6,1.6,1.9c0.5,0.2,1.1-0.1,1.7-0.3
		c0.3-0.1,0.6-0.4,0.8-0.4c0.8,0.2,0.9-0.3,1.1-0.8C113.2,125.1,113.7,123.3,113.8,120.5z M212.1,90.6c1.2-3.1,2.1-6,1.9-9.2
		c-0.1-1-0.5-1.4-1.2-1.5c-0.5,0.4-0.9,0.6-1.3,1c-0.3,0.2-0.6,0.5-0.8,0.9c-1.4,2.8-0.5,5.5,0.6,8.1
		C211.4,90.1,211.7,90.3,212.1,90.6z M111.3,96.2c0.1,0,0.3,0,0.4,0c0.4-1.3,0.9-2.5,1.2-3.8c0.3-1.4,0.5-2.9,0.5-4.4
		c0-1.2-0.2-2.4-1.2-3.2c-0.2-0.1-0.6-0.2-0.7-0.2c-1.1,1.1-1.9,2.2-1.6,3.8c0.2,1.7,0,3.4,0.6,5C110.7,94.3,111,95.2,111.3,96.2z
		 M61.5,88.7c0.1-0.2,0.1-0.3,0.2-0.5c0.4-2,0.8-4,1.2-6c0-0.2-0.3-0.7-0.6-0.8c-1-0.4-2.1,0.2-2.5,1.5c-0.3,0.9-0.2,2-0.4,2.9
		C59.2,87.1,60.1,88.4,61.5,88.7z M148.6,74.1c-2,2.5-1.7,8.3-0.8,10c0.1-0.1,0.1-0.2,0.1-0.3c1.1-2.4,1.1-5,1.3-7.5
		C149.3,75.5,148.8,74.8,148.6,74.1z M16.2,75.5c-1,1.3-1.8,2.7-2,4.4c-0.1,0.8,0.4,1.1,1.1,0.7c0.4-0.2,0.8-0.7,1-1.1
		C16.9,78.4,17.3,76.9,16.2,75.5z M195.9,97.6c1-1.8,2.2-3.2,2-5.2C197.2,92.8,195.8,96.1,195.9,97.6z M50.6,117.3
		c1.3-0.5,2.6-2.1,2.5-3.5C52.3,114.9,51.5,116,50.6,117.3z"/>
	<path d="M128,7.2c-0.3,0.9-0.6,1.9-0.9,2.8c-0.3,1.3-0.7,2.7-0.9,4c-0.3,1.8-0.6,3.7-0.8,5.5c0,0.3,0,0.6,0.2,0.9
		c0.4,0.8,0,1.5-0.8,1.6c-0.8,0.2-1.5-0.1-2.2-0.7c-1-0.9-1.4-2-1.8-3.2c-1.1-3-2.1-6.2-4.4-8.6c-0.1-0.1-0.2-0.1-0.5-0.4
		c0,0.7,0,1.1,0.1,1.6c0.4,2.3,0.9,4.7,1.3,7c0.4,2.3,0.6,4.6,0.8,6.9c0.4,3.5,0.8,7.1,1.2,10.6c0.2,2,0.4,4,0.7,6
		c0,0.3,0.1,0.5,0.2,0.8c0.4,1.4,0.2,2.5-1,3.4c-0.4,0.3-1.5,0.1-2.2-0.3c-1-0.5-1.2-1.4-1.3-2.4c-0.3-2.6-0.5-5.3-0.8-7.9
		c0-0.2,0.1-0.5,0.2-0.7c0.1-0.2,0.3-0.4,0.2-0.5c-0.6-0.6-0.2-1.3-0.1-1.9c0-0.5,0.1-1-0.6-1.1c-0.1,0-0.2-0.3-0.2-0.5
		c-0.2-2.2-0.4-4.5-0.7-6.7c-0.1-1.6-0.2-3.1-0.4-4.7c-0.3-2-0.7-4-1-6.1c-0.4-2.6-0.8-5.1-1.2-7.7c-0.1-0.5-0.3-1-0.4-1.5
		c0.3-0.1,0.7-0.3,0-0.7c1.9-0.3,3.4-0.1,4.5,1.4c2,2.7,4.1,5.3,6.1,7.9c0.3,0.4,0.7,0.7,1,1.1c0.2-0.4,0.3-0.7,0.5-1.1
		c0.5-1.5,0.9-3.1,1.5-4.6c0.7-1.7,1.6-3.3,2.5-4.9l0.1-0.1c0.3-0.6,0.3-1.4,1.4-1.5c1.2-0.1,2.4-0.1,3.3,0.8
		c0.3,0.3,0.5,0.9,0.5,1.3c0.4,2.7,0.8,5.5,1.3,8.2c0.4,2.5,1,4.9,1.4,7.3c0.2,1.4,0.3,2.9,0.4,4.4c0.2,1.6,0.3,3.2,0.6,4.8
		c0.5,2.5,1.1,4.9,1.6,7.4c0.5,2.3,1,4.6,1.4,6.9c0.2,1.2,0.5,2.3,0.7,3.5c-1.2,1.4-2.9,0.9-3.8-0.1l-0.1-0.1
		c-1.1-0.6-1-1.7-1.3-2.7c-0.1-0.5-0.2-1,0.2-1.4c0.2-0.2,0.1-0.7,0-1.1c0-0.1-0.4-0.2-0.6-0.2c-0.2-0.9-0.4-1.9-0.7-2.8
		c-0.2-0.6-0.4-1.2,0.1-1.8c0.2-0.3,0.2-0.9,0.1-1.4c-0.2-1.1-0.6-2.2-0.9-3.3c-0.3-1.7-0.6-3.5-0.8-5.2c-0.3-2.1-0.4-4.3-0.7-6.4
		c0-0.3-0.4-0.6-0.6-0.9c-0.1-0.2-0.3-0.5-0.3-0.8c-0.1-0.4-0.1-0.7-0.2-1.1c-0.4-1.9-0.7-3.7-1.1-5.6c-0.3-1.2-0.6-2.4-1-3.6
		L128,7.2z"/>
	<path d="M89,43.9c0.6-0.3,0.4-0.7,0.2-1.2c-0.5-1-0.9-2.1-1.4-3.1c-0.2-0.3-0.5-0.6-0.7-0.9c-0.2-0.2-0.3-0.5-0.4-0.8l0-0.3
		C85.1,36,85,33.6,84,31.6c-1-2.1-2-4.3-3-6.5c-0.7-1.4-1.3-2.9-2-4.3c-0.1-0.2-0.2-0.5-0.4-0.7c-0.3-0.2-0.6-0.3-0.9-0.2
		c-0.1,0-0.3,0.4-0.3,0.7c0.1,2.6,0.1,5.2,0.3,7.8c0.2,2.2,0.5,4.4,0.7,6.5c0.3,2.3,0.5,4.7,0.8,7c0.1,0.8,0.2,1.7,0.4,2.5
		c0.3,1.6,0.1,2-1.3,2.6c-0.8,0.3-1.5,0.5-2.4,0.7c-0.3-1.8-1.7-3.5-0.1-5.3l-0.2,0c-0.1,0.1-0.3,0.2-0.3,0.2
		c-0.2-0.4-0.4-0.7-0.5-1.1c-0.2-0.8-0.3-1.6-0.4-2.4c0-0.4,0-0.8,0.2-1.1c0.6-0.7,0.3-1.1-0.4-1.4c0-0.3,1.6-0.5,0.1-0.9
		c-0.1,0-0.1-0.4-0.2-0.7c0.3,0.1,0.5,0.2,0.7,0.3c0.1-0.2,0.2-0.4,0.2-0.5c-0.2-1.3-0.3-2.5-0.6-3.8c-0.1-0.3-0.3-0.6-0.6-0.9
		c-0.5-0.8,1.3-1.6-0.2-2.4c0.7-0.7,0.7-1.5,0.6-2.4c-0.1-1.1,0.1-2.2,0-3.3c-0.1-1-0.4-2-0.6-2.9c0-0.1-0.3-0.2-0.6-0.4
		c1.4-0.2,0.5-1.1,0.5-1.6c0-0.5-0.1-1.3-0.7-1.9c-0.4-0.3-0.3-1.2-0.4-1.9c-0.2-1.6-0.5-3.1-0.7-4.7C71.4,6.6,71.2,4.8,71,3
		c-0.1-1.4,0.2-1.7,1.6-1.8c1.2-0.1,2.2,0.2,2.7,1.5c0.7-0.1,1.4-0.1,2.1-0.2C79,2.2,80.5,2.3,82,2.5c0.9,0.1,1.8,0.2,2.6,0.7
		c1.1,0.8,1.6,1.9,2,3.1c0.6,2.2,0.3,4.4-0.5,6.4c-0.8,2.1-2,3.9-3.7,5.3c-0.4,0.3-0.3,0.6-0.1,1c0.5,0.8,1,1.6,1.4,2.5
		c1.6,3.5,3.1,7.1,4.6,10.6c1.2,2.9,2.3,5.8,3.6,8.7c0.9,2,1.9,4,2.8,6c0.3,0.7,0,1.4-0.8,1.6c-0.9,0.2-1.6,0-2.5-0.5
		c-1.3-0.8-1.5-2.1-2.1-3.3C89.2,44.6,89.1,44.3,89,43.9z M75.6,4.7c0,0.4-0.1,0.7,0,0.9c0.4,3.3,0.9,6.5,1.3,9.8
		c0.1,0.5,0.1,0.9,0.2,1.4c0.1,0.2,0.4,0.5,0.6,0.4c0.8-0.2,1.6-0.5,2.4-0.7c0.1-0.3,0.2-0.6,0.3-0.9c0.5-1,1.2-1.9,1.6-3
		c0.8-2.2,1-4.5,0.2-6.8c-0.5-1.5-1.1-1.9-2.7-1.7C78.1,4.3,76.9,4.5,75.6,4.7z"/>
	<path d="M159.6,44.1c-0.1-0.6-0.1-1-0.2-1.5c-0.2-1.1-0.3-2.2-0.6-3.3c-0.1-0.5-0.4-0.9-0.6-1.3c-0.1-0.1-0.2-0.2-0.2-0.4
		c-0.2-1-0.2-2.1-0.5-3.1c-0.1-0.4-0.5-0.8-0.9-1.2c0.4-0.7,0-3.1-0.7-3.8c-0.1-0.1-0.3-0.3-0.3-0.5c-0.2-0.9-0.4-1.9-0.7-2.8
		c-0.1-0.2-0.4-0.4-0.6-0.4c-1.9-0.1-3.9-0.2-5.8-0.3c-0.5,0-0.7,0.1-0.7,0.6c-0.1,1.7,0,3.4-0.4,5c-0.5,2.4-0.1,4.8-0.3,7.1
		c-0.2,2.9,0.4,5.8,0.3,8.7c0,0.6-0.1,0.8-0.7,1.1c-1.4,0.6-1.9,0.2-3.1-0.7c-1.2-0.9-0.4-2.1-0.9-3.1c0.8-0.7,0.1-1.6,0.3-2.4
		l0-0.2c0.9-0.7,0.4-1.8,0.7-2.7c0-0.2,0.2-0.3,0.1-0.4c-0.1-0.4-0.2-0.7-0.2-1.1c0.1-2.7,0.3-5.4,0.4-8.1c0-0.4,0.1-0.9,0.1-1.3
		c0-1.1,0-2.1,0-3.2c0-0.5,0.2-1,0.2-1.5c0-1.2,0-2.5-0.1-3.7c0-0.9,0-1.9-0.1-2.8c-0.1-0.6-0.7-1-0.6-1.7c0.1-1.9-0.1-3.9-0.1-5.9
		c-0.1-2.1-0.1-4.1-0.1-6.2c0-0.1,0.1-0.3,0.1-0.4c0.8-0.4,1.5-0.8,2.3-1.1c0.5-0.2,1.2-0.2,1.8,0c0.9,0.2,1.6,0.7,1.9,1.7
		c0.5,1.6,1.3,3.2,2,4.8c0.5,1.2,0.8,2.5,1.3,3.8c0.6,1.8,1.3,3.6,1.9,5.5c0.9,3,2.2,5.9,3.6,8.7c0.4,0.7,0.5,1.6,0.8,2.4
		c0.2,0.6,0.7,1.1,0.8,1.7c0.7,2.3,1.3,4.6,2,6.9c0.4,1.2,0.9,2.3,1.2,3.5c0.4,1.2,0.6,2.4,0.9,3.6c0.1,0.6-0.4,1.5-1.1,1.4
		c-0.7,0-1.4-0.3-2-0.6C160.3,44.8,159.9,44.3,159.6,44.1z M153.5,23.6c0-1.3-0.7-2.7-1.5-3c-0.2-0.9-0.3-1.6-0.6-2.3
		c-0.3-0.6,0.3-1.7-1-1.8l-0.1-0.2c-0.7-0.8-0.5-1.9-0.7-2.8c-0.1-0.7-0.2-1-0.8-1.3c-0.3-0.2-0.4-0.6-0.5-0.9
		c-0.1-0.2-0.2-0.3-0.3-0.5l-0.3,0.1c0,1.3,0,2.6,0,3.9c0,2.5,0.1,4.9,0.1,7.4c0,0.5,0.1,0.8,0.7,0.9
		C150.2,23.3,151.9,23.4,153.5,23.6z"/>
	<path d="M60.7,6.4c0.1-0.1,0.2-0.3,0.4-0.5C60.5,4.2,59.2,3.1,58,2c-0.5-0.4-0.9-0.2-1.1,0.2c-0.6,1-1.3,1.9-1.8,3
		c-1.4,2.9-1.6,6.1-1.7,9.3c-0.1,1.9-0.3,3.9-0.4,5.8c0,1.2,0.2,2.5,0.2,3.7c-0.2,3.4,0.2,6.7,0.6,10c0.3,2.7,1,5.4,1.8,8.1
		c0.3,1.1,1,2,1.7,3c0.7,0.9,1.4,1.7,2.2,2.5c0.6,0.6,1.4,0.6,2-0.1c0.5-0.6,0.9-1.3,1.3-2l0-0.1c1.2-0.3,0.6-1.6,1.1-2.3
		c0.2-0.2,0.1-0.6,0.3-0.8c0.2-0.2,0.5-0.4,0.6-0.7c0.3-0.7,0.4-1.5,0.6-2.3c0-0.2,0.1-0.5,0-0.6c-0.9-1.2-0.5-2.4-0.2-3.6
		c0-0.1,0-0.3,0-0.4c0.1-1.2,1.1-1.7,2.2-1c0.2,0.1,0.3,0.3,0.4,0.5c0.2,0.5,0.2,1.2,0.5,1.6c1.1,1.9,0.6,3.8,0.1,5.6
		c-0.5,1.5-1,3.1-1.5,4.6c-0.6,1.5-1.8,2.4-3.1,3.1c-1.7,0.9-3.7,1.4-5.5,0.4c-1.4-0.7-2.7-1.6-3.8-2.6c-0.6-0.5-0.7-1.5-1.2-2.2
		c-0.2-0.3-0.6-0.4-0.8-0.7c-0.2-0.4-0.3-0.8-0.4-1.2c0-0.2,0-0.3,0-0.5c-0.4-1.4-0.8-2.8-1.3-4.3c-0.1-0.2-0.2-0.4-0.3-0.6
		c-0.3-0.3-0.7-0.4-0.2-1c0.2-0.2,0-0.9,0-1.4c0-0.7-0.7-1.5-0.2-2c-0.1-1.2-0.3-2.2-0.4-3.1c-0.1-1.5,0-3-0.1-4.5
		c0-0.6-0.3-1.2-0.4-1.6c0.2-0.7,0.3-1.3,0.5-2c-0.4,0.1-0.5,0.1-0.9,0.1c0.2-0.9,0.4-1.7,0.6-2.6l-0.3-0.1
		c-0.1,0.2-0.2,0.4-0.2,0.6l-0.1,0c0.1-1.4,0.2-2.7,0.3-4.1c0.1-1,0.1-2,0.2-3c0.4-2.2,0.7-4.4,1.3-6.5c0.4-1.5,1.1-3,1.9-4.3
		C53.6,0.8,55.2,0,56.9,0C58,0,59.2,0.5,60,1.4c1,1.1,2,2.3,3,3.6c0.6,0.7,1,1.5,1.5,2.3c0.4,0.6,0,1-0.4,1
		c-0.8,0.1-1.5-0.1-2.3-0.2c-0.1,0-0.2-0.3-0.3-0.5C61.2,7.2,61,6.9,60.7,6.4z"/>
	<path d="M101.5,45.9c2.2-0.6,4.3-1.3,6.4-1.8c0.9-0.2,1.8-0.1,2.7-0.1c0.5,0,0.9,1,0.5,1.3c-0.4,0.4-0.9,0.9-1.5,0.9
		c-2.8,0.4-5.5,1.1-8.1,1.9c-1.3,0.4-2.4-0.2-3.6-0.5c-0.1,0-0.1-0.4,0.1-0.7c-0.4-0.5-1-1-1-1.5c-0.1-0.9-0.4-1.9,0.3-2.8
		c0.4-0.5,0-1.2-0.7-1.1c0.7-1.5,0.8-3-0.2-4.5c0.7-0.6,0.3-1.3,0.2-2.1c-0.3-1.5-0.3-3.1-0.5-4.6c-0.1-1-0.4-2-0.6-3
		c-0.3-1.6-0.5-3.2-0.8-4.8c-0.2-1.1-0.5-2.1-0.7-3.2c0-0.2,0-0.4,0-0.7c-0.9-0.2-1.2-0.9-1.4-1.7c-0.4-1.8-0.7-3.6-1-5.3
		c-0.4-2.1-0.9-4.1-1.3-6.2c0-0.2-0.2-0.4-0.2-0.4c0.2-0.5,0.4-0.8,0.6-1.2c0.1-0.2,0.4-0.3,0.6-0.3c1.4-0.1,2.7-0.3,4.1-0.4
		C97.7,3,99.9,3,102.1,3c0.5,0,1.1,0.2,1.1,0.8c-0.1,0.4-0.5,1.1-0.8,1.2c-1.1,0.3-2.3,0.4-3.5,0.5c-1.2,0.1-2.4,0-3.5,0
		c-0.7,0-0.7,0.4-0.6,0.9c0.6,2.9,1.2,5.8,1.8,8.7c0.5,2.2,1,4.5,1.5,6.7c0.1,0.7,0.7,0.5,1,0.3c1.1-0.9,2.4-0.4,3.6-0.7
		c0.8-0.2,1.7-0.1,2.6-0.2l0.3,0c0.7,0,1.5,0.2,1.5,0.9c0.1,0.6-0.6,1.1-1.2,1.2c-2.1,0.4-4.2,0.7-6.4,1c-0.6,0.1-0.7,0.3-0.6,0.8
		c0.5,2.6,1,5.1,1.4,7.7c0.2,1.2,0.2,2.4,0.3,3.6c0.2,1.7,0.4,3.3,0.6,5c0.1,1.2,0.2,2.3,0.3,3.5C101.4,45.2,101.5,45.5,101.5,45.9z
		"/>
</g>
</svg>
