<svg xmlns="http://www.w3.org/2000/svg" viewBox="0 0 88.3 80.1" enable-background="new 0 0 88.3 80.1"><path d="M57.9 32.1s1.4.6 2.3-.2l-3.2-3.3-15.8 15.8-6.8 31.7s-8.1 1.3-19.9-10.4c-11.7-11.7-10.2-20.4-10.2-20.4l31.4-6.4 15.8-15.8-3.3-3.3c-.8 1-.5 2.7-.5 2.7l-13.6 13.5-34.1 7.4s-1.1 12.3 12.1 25.2c12.3 12 24.5 11.4 24.5 11.4l7.4-34.1 13.9-13.8zm-40.9 31.1c8.4 8.1 14.7 9.2 14.7 9.2l4.3-18.7v-.2c.1-.8-.1-3.6-5-4.8-5.9-1.4-4.8-4.8-4.8-4.8l-10.2 2.2-7.5 1.6s.1 7.4 8.5 15.5z" fill="#424242"/><path fill="#D1D3D4" d="M71.117 72.077l-6.042-2.111 2.111-6.042 6.042 2.111zm-3.555-28.755l-6.042-2.111 2.111-6.042 6.042 2.111z"/><path fill="#DD2129" d="M73.682 45.481l-6.042-2.111 2.111-6.042 6.042 2.111z"/><path fill="#ED202A" d="M70.215 16.334l-6.042-2.111 2.111-6.042 6.042 2.111zm-12.179-4.19l-6.042-2.111 2.111-6.042 6.042 2.111zm-14.488 12.356l-6.042-2.111 3.827-10.95 6.042 2.111z"/><path fill="#F04D3F" d="M72.34 10.308l-6.042-2.111 2.111-6.042 6.042 2.111zm-8.208 3.939l-6.042-2.111 4.223-12.083 6.042 2.111z"/><path fill="#ED202A" d="M76.278 18.531l-6.042-2.111 4.223-12.083 6.042 2.111z"/><path fill="#DD2129" d="M77.511 53.594l-6.042-2.111 2.111-6.042 6.042 2.111z"/><path fill="#ED202A" d="M79.695 47.613l-6.042-2.111 8.709-24.922 6.042 2.111zm-3.944-8.248l-6.042-2.111 8.544-24.45 6.042 2.111z"/><path fill="#DD2129" d="M69.722 37.279l-6.042-2.111 6.565-18.786 6.042 2.111z"/><path fill="#ED202A" d="M63.667 35.199l-21.24-7.423 6.565-18.786 21.24 7.423z"/><path fill="#DD2129" d="M75.433 59.738l-6.042-2.111 2.111-6.042 6.042 2.111zm-2.125 6.026l-6.042-2.111 2.111-6.042 6.042 2.111z"/><path fill="#D1D3D4" d="M59.378 47.317l-6.042-2.111 2.111-6.042 6.042 2.111zm-6.026-2.125l-6.042-2.111 2.111-6.042 6.042 2.111zm-6.12-2.159l-6.042-2.111 2.111-6.042 6.042 2.111z"/><path fill="#E6E7E8" d="M61.503 41.291l-6.042-2.111 2.111-6.042 6.042 2.111z"/><path fill="#F1F2F2" d="M55.477 39.166l-6.042-2.111 2.111-6.042 6.042 2.111zm-6.12-2.158l-6.042-2.111 2.111-6.042 6.042 2.111z"/><path fill="#fff" d="M43.331 34.882l-6.042-2.111 2.111-6.042 6.042 2.111z"/><path fill="#F1F2F2" d="M75.044 70.597l-6.042-2.111 2.111-6.042 6.042 2.111zm-6.12-2.158l-6.042-2.111 2.111-6.042 6.042 2.111z"/><path fill="#E6E7E8" d="M72.763 67.287l-6.042-2.111 2.111-6.042 6.042 2.111z"/></svg>