<?xml version="1.0" encoding="UTF-8" standalone="no"?>
<svg width="65px" height="81px" viewBox="0 0 65 81" version="1.1" xmlns="http://www.w3.org/2000/svg" xmlns:xlink="http://www.w3.org/1999/xlink" xmlns:sketch="http://www.bohemiancoding.com/sketch/ns">
    <!-- Generator: Sketch 3.2.1 (9971) - http://www.bohemiancoding.com/sketch -->
    <title>dan</title>
    <desc>Created with Sketch.</desc>
    <defs>
        <filter x="-50%" y="-50%" width="200%" height="200%" filterUnits="objectBoundingBox" id="filter-1">
            <feOffset dx="-1" dy="-1" in="SourceAlpha" result="shadowOffsetInner1"></feOffset>
            <feGaussianBlur stdDeviation="1" in="shadowOffsetInner1" result="shadowBlurInner1"></feGaussianBlur>
            <feComposite in="shadowBlurInner1" in2="SourceAlpha" operator="arithmetic" k2="-1" k3="1" result="shadowInnerInner1"></feComposite>
            <feColorMatrix values="0 0 0 0 0   0 0 0 0 0   0 0 0 0 0  0 0 0 0.145615376 0" in="shadowInnerInner1" type="matrix" result="shadowMatrixInner1"></feColorMatrix>
            <feMerge>
                <feMergeNode in="SourceGraphic"></feMergeNode>
                <feMergeNode in="shadowMatrixInner1"></feMergeNode>
            </feMerge>
        </filter>
        <filter x="-50%" y="-50%" width="200%" height="200%" filterUnits="objectBoundingBox" id="filter-2">
            <feOffset dx="3" dy="-1" in="SourceAlpha" result="shadowOffsetInner1"></feOffset>
            <feGaussianBlur stdDeviation="1" in="shadowOffsetInner1" result="shadowBlurInner1"></feGaussianBlur>
            <feComposite in="shadowBlurInner1" in2="SourceAlpha" operator="arithmetic" k2="-1" k3="1" result="shadowInnerInner1"></feComposite>
            <feColorMatrix values="0 0 0 0 0   0 0 0 0 0   0 0 0 0 0  0 0 0 0.145615376 0" in="shadowInnerInner1" type="matrix" result="shadowMatrixInner1"></feColorMatrix>
            <feMerge>
                <feMergeNode in="SourceGraphic"></feMergeNode>
                <feMergeNode in="shadowMatrixInner1"></feMergeNode>
            </feMerge>
        </filter>
        <filter x="-50%" y="-50%" width="200%" height="200%" filterUnits="objectBoundingBox" id="filter-3">
            <feOffset dx="1" dy="-1" in="SourceAlpha" result="shadowOffsetInner1"></feOffset>
            <feGaussianBlur stdDeviation="1" in="shadowOffsetInner1" result="shadowBlurInner1"></feGaussianBlur>
            <feComposite in="shadowBlurInner1" in2="SourceAlpha" operator="arithmetic" k2="-1" k3="1" result="shadowInnerInner1"></feComposite>
            <feColorMatrix values="0 0 0 0 0   0 0 0 0 0   0 0 0 0 0  0 0 0 0.35 0" in="shadowInnerInner1" type="matrix" result="shadowMatrixInner1"></feColorMatrix>
            <feMerge>
                <feMergeNode in="SourceGraphic"></feMergeNode>
                <feMergeNode in="shadowMatrixInner1"></feMergeNode>
            </feMerge>
        </filter>
        <filter x="-50%" y="-50%" width="200%" height="200%" filterUnits="objectBoundingBox" id="filter-4">
            <feOffset dx="1" dy="-1" in="SourceAlpha" result="shadowOffsetInner1"></feOffset>
            <feGaussianBlur stdDeviation="1" in="shadowOffsetInner1" result="shadowBlurInner1"></feGaussianBlur>
            <feComposite in="shadowBlurInner1" in2="SourceAlpha" operator="arithmetic" k2="-1" k3="1" result="shadowInnerInner1"></feComposite>
            <feColorMatrix values="0 0 0 0 0   0 0 0 0 0   0 0 0 0 0  0 0 0 0.35 0" in="shadowInnerInner1" type="matrix" result="shadowMatrixInner1"></feColorMatrix>
            <feMerge>
                <feMergeNode in="SourceGraphic"></feMergeNode>
                <feMergeNode in="shadowMatrixInner1"></feMergeNode>
            </feMerge>
        </filter>
        <filter x="-50%" y="-50%" width="200%" height="200%" filterUnits="objectBoundingBox" id="filter-5">
            <feOffset dx="2" dy="-2" in="SourceAlpha" result="shadowOffsetInner1"></feOffset>
            <feGaussianBlur stdDeviation="1" in="shadowOffsetInner1" result="shadowBlurInner1"></feGaussianBlur>
            <feComposite in="shadowBlurInner1" in2="SourceAlpha" operator="arithmetic" k2="-1" k3="1" result="shadowInnerInner1"></feComposite>
            <feColorMatrix values="0 0 0 0 0   0 0 0 0 0   0 0 0 0 0  0 0 0 0.180013021 0" in="shadowInnerInner1" type="matrix" result="shadowMatrixInner1"></feColorMatrix>
            <feMerge>
                <feMergeNode in="SourceGraphic"></feMergeNode>
                <feMergeNode in="shadowMatrixInner1"></feMergeNode>
            </feMerge>
        </filter>
        <ellipse id="path-6" cx="28.5" cy="25" rx="28.5" ry="25"></ellipse>
    </defs>
    <g id="Page-1" stroke="none" stroke-width="1" fill="none" fill-rule="evenodd" sketch:type="MSPage">
        <g id="dan" sketch:type="MSArtboardGroup">
            <ellipse id="Oval-450" fill="#244F78" filter="url(#filter-1)" sketch:type="MSShapeGroup" cx="49.5" cy="53" rx="6.5" ry="6"></ellipse>
            <ellipse id="Oval-451" fill="#244F78" filter="url(#filter-2)" sketch:type="MSShapeGroup" cx="16.5" cy="53" rx="6.5" ry="6"></ellipse>
            <circle id="Oval-452" fill="#A7A7A7" filter="url(#filter-3)" sketch:type="MSShapeGroup" cx="41" cy="74" r="6"></circle>
            <circle id="Oval-453" fill="#A7A7A7" filter="url(#filter-4)" sketch:type="MSShapeGroup" cx="25" cy="74" r="6"></circle>
            <rect id="Rectangle-528" fill="#244E78" filter="url(#filter-5)" sketch:type="MSShapeGroup" x="18" y="47" width="30" height="27"></rect>
            <path d="M32.6999989,56 L33.6999989,56 L34.6999989,67 C34.6999989,67 33.7209949,70 33.1999989,70 C32.7209949,70 31.6999989,67 31.6999989,67 L32.6999989,56 Z" id="Rectangle-538" fill="#3B3B3B" sketch:type="MSShapeGroup"></path>
            <path d="M31.8710627,52.9705646 C32.6210627,52.2205646 34.1210627,52.2205646 34.8710627,52.9705646 C35.6210627,53.7205646 35.1388297,56.2383316 35.1388297,56.2383316 C35.1388297,56.2383316 32.6210627,56.7205646 31.8710627,55.9705646 C31.1210627,55.2205646 31.1210627,53.7205646 31.8710627,52.9705646 Z" id="Rectangle-537" fill="#3B3B3B" sketch:type="MSShapeGroup" transform="translate(33.299999, 54.399501) rotate(-315.000000) translate(-33.299999, -54.399501) "></path>
            <rect id="Rectangle-532" fill="#467EB4" sketch:type="MSShapeGroup" transform="translate(29.100001, 51.000000) rotate(40.000000) translate(-29.100001, -51.000000) " x="25.1000009" y="49" width="8" height="4"></rect>
            <rect id="Rectangle-531" fill="#467EB4" sketch:type="MSShapeGroup" transform="translate(37.400012, 51.000000) scale(-1, 1) rotate(40.000000) translate(-37.400012, -51.000000) " x="33.4000116" y="49" width="8" height="4"></rect>
            <g id="Oval-449-+-Oval-458" sketch:type="MSLayerGroup" transform="translate(4.000000, 2.000000)">
                <mask id="mask-7" sketch:name="Oval 449" fill="white">
                    <use xlink:href="#path-6"></use>
                </mask>
                <use id="Oval-449" fill="#F0BC97" sketch:type="MSShapeGroup" xlink:href="#path-6"></use>
                <path d="M2.5,48.3333333 C2.5,48.3333333 14.5,37 28.5,37 C42.5,37 54.5,48.3333333 54.5,48.3333333 L54.5,51 C54.5,51 36.4722883,39.5 28.5,39.5 C19.1389549,39.5 2.5,51 2.5,51 L2.5,48.3333333 Z" id="Rectangle-534" fill-opacity="0.185552731" sketch:type="MSShapeGroup" mask="url(#mask-7)">
                    <g transform="translate(28.500000, 44.000000) rotate(-180.000000) translate(-28.500000, -44.000000) "></g>
                </path>
                <path d="M13,43 C13,43 15.0990541,39.1383345 17.7354268,37.9080272 C20.3717995,36.67772 25.4333207,37 28.5,37 C31.7933886,37 37.4976874,36.8719781 39.4988437,37.935989 C41.5,38.9999999 44.5,43 44.5,43 L41.5,44.5 C41.5,44.5 40.5,40.7309546 39.5039761,39.9353879 C38.5079522,39.1398212 31.9797107,39 29,39 C25.5572332,39 19,39 17.6141029,39.9243859 C16.2282059,40.8487717 16,44.5 16,44.5 L13,43 Z" id="Rectangle-533" fill-opacity="0.185552731" sketch:type="MSShapeGroup" mask="url(#mask-7)"></path>
            </g>
            <path d="M23.9754518,29.8668995 C23.8044924,27.6813844 22.7613319,26 21.5,26 C20.1192881,26 19,28.0147186 19,30.5 C19,31.9919822 19.4033834,33.314377 20.0245482,34.1331005 C20.0083676,33.9262502 20,33.714884 20,33.5 C20,31.0147186 21.1192881,29 22.5,29 C23.0518329,29 23.5619064,29.3218277 23.9754518,29.8668995 Z" id="Oval-461" fill="#555555" sketch:type="MSShapeGroup"></path>
            <path d="M43.9754518,29.8668995 C43.8044924,27.6813844 42.7613319,26 41.5,26 C40.1192881,26 39,28.0147186 39,30.5 C39,31.9919822 39.4033834,33.314377 40.0245482,34.1331005 C40.0083676,33.9262502 40,33.714884 40,33.5 C40,31.0147186 41.1192881,29 42.5,29 C43.0518329,29 43.5619064,29.3218277 43.9754518,29.8668995 Z" id="Oval-463" fill="#555555" sketch:type="MSShapeGroup"></path>
            <path d="M42.789962,43 C42.9276965,43.161555 43,43.3287671 43,43.5 C43,44.8807119 38.2989899,46 32.5,46 C26.7010101,46 22,44.8807119 22,43.5 C22,43.3287671 22.0723035,43.161555 22.210038,43 C23.1829057,44.1411202 27.4201884,45 32.5,45 C37.5798116,45 41.8170943,44.1411202 42.789962,43 Z" id="Oval-465" fill="#555555" sketch:type="MSShapeGroup"></path>
        </g>
    </g>
</svg>