<?xml version="1.0" encoding="UTF-8" standalone="no"?>
<svg width="65px" height="89px" viewBox="0 0 65 89" version="1.1" xmlns="http://www.w3.org/2000/svg" xmlns:xlink="http://www.w3.org/1999/xlink" xmlns:sketch="http://www.bohemiancoding.com/sketch/ns">
    <!-- Generator: Sketch 3.2.1 (9971) - http://www.bohemiancoding.com/sketch -->
    <title>dan</title>
    <desc>Created with Sketch.</desc>
    <defs>
        <filter x="-50%" y="-50%" width="200%" height="200%" filterUnits="objectBoundingBox" id="filter-1">
            <feOffset dx="-1" dy="-1" in="SourceAlpha" result="shadowOffsetInner1"></feOffset>
            <feGaussianBlur stdDeviation="1" in="shadowOffsetInner1" result="shadowBlurInner1"></feGaussianBlur>
            <feComposite in="shadowBlurInner1" in2="SourceAlpha" operator="arithmetic" k2="-1" k3="1" result="shadowInnerInner1"></feComposite>
            <feColorMatrix values="0 0 0 0 0   0 0 0 0 0   0 0 0 0 0  0 0 0 0.145615376 0" in="shadowInnerInner1" type="matrix" result="shadowMatrixInner1"></feColorMatrix>
            <feMerge>
                <feMergeNode in="SourceGraphic"></feMergeNode>
                <feMergeNode in="shadowMatrixInner1"></feMergeNode>
            </feMerge>
        </filter>
        <filter x="-50%" y="-50%" width="200%" height="200%" filterUnits="objectBoundingBox" id="filter-2">
            <feOffset dx="3" dy="-1" in="SourceAlpha" result="shadowOffsetInner1"></feOffset>
            <feGaussianBlur stdDeviation="1" in="shadowOffsetInner1" result="shadowBlurInner1"></feGaussianBlur>
            <feComposite in="shadowBlurInner1" in2="SourceAlpha" operator="arithmetic" k2="-1" k3="1" result="shadowInnerInner1"></feComposite>
            <feColorMatrix values="0 0 0 0 0   0 0 0 0 0   0 0 0 0 0  0 0 0 0.145615376 0" in="shadowInnerInner1" type="matrix" result="shadowMatrixInner1"></feColorMatrix>
            <feMerge>
                <feMergeNode in="SourceGraphic"></feMergeNode>
                <feMergeNode in="shadowMatrixInner1"></feMergeNode>
            </feMerge>
        </filter>
        <filter x="-50%" y="-50%" width="200%" height="200%" filterUnits="objectBoundingBox" id="filter-3">
            <feOffset dx="1" dy="-1" in="SourceAlpha" result="shadowOffsetInner1"></feOffset>
            <feGaussianBlur stdDeviation="1" in="shadowOffsetInner1" result="shadowBlurInner1"></feGaussianBlur>
            <feComposite in="shadowBlurInner1" in2="SourceAlpha" operator="arithmetic" k2="-1" k3="1" result="shadowInnerInner1"></feComposite>
            <feColorMatrix values="0 0 0 0 0   0 0 0 0 0   0 0 0 0 0  0 0 0 0.35 0" in="shadowInnerInner1" type="matrix" result="shadowMatrixInner1"></feColorMatrix>
            <feMerge>
                <feMergeNode in="SourceGraphic"></feMergeNode>
                <feMergeNode in="shadowMatrixInner1"></feMergeNode>
            </feMerge>
        </filter>
        <filter x="-50%" y="-50%" width="200%" height="200%" filterUnits="objectBoundingBox" id="filter-4">
            <feOffset dx="1" dy="-1" in="SourceAlpha" result="shadowOffsetInner1"></feOffset>
            <feGaussianBlur stdDeviation="1" in="shadowOffsetInner1" result="shadowBlurInner1"></feGaussianBlur>
            <feComposite in="shadowBlurInner1" in2="SourceAlpha" operator="arithmetic" k2="-1" k3="1" result="shadowInnerInner1"></feComposite>
            <feColorMatrix values="0 0 0 0 0   0 0 0 0 0   0 0 0 0 0  0 0 0 0.35 0" in="shadowInnerInner1" type="matrix" result="shadowMatrixInner1"></feColorMatrix>
            <feMerge>
                <feMergeNode in="SourceGraphic"></feMergeNode>
                <feMergeNode in="shadowMatrixInner1"></feMergeNode>
            </feMerge>
        </filter>
        <filter x="-50%" y="-50%" width="200%" height="200%" filterUnits="objectBoundingBox" id="filter-5">
            <feOffset dx="2" dy="-2" in="SourceAlpha" result="shadowOffsetInner1"></feOffset>
            <feGaussianBlur stdDeviation="1" in="shadowOffsetInner1" result="shadowBlurInner1"></feGaussianBlur>
            <feComposite in="shadowBlurInner1" in2="SourceAlpha" operator="arithmetic" k2="-1" k3="1" result="shadowInnerInner1"></feComposite>
            <feColorMatrix values="0 0 0 0 0   0 0 0 0 0   0 0 0 0 0  0 0 0 0.180013021 0" in="shadowInnerInner1" type="matrix" result="shadowMatrixInner1"></feColorMatrix>
            <feMerge>
                <feMergeNode in="SourceGraphic"></feMergeNode>
                <feMergeNode in="shadowMatrixInner1"></feMergeNode>
            </feMerge>
        </filter>
        <ellipse id="path-6" cx="28.5" cy="25" rx="28.5" ry="25"></ellipse>
    </defs>
    <g id="Page-1" stroke="none" stroke-width="1" fill="none" fill-rule="evenodd" sketch:type="MSPage">
        <g id="dan" sketch:type="MSArtboardGroup">
            <ellipse id="Oval-450" fill="#244F78" filter="url(#filter-1)" sketch:type="MSShapeGroup" cx="49.5" cy="61" rx="6.5" ry="6"></ellipse>
            <ellipse id="Oval-451" fill="#244F78" filter="url(#filter-2)" sketch:type="MSShapeGroup" cx="16.5" cy="61" rx="6.5" ry="6"></ellipse>
            <circle id="Oval-452" fill="#A7A7A7" filter="url(#filter-3)" sketch:type="MSShapeGroup" cx="41" cy="82" r="6"></circle>
            <circle id="Oval-453" fill="#A7A7A7" filter="url(#filter-4)" sketch:type="MSShapeGroup" cx="25" cy="82" r="6"></circle>
            <rect id="Rectangle-528" fill="#244E78" filter="url(#filter-5)" sketch:type="MSShapeGroup" x="18" y="55" width="30" height="27"></rect>
            <path d="M32.6999989,64 L33.6999989,64 L34.6999989,75 C34.6999989,75 33.7209949,78 33.1999989,78 C32.7209949,78 31.6999989,75 31.6999989,75 L32.6999989,64 Z" id="Rectangle-538" fill="#3B3B3B" sketch:type="MSShapeGroup"></path>
            <path d="M31.8710627,60.9705646 C32.6210627,60.2205646 34.1210627,60.2205646 34.8710627,60.9705646 C35.6210627,61.7205646 35.1388297,64.2383316 35.1388297,64.2383316 C35.1388297,64.2383316 32.6210627,64.7205646 31.8710627,63.9705646 C31.1210627,63.2205646 31.1210627,61.7205646 31.8710627,60.9705646 Z" id="Rectangle-537" fill="#3B3B3B" sketch:type="MSShapeGroup" transform="translate(33.299999, 62.399501) rotate(-315.000000) translate(-33.299999, -62.399501) "></path>
            <rect id="Rectangle-532" fill="#467EB4" sketch:type="MSShapeGroup" transform="translate(29.100001, 59.000000) rotate(40.000000) translate(-29.100001, -59.000000) " x="25.1000009" y="57" width="8" height="4"></rect>
            <rect id="Rectangle-531" fill="#467EB4" sketch:type="MSShapeGroup" transform="translate(37.400012, 59.000000) scale(-1, 1) rotate(40.000000) translate(-37.400012, -59.000000) " x="33.4000116" y="57" width="8" height="4"></rect>
            <g id="Oval-449-+-Oval-458" sketch:type="MSLayerGroup" transform="translate(4.000000, 10.000000)">
                <mask id="mask-7" sketch:name="Oval 449" fill="white">
                    <use xlink:href="#path-6"></use>
                </mask>
                <use id="Oval-449" fill="#F0BC97" sketch:type="MSShapeGroup" xlink:href="#path-6"></use>
                <path d="M2.5,48.3333333 C2.5,48.3333333 14.5,37 28.5,37 C42.5,37 54.5,48.3333333 54.5,48.3333333 L54.5,51 C54.5,51 36.4722883,39.5 28.5,39.5 C19.1389549,39.5 2.5,51 2.5,51 L2.5,48.3333333 Z" id="Rectangle-534" fill-opacity="0.185552731" sketch:type="MSShapeGroup" mask="url(#mask-7)">
                    <g transform="translate(28.500000, 44.000000) rotate(-180.000000) translate(-28.500000, -44.000000) "></g>
                </path>
                <path d="M13,43 C13,43 15.0990541,39.1383345 17.7354268,37.9080272 C20.3717995,36.67772 25.4333207,37 28.5,37 C31.7933886,37 37.4976874,36.8719781 39.4988437,37.935989 C41.5,38.9999999 44.5,43 44.5,43 L41.5,44.5 C41.5,44.5 40.5,40.7309546 39.5039761,39.9353879 C38.5079522,39.1398212 31.9797107,39 29,39 C25.5572332,39 19,39 17.6141029,39.9243859 C16.2282059,40.8487717 16,44.5 16,44.5 L13,43 Z" id="Rectangle-533" fill-opacity="0.185552731" sketch:type="MSShapeGroup" mask="url(#mask-7)"></path>
            </g>
            <path d="M23.9754518,37.8668995 C23.8044924,35.6813844 22.7613319,34 21.5,34 C20.1192881,34 19,36.0147186 19,38.5 C19,39.9919822 19.4033834,41.314377 20.0245482,42.1331005 C20.0083676,41.9262502 20,41.714884 20,41.5 C20,39.0147186 21.1192881,37 22.5,37 C23.0518329,37 23.5619064,37.3218277 23.9754518,37.8668995 Z" id="Oval-461" fill="#555555" sketch:type="MSShapeGroup"></path>
            <path d="M43.9754518,37.8668995 C43.8044924,35.6813844 42.7613319,34 41.5,34 C40.1192881,34 39,36.0147186 39,38.5 C39,39.9919822 39.4033834,41.314377 40.0245482,42.1331005 C40.0083676,41.9262502 40,41.714884 40,41.5 C40,39.0147186 41.1192881,37 42.5,37 C43.0518329,37 43.5619064,37.3218277 43.9754518,37.8668995 Z" id="Oval-463" fill="#555555" sketch:type="MSShapeGroup"></path>
            <path d="M42.789962,51 C42.9276965,51.161555 43,51.3287671 43,51.5 C43,52.8807119 38.2989899,54 32.5,54 C26.7010101,54 22,52.8807119 22,51.5 C22,51.3287671 22.0723035,51.161555 22.210038,51 C23.1829057,52.1411202 27.4201884,53 32.5,53 C37.5798116,53 41.8170943,52.1411202 42.789962,51 Z" id="Oval-465" fill="#555555" sketch:type="MSShapeGroup"></path>
        </g>
    </g>
</svg>