<?xml version="1.0" encoding="UTF-8" standalone="no"?>
<!-- Created with Inkscape (http://www.inkscape.org/) -->

<svg
   xmlns:dc="http://purl.org/dc/elements/1.1/"
   xmlns:cc="http://creativecommons.org/ns#"
   xmlns:rdf="http://www.w3.org/1999/02/22-rdf-syntax-ns#"
   xmlns:svg="http://www.w3.org/2000/svg"
   xmlns="http://www.w3.org/2000/svg"
   xmlns:sodipodi="http://sodipodi.sourceforge.net/DTD/sodipodi-0.dtd"
   xmlns:inkscape="http://www.inkscape.org/namespaces/inkscape"
   version="1.0"
   width="286.41901"
   height="205.854"
   viewBox="0 0 286.41901 205.854"
   id="Layer_1"
   xml:space="preserve"
   inkscape:version="0.48.4 r9939"
   sodipodi:docname="Mountain_Dew_logo.svg"><metadata
   id="metadata11"><rdf:RDF><cc:Work
       rdf:about=""><dc:format>image/svg+xml</dc:format><dc:type
         rdf:resource="http://purl.org/dc/dcmitype/StillImage" /></cc:Work></rdf:RDF></metadata><sodipodi:namedview
   pagecolor="#ffffff"
   bordercolor="#666666"
   borderopacity="1"
   objecttolerance="10"
   gridtolerance="10"
   guidetolerance="10"
   inkscape:pageopacity="0"
   inkscape:pageshadow="2"
   inkscape:window-width="640"
   inkscape:window-height="480"
   id="namedview9"
   showgrid="false"
   fit-margin-top="0"
   fit-margin-left="0"
   fit-margin-right="0"
   fit-margin-bottom="0"
   inkscape:zoom="1.0727273"
   inkscape:cx="143.009"
   inkscape:cy="103.427"
   inkscape:window-x="0"
   inkscape:window-y="0"
   inkscape:window-maximized="0"
   inkscape:current-layer="Layer_1" /><defs
   id="defs14" />
<path
   d="M 262.813,35.774 283.15,10.197 286.419,0 169.349,54.083 c 3.212,-11.268 6.873,-21.746 10.986,-31.493 l 5.183,-11.267 -46.534,21.689 3.099,-9.465 -41.352,20.845 -2.535,7.605 -36.225,17.128 C 51.718,84.224 39.098,101.181 24,120.11 L 1.859,147.658 0,158.362 37.633,142.588 c -6.648,17.634 -14.648,35.211 -24.169,52.731 l -1.802,10.535 66.59,-31.323 c 6.197,-2.93 11.211,-6.141 14.93,-9.577 l 1.014,-0.958 c 0,0 4.418,-0.162 5.859,-0.451 1.411,-0.282 5.634,-1.915 5.634,-1.915 l 97.237,-45.745 c 22.028,-30.31 42.027,-57.013 59.887,-80.111 z"
   id="path3"
   style="fill:#014713"
   inkscape:connector-curvature="0" />
<path
   d="m 174.814,26.534 4.226,-9.409 -44.788,20.62 2.761,-9.127 -32.619,16.62 -2.366,7.718 L 65.07,70.421 C 59.887,78.083 53.521,87.097 45.972,97.519 30.704,118.308 16.958,135.321 4.789,148.673 L 45.126,132.11 34.422,158.081 c -7.887,18.76 -13.859,31.436 -17.971,38.084 l 59.83,-28.225 c 5.747,-2.761 10.31,-5.634 13.69,-8.732 l 2.648,-2.648 c 0,0 4.838,0.377 6.422,0.113 1.226,-0.204 4.676,-1.69 4.676,-1.69 l 96.167,-45.069 28.225,-38.93 c 21.352,-28.901 38.479,-50.703 51.379,-65.52 l -115.209,53.69 c 3.549,-12.846 7.042,-23.719 10.535,-32.62 z"
   id="path5"
   style="fill:#88c333"
   inkscape:connector-curvature="0" />
<path
   d="m 159.096,64.506 c 3.268,-12.113 6.423,-22.591 9.408,-31.493 l 3.55,-9.746 -43.718,20.281 2.817,-8.901 -23.098,11.718 -2.535,7.887 -37.465,17.69 -19.605,27.662 c -14.084,19.605 -23.774,32.225 -29.013,37.802 l 32.394,-13.634 -9.239,24.732 c -6.93,17.915 -12.507,30.478 -16.732,37.689 l 49.182,-23.212 c 5.408,-2.479 9.69,-5.238 12.789,-8.111 l 4.113,-4.789 c 0,0 1.19,0.675 2.253,1.239 1.063,0.564 3.367,0.423 4.451,0.169 1.02,-0.238 3.943,-1.408 3.943,-1.408 l 95.153,-44.675 C 219.321,74.195 237.236,49.632 251.601,31.717 L 266.587,14.309 159.096,64.506 z"
   id="path7"
   style="fill:#ffffff"
   inkscape:connector-curvature="0" />
<path
   d="m 158.081,33.858 -9.238,4.338 c -1.184,0.563 -2.592,2.366 -4.226,5.352 l -0.169,0.113 0.846,-3.944 -11.775,5.634 0,2.817 -10.253,32.056 -1.972,3.662 14.084,-6.648 0.113,-2.648 7.437,-24.45 c 0,0 0.73,-2.047 1.126,-2.648 0.413,-0.627 1.69,-1.408 1.69,-1.408 l 4.169,-1.972 c 0.788,-0.394 1.239,-0.394 1.296,0 l -0.451,2.254 -8.112,24.901 -1.859,3.437 13.915,-6.535 0.282,-2.704 c 0.112,-1.352 0.563,-3.155 1.296,-5.465 l 4.9,-15.774 c 2.986,-9.354 1.972,-12.791 -3.099,-10.368 z m -40.843,45.52 c -0.979,0.506 -3.943,1.972 -3.943,1.972 0,0 -1.403,0.737 -1.859,0.281 -0.275,-0.274 0.451,-2.422 0.451,-2.422 l 6.479,-20.168 c 3.099,-1.521 6.084,-2.986 9.126,-4.395 l 2.366,-7.605 -9.127,4.395 2.648,-8.451 -11.662,5.916 -2.535,7.887 -3.493,1.69 -2.423,7.549 3.549,-1.69 -5.915,18.986 c -1.409,4.394 -1.763,7.376 -1.015,8.563 0.748,1.187 3.944,0.281 3.944,0.281 l 14.366,-6.76 3.662,-9.408 c -1.408,1.52 -2.895,2.488 -4.619,3.379 z M 91.097,65.463 72.619,99.04 81.914,69.688 70.14,75.266 l -34.985,49.238 10.817,-5.07 1.352,-3.38 18.591,-26.985 0.169,0 -7.887,24.563 13.239,-6.141 15.437,-27.831 -6.93,21.239 -1.803,3.38 13.633,-6.366 0.451,-3.38 10.76,-34.704 -11.887,5.634 z"
   id="path9"
   style="fill:#014713"
   inkscape:connector-curvature="0" />
<path
   d="m 230.926,35.943 -2.142,4.901 -27.267,40.056 -0.169,0 11.549,-36.507 -23.605,10.986 -24.844,42.816 -0.282,0.169 10.423,-32.168 2.479,-4.958 -20.112,9.465 -0.676,4.845 -16.169,51.774 17.859,-8.45 29.914,-51.155 0.169,0 -14.027,43.661 21.352,-9.915 37.914,-55.098 14.479,-18.422 -16.845,8 z m -129.632,65.068 c -0.845,-2.535 -3.718,-2.647 -8.676,-0.394 l -33.689,15.719 c 0.225,1.013 0.112,2.535 -0.282,4.507 -0.507,1.972 -1.465,4.731 -2.986,8.281 L 37.239,175.658 73.07,158.813 c 5.07,-2.366 8.958,-4.901 11.662,-7.493 3.042,-2.704 5.014,-5.859 6.084,-9.408 l 7.662,-25.183 c 2.647,-7.998 3.605,-13.294 2.816,-15.718 z m -18.816,20.789 -6.479,19.268 -2.366,5.465 c -0.62,1.07 -1.69,1.915 -3.211,2.535 l -9.127,4.394 12.338,-33.069 7.605,-3.493 c 1.464,-0.676 2.31,-0.676 2.366,0 0.113,0.562 -0.282,2.196 -1.126,4.9 z m 53.464,-2.366 -4.226,2.366 -16.338,7.605 c -1.408,0.619 -2.253,0.619 -2.535,0 l 0.451,-3.943 1.69,-5.353 28.507,-13.295 5.577,-17.634 c 1.972,-6.141 2.705,-10.253 2.142,-12.225 -0.62,-2.141 -2.817,-2.31 -6.592,-0.563 l -25.859,12.225 c -3.662,1.803 -6.704,4.395 -9.126,7.775 -2.141,3.268 -4.225,8 -6.197,14.197 l -7.155,22.647 c -1.859,6.141 -2.591,10.197 -2.084,12.056 0.619,2.142 2.817,2.366 6.535,0.563 l 33.915,-15.887 5.577,-14.196 -4.282,3.662 z m -14.93,-18.423 c 0,0 1.098,-2.846 1.69,-3.662 0.451,-0.621 1.603,-1.678 2.253,-2.084 1.646,-1.028 7.042,-3.268 7.042,-3.268 0,0 1.29,-0.136 1.521,0.169 0.517,0.684 -0.563,3.38 -0.563,3.38 l -2.535,7.718 -11.944,5.634 2.536,-7.887 z"
   id="path11"
   style="fill:#ff0000"
   inkscape:connector-curvature="0" />
</svg>