<?xml version="1.0" encoding="UTF-8" standalone="no"?>
<svg width="65px" height="89px" viewBox="0 0 65 89" version="1.1" xmlns="http://www.w3.org/2000/svg" xmlns:xlink="http://www.w3.org/1999/xlink" xmlns:sketch="http://www.bohemiancoding.com/sketch/ns">
    <!-- Generator: Sketch 3.2.1 (9971) - http://www.bohemiancoding.com/sketch -->
    <title>george</title>
    <desc>Created with Sketch.</desc>
    <defs>
        <filter x="-50%" y="-50%" width="200%" height="200%" filterUnits="objectBoundingBox" id="filter-1">
            <feOffset dx="-1" dy="-1" in="SourceAlpha" result="shadowOffsetInner1"></feOffset>
            <feGaussianBlur stdDeviation="1" in="shadowOffsetInner1" result="shadowBlurInner1"></feGaussianBlur>
            <feComposite in="shadowBlurInner1" in2="SourceAlpha" operator="arithmetic" k2="-1" k3="1" result="shadowInnerInner1"></feComposite>
            <feColorMatrix values="0 0 0 0 0   0 0 0 0 0   0 0 0 0 0  0 0 0 0.145615376 0" in="shadowInnerInner1" type="matrix" result="shadowMatrixInner1"></feColorMatrix>
            <feMerge>
                <feMergeNode in="SourceGraphic"></feMergeNode>
                <feMergeNode in="shadowMatrixInner1"></feMergeNode>
            </feMerge>
        </filter>
        <filter x="-50%" y="-50%" width="200%" height="200%" filterUnits="objectBoundingBox" id="filter-2">
            <feOffset dx="3" dy="-1" in="SourceAlpha" result="shadowOffsetInner1"></feOffset>
            <feGaussianBlur stdDeviation="1" in="shadowOffsetInner1" result="shadowBlurInner1"></feGaussianBlur>
            <feComposite in="shadowBlurInner1" in2="SourceAlpha" operator="arithmetic" k2="-1" k3="1" result="shadowInnerInner1"></feComposite>
            <feColorMatrix values="0 0 0 0 0   0 0 0 0 0   0 0 0 0 0  0 0 0 0.145615376 0" in="shadowInnerInner1" type="matrix" result="shadowMatrixInner1"></feColorMatrix>
            <feMerge>
                <feMergeNode in="SourceGraphic"></feMergeNode>
                <feMergeNode in="shadowMatrixInner1"></feMergeNode>
            </feMerge>
        </filter>
        <filter x="-50%" y="-50%" width="200%" height="200%" filterUnits="objectBoundingBox" id="filter-3">
            <feOffset dx="1" dy="-1" in="SourceAlpha" result="shadowOffsetInner1"></feOffset>
            <feGaussianBlur stdDeviation="1" in="shadowOffsetInner1" result="shadowBlurInner1"></feGaussianBlur>
            <feComposite in="shadowBlurInner1" in2="SourceAlpha" operator="arithmetic" k2="-1" k3="1" result="shadowInnerInner1"></feComposite>
            <feColorMatrix values="0 0 0 0 0   0 0 0 0 0   0 0 0 0 0  0 0 0 0.35 0" in="shadowInnerInner1" type="matrix" result="shadowMatrixInner1"></feColorMatrix>
            <feMerge>
                <feMergeNode in="SourceGraphic"></feMergeNode>
                <feMergeNode in="shadowMatrixInner1"></feMergeNode>
            </feMerge>
        </filter>
        <filter x="-50%" y="-50%" width="200%" height="200%" filterUnits="objectBoundingBox" id="filter-4">
            <feOffset dx="1" dy="-1" in="SourceAlpha" result="shadowOffsetInner1"></feOffset>
            <feGaussianBlur stdDeviation="1" in="shadowOffsetInner1" result="shadowBlurInner1"></feGaussianBlur>
            <feComposite in="shadowBlurInner1" in2="SourceAlpha" operator="arithmetic" k2="-1" k3="1" result="shadowInnerInner1"></feComposite>
            <feColorMatrix values="0 0 0 0 0   0 0 0 0 0   0 0 0 0 0  0 0 0 0.35 0" in="shadowInnerInner1" type="matrix" result="shadowMatrixInner1"></feColorMatrix>
            <feMerge>
                <feMergeNode in="SourceGraphic"></feMergeNode>
                <feMergeNode in="shadowMatrixInner1"></feMergeNode>
            </feMerge>
        </filter>
        <filter x="-50%" y="-50%" width="200%" height="200%" filterUnits="objectBoundingBox" id="filter-5">
            <feOffset dx="2" dy="-2" in="SourceAlpha" result="shadowOffsetInner1"></feOffset>
            <feGaussianBlur stdDeviation="1" in="shadowOffsetInner1" result="shadowBlurInner1"></feGaussianBlur>
            <feComposite in="shadowBlurInner1" in2="SourceAlpha" operator="arithmetic" k2="-1" k3="1" result="shadowInnerInner1"></feComposite>
            <feColorMatrix values="0 0 0 0 0   0 0 0 0 0   0 0 0 0 0  0 0 0 0.180013021 0" in="shadowInnerInner1" type="matrix" result="shadowMatrixInner1"></feColorMatrix>
            <feMerge>
                <feMergeNode in="SourceGraphic"></feMergeNode>
                <feMergeNode in="shadowMatrixInner1"></feMergeNode>
            </feMerge>
        </filter>
        <ellipse id="path-6" cx="28.5" cy="25" rx="28.5" ry="25"></ellipse>
    </defs>
    <g id="Page-1" stroke="none" stroke-width="1" fill="none" fill-rule="evenodd" sketch:type="MSPage">
        <g id="george" sketch:type="MSArtboardGroup">
            <ellipse id="Oval-450" fill="#5C9DDE" filter="url(#filter-1)" sketch:type="MSShapeGroup" cx="49.5" cy="61" rx="6.5" ry="6"></ellipse>
            <ellipse id="Oval-451" fill="#5C9DDE" filter="url(#filter-2)" sketch:type="MSShapeGroup" cx="16.5" cy="61" rx="6.5" ry="6"></ellipse>
            <circle id="Oval-452" fill="#7A4019" filter="url(#filter-3)" sketch:type="MSShapeGroup" cx="41" cy="82" r="6"></circle>
            <circle id="Oval-453" fill="#7A4019" filter="url(#filter-4)" sketch:type="MSShapeGroup" cx="25" cy="82" r="6"></circle>
            <rect id="Rectangle-528" fill="#5C9DDE" filter="url(#filter-5)" sketch:type="MSShapeGroup" x="18" y="55" width="30" height="27"></rect>
            <path d="M32.35,82 L32.35,60" id="Path-85" stroke="#6E6E6E" stroke-width="0.699999928" sketch:type="MSShapeGroup"></path>
            <rect id="Rectangle-529" fill="#7BB5EF" sketch:type="MSShapeGroup" transform="translate(28.100001, 59.000000) rotate(40.000000) translate(-28.100001, -59.000000) " x="24.1000009" y="57" width="8" height="4"></rect>
            <rect id="Rectangle-530" fill="#7BB5EF" sketch:type="MSShapeGroup" transform="translate(36.400012, 59.000000) scale(-1, 1) rotate(40.000000) translate(-36.400012, -59.000000) " x="32.4000116" y="57" width="8" height="4"></rect>
            <circle id="Oval-455" fill="#D8D8D8" sketch:type="MSShapeGroup" cx="34.5" cy="65.5" r="0.5"></circle>
            <circle id="Oval-456" fill="#D8D8D8" sketch:type="MSShapeGroup" cx="34.5" cy="69.5" r="0.5"></circle>
            <circle id="Oval-457" fill="#D8D8D8" sketch:type="MSShapeGroup" cx="34.5" cy="73.5" r="0.5"></circle>
            <circle id="Oval-458" fill="#D8D8D8" sketch:type="MSShapeGroup" cx="34.5" cy="77.5" r="0.5"></circle>
            <g id="Oval-449-+-Oval-458" sketch:type="MSLayerGroup" transform="translate(4.000000, 10.000000)">
                <mask id="mask-7" sketch:name="Oval 449" fill="white">
                    <use xlink:href="#path-6"></use>
                </mask>
                <use id="Oval-449" fill="#F0BC97" sketch:type="MSShapeGroup" xlink:href="#path-6"></use>
                <ellipse id="Oval-458" stroke="#643D22" stroke-width="0.799999952" fill="#4A2D19" sketch:type="MSShapeGroup" mask="url(#mask-7)" cx="-0.5" cy="13" rx="7.5" ry="18">
                    <g transform="translate(-0.500000, 13.000000) rotate(6.000000) translate(0.500000, -13.000000) "></g>
                </ellipse>
                <ellipse id="Oval-460" stroke="#643D22" stroke-width="0.799999952" fill="#4A2D19" sketch:type="MSShapeGroup" mask="url(#mask-7)" cx="17.5" cy="-10" rx="7.5" ry="18">
                    <g transform="translate(17.500000, -10.000000) rotate(6.000000) translate(-17.500000, 10.000000) "></g>
                </ellipse>
                <ellipse id="Oval-459" stroke="#643D22" stroke-width="0.799999952" fill="#4A2D19" sketch:type="MSShapeGroup" mask="url(#mask-7)" cx="57.5" cy="13" rx="7.5" ry="18">
                    <g transform="translate(57.500000, 13.000000) scale(-1, 1) rotate(6.000000) translate(-57.500000, -13.000000) "></g>
                </ellipse>
            </g>
            <path d="M11.5,18 C47,25.5 62,24 48.5,7.5 C30.5,7.5 42.5,5.49999999 28.5,7.5 C27,13.4999999 15,15 15,15" id="Path-86" stroke="#643D22" stroke-width="0.599999905" fill="#4A2D19" sketch:type="MSShapeGroup"></path>
            <path d="M23.9754518,37.8668995 C23.8044924,35.6813844 22.7613319,34 21.5,34 C20.1192881,34 19,36.0147186 19,38.5 C19,39.9919822 19.4033834,41.314377 20.0245482,42.1331005 C20.0083676,41.9262502 20,41.714884 20,41.5 C20,39.0147186 21.1192881,37 22.5,37 C23.0518329,37 23.5619064,37.3218277 23.9754518,37.8668995 Z" id="Oval-461" fill="#555555" sketch:type="MSShapeGroup"></path>
            <path d="M43.9754518,37.8668995 C43.8044924,35.6813844 42.7613319,34 41.5,34 C40.1192881,34 39,36.0147186 39,38.5 C39,39.9919822 39.4033834,41.314377 40.0245482,42.1331005 C40.0083676,41.9262502 40,41.714884 40,41.5 C40,39.0147186 41.1192881,37 42.5,37 C43.0518329,37 43.5619064,37.3218277 43.9754518,37.8668995 Z" id="Oval-463" fill="#555555" sketch:type="MSShapeGroup"></path>
            <path d="M42.789962,51 C42.9276965,51.161555 43,51.3287671 43,51.5 C43,52.8807119 38.2989899,54 32.5,54 C26.7010101,54 22,52.8807119 22,51.5 C22,51.3287671 22.0723035,51.161555 22.210038,51 C23.1829057,52.1411202 27.4201884,53 32.5,53 C37.5798116,53 41.8170943,52.1411202 42.789962,51 Z" id="Oval-465" fill="#555555" sketch:type="MSShapeGroup"></path>
            <path d="M43,10.5 C53.5,18.5 42,20.5 22,16" id="Path-87" stroke="#643D22" stroke-linecap="round" stroke-linejoin="round" sketch:type="MSShapeGroup"></path>
        </g>
    </g>
</svg>