<?xml version="1.0" encoding="UTF-8" standalone="no"?>
<svg width="54px" height="45px" viewBox="0 0 54 45" version="1.1" xmlns="http://www.w3.org/2000/svg" xmlns:xlink="http://www.w3.org/1999/xlink" xmlns:sketch="http://www.bohemiancoding.com/sketch/ns">
    <!-- Generator: Sketch 3.2.1 (9971) - http://www.bohemiancoding.com/sketch -->
    <title>Lamp_2_flip</title>
    <desc>Created with Sketch.</desc>
    <defs></defs>
    <g id="Page-1" stroke="none" stroke-width="1" fill="none" fill-rule="evenodd" sketch:type="MSPage">
        <g id="Lamp_2_flip" sketch:type="MSArtboardGroup">
            <g id="Group" sketch:type="MSLayerGroup" transform="translate(27.000000, 22.500000) scale(-1, 1) translate(-27.000000, -22.500000) translate(2.000000, 1.000000)">
                <path d="M16,36 C16,33.2385763 12.6421356,31 8.5,31 C4.35786438,31 1,33.2385763 1,36 C1,38.7614237 16,38.7614237 16,36 Z" id="Oval-329" fill="#656565" sketch:type="MSShapeGroup"></path>
                <path d="M29,3.5 C28,0.5 24,-0.5000001 25,4.9999999 C26,10.4999999 20.5000007,13.9999996 13.5,13 C6.49999927,12.0000004 -4.00000003,8.50000095 1.99999997,14.5000004" id="Path-72" stroke="#494848" stroke-width="0.399999917" sketch:type="MSShapeGroup"></path>
                <path d="M8,32 L2,13.5" id="Path-69" stroke="#656565" sketch:type="MSShapeGroup"></path>
                <path d="M3,16.5 L30.5,6.5" id="Path-71" stroke="#656565" sketch:type="MSShapeGroup"></path>
                <rect id="Rectangle-501" fill="#656565" sketch:type="MSShapeGroup" transform="translate(31.000000, 4.500000) rotate(-19.000000) translate(-31.000000, -4.500000) " x="29" y="1" width="4" height="7"></rect>
                <path d="M31.6899698,12.5437188 L44.3480522,14.0666624 L46.7737047,39.7554975 L19.7205589,32.5182825 L31.6899698,12.5437188 Z" id="Rectangle-502" fill="#A7E8AC" sketch:type="MSShapeGroup" transform="translate(33.247132, 26.149608) rotate(-16.000000) translate(-33.247132, -26.149608) "></path>
                <path d="M40,14 C40,14 40,7 33,7 C26,7 26,14 26,14 L40,14 Z" id="Oval-330" fill="#656565" sketch:type="MSShapeGroup" transform="translate(33.000000, 10.500000) rotate(-17.000000) translate(-33.000000, -10.500000) "></path>
                <path d="M2,14.5 L29.5,4.5" id="Path-70" stroke="#656565" sketch:type="MSShapeGroup"></path>
            </g>
        </g>
    </g>
</svg>