<svg xmlns="http://www.w3.org/2000/svg" viewBox="-288.9 274.8 181.1 61.8" enable-background="new -288.9 274.8 181.1 61.8"><path fill="#999" d="M-270.2 321.1c-.1-1-.4-2.1-1.5-3.1l-.1-.1c-1.5-1.4-2.8-4.1-2.8-6.9 0-4 1.8-15.3 2.1-15.3.3 0 .3 5.5.1 10.6-.1 3.6.4 5 1.2 5 1.1 0 1.3-3.6 1.4-7.6.1-3.3.4-7.9.6-7.9.4 0 .7 4.6.8 7.9.1 4.1.4 7.6 1.4 7.6 1 0 1.3-1.6 1.2-5.1-.1-4.3-.1-10.3.2-10.3.4 0 1.7 4 2 15.3.1 2.9-1.2 5.5-2.8 6.9l-.1.1c-1.1 1-1.4 2.1-1.5 3.1-.1 1.6-.2 3.6-.2 6l8.7 8.7c.1-3.8.1-7.4-.1-10.1-.1-1-.2-2.2-.4-3.1-.1-.3-.2-.6-.2-.8v-33c0-2.8 2.6-4.1 5.1 2 2.4 6.2 1.7 28.1 1.7 29.7 0 .3-.3.7-.8 1.1-.2.1-.4.2-.5.4-1.5 1.2-1.7 2.5-1.7 3.7-.2 2.9-.3 6.8-.4 11l12-12c0-1.4-.1-2.7-.1-3.7 0-.4-.1-.8-.2-1.3-.2-1.2-1.7-2.2-2.6-3.1-1.7-1.7-2.8-4.6-2.8-7.9 0-5.3 2.9-12 6.6-12 3.6 0 6.6 6.7 6.6 12 0 3.3-1.1 6.2-2.8 7.9-.9.9-2.4 1.9-2.6 3.1-.1.4-.2.8-.2 1.3 0 .6-.1 1.4-.1 2.1l16.8-16.8-31.4-31.4-31.4 31.4 19 18.5c0-1.5-.1-2.8-.2-3.9z"/><path fill="#999" d="M-210.3 294.1h7.3c1 0 1.9.1 2.9.2 1 .2 1.9.5 2.6 1 .8.5 1.4 1.2 1.9 2.1.5.9.7 2 .7 3.5 0 1.3-.4 2.4-1.2 3.4-.8 1-1.9 1.6-3.4 1.9v.1c.8.1 1.6.3 2.3.6.7.3 1.3.8 1.8 1.3s.9 1.2 1.2 1.9c.3.7.4 1.6.4 2.4 0 1.5-.3 2.7-.8 3.6-.6.9-1.3 1.6-2.1 2.2-.9.5-1.8.9-2.8 1.1-1 .2-1.9.3-2.8.3h-8.1v-25.6zm2.3 11.1h4.9c1.2 0 2.2-.1 3-.5.8-.3 1.4-.7 1.8-1.1s.7-.9.9-1.4.2-.9.2-1.4c0-.9-.2-1.6-.4-2.2-.3-.6-.7-1.1-1.2-1.4-.5-.3-1.1-.6-1.8-.7-.7-.1-1.4-.2-2.1-.2h-5.3v8.9zm0 12.3h5.4c1.4 0 2.5-.2 3.4-.5.9-.3 1.5-.8 2-1.3s.8-1 .9-1.6c.2-.6.2-1.1.2-1.5 0-.9-.2-1.7-.5-2.4-.4-.7-.8-1.2-1.4-1.6-.6-.4-1.2-.7-2-.9-.7-.2-1.5-.3-2.2-.3h-5.8v10.1zm18.9-9.8v-1.1c0-.4 0-.9-.1-1.3 0-.5 0-.9-.1-1.3v-.9h2.2c0 .6 0 1.2.1 1.8 0 .6 0 .9.1 1.1.6-1 1.3-1.8 2.1-2.4s1.9-.9 3.2-.9c.2 0 .4 0 .6.1l.6.1-.3 2.1c-.3-.1-.6-.1-.8-.1-.9 0-1.7.1-2.4.5-.7.3-1.2.7-1.7 1.2-.4.5-.8 1.1-1 1.9-.2.7-.3 1.5-.3 2.3v9.1h-2.2v-12.2zm25.8 7.2v1.1c0 .4 0 .9.1 1.4 0 .5 0 .9.1 1.3v.9h-2.2c0-.6 0-1.2-.1-1.8 0-.6 0-.9-.1-1.1h-.1c-.4.9-1.2 1.7-2.2 2.4-1 .7-2.2 1-3.5 1-1.3 0-2.4-.2-3.2-.6-.8-.4-1.5-.9-1.9-1.6-.5-.7-.8-1.4-1-2.3-.2-.9-.3-1.8-.3-2.7v-9.9h2.2v9.8c0 .7.1 1.3.2 2 .1.6.3 1.2.6 1.7s.7.9 1.3 1.2c.5.3 1.2.4 2.1.4.8 0 1.5-.1 2.2-.4.7-.3 1.3-.7 1.8-1.3.5-.6.9-1.3 1.2-2.1.3-.9.4-1.9.4-3v-8.3h2.2l.2 11.9zm5.3-7.2v-1.1c0-.4 0-.9-.1-1.3 0-.5 0-.9-.1-1.3v-.9h2.2c0 .6 0 1.2.1 1.8 0 .6 0 .9.1 1.1h.1c.4-.9 1.2-1.7 2.2-2.4 1-.7 2.2-1 3.5-1 1.3 0 2.4.2 3.2.6.8.4 1.5.9 1.9 1.6.5.7.8 1.4 1 2.3.2.9.3 1.8.3 2.7v9.9h-2.2v-9.8c0-.7-.1-1.3-.2-2-.1-.6-.3-1.2-.6-1.7s-.7-.9-1.3-1.2c-.5-.3-1.2-.5-2.1-.5-.8 0-1.5.1-2.2.4-.7.3-1.3.7-1.8 1.3-.5.6-.9 1.3-1.2 2.1-.3.9-.4 1.9-.4 3v8.3h-2.2l-.2-11.9zm33.2 9.5c-.8 1-1.7 1.7-2.8 2.2-1 .5-2.1.7-3.3.7-1.3 0-2.4-.2-3.5-.6s-2-1-2.8-1.8c-.8-.8-1.4-1.7-1.8-2.8-.4-1.1-.6-2.2-.6-3.5 0-1.3.2-2.4.6-3.5.4-1.1 1-2 1.8-2.8.8-.8 1.7-1.4 2.8-1.8 1.1-.4 2.3-.6 3.5-.6 1.2 0 2.4.3 3.4.8s2 1.2 2.8 2.1l-1.7 1.3c-.6-.7-1.3-1.2-2.1-1.6-.7-.4-1.5-.6-2.4-.6-1 0-1.9.2-2.7.5-.8.4-1.5.8-2.1 1.5s-1 1.3-1.3 2.2-.4 1.7-.4 2.6c0 .9.1 1.8.4 2.6.3.8.7 1.5 1.3 2.2s1.3 1.1 2.1 1.5c.8.4 1.7.5 2.7.5.9 0 1.7-.2 2.5-.6.8-.4 1.4-1 2-1.7l1.6 1.2zm3-24.8h2.2v13.5h.1c.4-.9 1.2-1.7 2.2-2.4 1-.7 2.2-1 3.5-1 1.3 0 2.4.2 3.2.6.8.4 1.5.9 1.9 1.6.5.7.8 1.4 1 2.3.2.9.3 1.8.3 2.7v9.9h-2.2v-9.8c0-.7-.1-1.3-.2-2-.1-.6-.3-1.2-.6-1.7s-.7-.9-1.3-1.2c-.5-.3-1.2-.5-2.1-.5-.8 0-1.5.1-2.2.4-.7.3-1.3.7-1.8 1.3-.5.6-.9 1.3-1.2 2.1-.3.9-.4 1.9-.4 3v8.3h-2.2l-.2-27.1z"/></svg>