<svg xmlns="http://www.w3.org/2000/svg" viewBox="0 0 497.1 112" enable-background="new 0 0 497.1 112"><path d="M186.8 112c-6.6-1.4-13.2-2.6-19.8-4.2-8.1-2-8.1-2.1-8.1-10.5l-.2-97.3h16v33.9c9-1 17.8-3 26.6-2.7 14.9.5 24.5 8.8 27.8 23.3 2.8 12.1 2.6 24.4-1.3 36.4-3.9 12-12.7 18.1-24.8 20.1-1.4.2-2.8.8-4.3 1.1-3.9-.1-7.9-.1-11.9-.1zm-12.4-40.5c0 7.3-.2 14.6.1 21.9.1 1.6 1.8 4.2 3.2 4.4 6.5 1.2 13 2.2 19.6 2.3 8 .1 13.3-4.5 15.7-12.1 3.4-10.8 3.8-21.8.8-32.8-1.8-6.7-6.3-11.3-13.2-12.8-8.3-1.8-16.5-.5-24.3 2.6-1 .4-1.8 2.6-1.8 4-.2 7.6-.1 15-.1 22.5zm266.4-71.5v33.9c9-1 17.9-3.1 26.6-2.7 15.2.5 24.7 8.8 28 23.6 2.7 11.9 2.4 24-1.3 35.8-3.8 12.1-12.5 18.2-24.6 20.3-1.2.2-2.4.8-3.6 1.2h-13c-6.4-1.4-12.8-2.7-19.3-4.1-.5-.1-1-.2-1.5-.2-5.1-1-7.3-3.4-7.3-9.3.3-32.8.1-65.6 0-98.3 5.3-.2 10.6-.2 16-.2zm-.2 71v16c0 11.3.2 11.6 11.4 13.1 3.6.5 7.3.5 10.9.2 9.2-.6 14.4-4.8 16.8-13.6 2.5-9.6 3.1-19.3 1-29.1-1.7-7.6-5.8-13.4-13.9-15.2-8.3-1.8-16.5-.5-24.3 2.6-1 .4-1.7 2.6-1.8 4-.2 7.4-.1 14.7-.1 22zm-335.8 41c-4-1.1-8-1.8-11.9-3.2-10-3.7-14.9-11-15-21.7v-54.6h15.4v5.5c.1 15.3 0 30.6.3 46 .2 10.5 5.4 16 15.9 16.4 5.8.2 11.6-.7 17.3-1.4 3.3-.4 4-2.6 3.9-5.7-.1-18.2-.1-36.3-.1-54.5v-6.2h14.7c.1 1.5.3 3.1.3 4.7 0 21.5-.1 43 .1 64.5 0 3.8-1.2 5.4-4.7 5.9-6.5 1-13.1 2.1-19.6 3.3-1.3.2-2.5.7-3.7 1.1-4.3-.1-8.6-.1-12.9-.1zm266 0c-3-.7-6.1-1.4-9.1-2.2-11.7-3.3-17.7-11.2-17.7-23.3v-53.9h15.5v5.3c0 15 0 30 .2 45 .2 12.1 6.4 18 18.4 17.6 4.6-.2 9.2-.9 13.9-1.4 3.5-.4 5-2 5-5.9-.2-18.3-.1-36.7-.1-55v-5.7h14.7c.1 1.5.3 3.1.3 4.7 0 21.5-.1 43 .1 64.5 0 3.4-.8 5.2-4.3 5.7-6.7 1-13.4 2.2-20.1 3.4-1.3.2-2.5.7-3.7 1.1-4.5.1-8.8.1-13.1.1zm-42.5-2.2c-7.4 0-14.5.2-21.6-.2-1.4-.1-3.1-2-3.9-3.5-14-26.7-27.9-53.5-41.8-80.2-.8-1.5-1.7-3-3.3-5.9v89.5h-13.4v-102.3c7.3 0 14.6-.2 21.8.2 1.3.1 2.7 2.5 3.6 4.1 14.3 27.3 28.5 54.6 42.8 82 .5.9 1 1.7 2.2 2.6v-88.5h13.6v102.2zm-314-.3h-14.3v-103c16.4.6 32.6 0 48.5 2 15.6 2 21.3 13.3 19.7 30-1.6 16.9-11.1 24.8-28.1 25.3-6.8.2-13.7.4-20.5.1-4.1-.2-5 1.3-5 5.2.2 13 0 26 0 39 0 .3-.1.7-.3 1.4zm.7-56.3c7.7 0 14.8.3 22-.1 9.1-.4 14.4-4.5 15.6-12.4 1.5-10.7.4-19.6-10.2-21.6-8.8-1.6-18-1.3-27.4-1.8v35.9z" fill="#999"/></svg>