<?xml version="1.0" encoding="UTF-8" standalone="no"?>
<svg width="54px" height="40px" viewBox="0 0 54 40" version="1.1" xmlns="http://www.w3.org/2000/svg" xmlns:xlink="http://www.w3.org/1999/xlink" xmlns:sketch="http://www.bohemiancoding.com/sketch/ns">
    <!-- Generator: Sketch 3.2.1 (9971) - http://www.bohemiancoding.com/sketch -->
    <title>Mac_flip</title>
    <desc>Created with Sketch.</desc>
    <defs></defs>
    <g id="Page-1" stroke="none" stroke-width="1" fill="none" fill-rule="evenodd" sketch:type="MSPage">
        <g id="Mac_flip" sketch:type="MSArtboardGroup">
            <g id="comp" sketch:type="MSLayerGroup" transform="translate(1.000000, 2.000000)">
                <rect id="Rectangle-314" fill="#D8D8D8" sketch:type="MSShapeGroup" x="0" y="0" width="52" height="30" rx="3"></rect>
                <path d="M32.4648214,15.7761522 C30.154038,13.3352588 21.0392465,13.0476187 18.601995,15.5873089 C18.218211,15.9872236 18,28.4572433 18,29 C18.0000001,33.5 16,36 16,36 L35,36 C35,36 33,33.0000001 33,29 C33,28.546291 32.8070139,16.137612 32.4648214,15.7761522 Z" id="Rectangle-318" fill="#CACACA" sketch:type="MSShapeGroup"></path>
            </g>
            <path d="M25.8100808,13.8200306 C26.185965,13.9369907 26.5856242,13.4999999 27,13.4999999 C27.462225,13.4999999 27.9061385,13.9215988 28.3191676,13.7773691 C29.2177066,13.4635996 30.4468334,12.0308627 30.4468334,12.0308627 C30.4468334,12.0308627 29,10.7413501 29,10.0000001 C29,9.33653272 30.5525896,8.15996197 30.5525896,8.15996197 C30.5525896,8.15996197 30.1349194,7.48446586 29.8592168,7.20269934 C29.1330608,6.46057177 28.1203166,7.5 27,7.5 C25.9109619,7.5 24.9235732,6.4352131 24.2022707,7.1412026 C23.4603944,7.86732912 23,8.87989912 23,10 C23,11.7947632 24.1820344,13.3134475 25.8100808,13.8200306 Z" id="Oval-325" fill="#535353" sketch:type="MSShapeGroup"></path>
            <ellipse id="Oval-326" fill="#535353" sketch:type="MSShapeGroup" transform="translate(27.500000, 6.000000) rotate(30.000000) translate(-27.500000, -6.000000) " cx="27.5" cy="6" rx="0.5" ry="1"></ellipse>
        </g>
    </g>
</svg>