<?xml version="1.0" encoding="UTF-8" standalone="no"?>
<svg width="50px" height="30px" viewBox="0 0 50 30" version="1.1" xmlns="http://www.w3.org/2000/svg" xmlns:xlink="http://www.w3.org/1999/xlink" xmlns:sketch="http://www.bohemiancoding.com/sketch/ns">
    <!-- Generator: Sketch 3.2.1 (9971) - http://www.bohemiancoding.com/sketch -->
    <title>plant</title>
    <desc>Created with Sketch.</desc>
    <defs></defs>
    <g id="Page-1" stroke="none" stroke-width="1" fill="none" fill-rule="evenodd" sketch:type="MSPage">
        <g id="plant" sketch:type="MSArtboardGroup">
            <path d="M25.5,19.5 C25,10.5 10,10.5 10,10.5" id="Path-59" stroke="#658B3D" stroke-linecap="round" stroke-linejoin="round" sketch:type="MSShapeGroup"></path>
            <path d="M26,20 C25,10.5 14.5,18 14.5,18" id="Path-60" stroke="#437830" stroke-linecap="round" stroke-linejoin="round" sketch:type="MSShapeGroup"></path>
            <path d="M26,19.5 C25,11 8.5,15.5 8.5,15.5" id="Path-61" stroke="#355C27" stroke-linecap="round" stroke-linejoin="round" sketch:type="MSShapeGroup"></path>
            <path d="M26,19 C26.5,2 8,6.5 8,6.5" id="Path-62" stroke="#658B3D" stroke-linecap="round" stroke-linejoin="round" sketch:type="MSShapeGroup"></path>
            <path d="M26.5,19 C22.5,2.5 13,9 13,9" id="Path-63" stroke="#437830" stroke-linecap="round" stroke-linejoin="round" sketch:type="MSShapeGroup"></path>
            <path d="M26,19.5 C27,-2.39808173e-14 32,4 32,4" id="Path-64" stroke="#355C27" stroke-linecap="round" stroke-linejoin="round" sketch:type="MSShapeGroup"></path>
            <path d="M26.5,19.5 C27.5,4 36,8 36,8" id="Path-65" stroke="#437830" stroke-linecap="round" stroke-linejoin="round" sketch:type="MSShapeGroup"></path>
            <path d="M26,19 C26,4.5 35.5,16 35.5,16" id="Path-66" stroke="#658B3D" stroke-linecap="round" stroke-linejoin="round" sketch:type="MSShapeGroup"></path>
            <path d="M27.5,19 C27.5,4.5 41.5,15 41.5,15" id="Path-67" stroke="#355C27" stroke-linecap="round" stroke-linejoin="round" sketch:type="MSShapeGroup"></path>
            <path d="M26.5,19 C26.5,-1.42108547e-14 17,2 17,2" id="Path-68" stroke="#437830" stroke-linecap="round" stroke-linejoin="round" sketch:type="MSShapeGroup"></path>
            <ellipse id="Oval-328" fill="#E0BD96" sketch:type="MSShapeGroup" cx="26" cy="21" rx="4" ry="6"></ellipse>
            <path d="M18.2288028,28.6784525 C18.5838006,28.7949084 18.9457537,28.9024334 19.3142857,29 L25.4857143,29 L31.6571429,29 C38.8571429,27 44,23.0134127 44,20 C40.9142857,20 35.4268398,20.5 25.4857143,20.5 C15.5445888,20.5 12.1142857,20 8,20 C8.11224538,22.0734216 12.1512561,26.6847327 18.2288028,28.6784525 Z" id="Oval-327" fill="#3F6989" sketch:type="MSShapeGroup"></path>
        </g>
    </g>
</svg>