<?xml version="1.0" encoding="UTF-8" standalone="no"?>
<svg width="26px" height="23px" viewBox="0 0 26 23" version="1.1" xmlns="http://www.w3.org/2000/svg" xmlns:xlink="http://www.w3.org/1999/xlink" xmlns:sketch="http://www.bohemiancoding.com/sketch/ns">
    <!-- Generator: Sketch 3.2.1 (9971) - http://www.bohemiancoding.com/sketch -->
    <title>present_3</title>
    <desc>Created with Sketch.</desc>
    <defs>
        <path id="path-1" d="M0,4 L13,0 L13,12 L0,16 L0,4 Z"></path>
        <path id="path-3" d="M13,0 L26,4 L13,8.5 L0,4 L13,0 Z"></path>
    </defs>
    <g id="Page-1" stroke="none" stroke-width="1" fill="none" fill-rule="evenodd" sketch:type="MSPage">
        <g id="present_3" sketch:type="MSArtboardGroup" transform="translate(-1.000000, 0.000000)">
            <g id="Group" sketch:type="MSLayerGroup" transform="translate(1.000000, 1.000000)">
                <path d="M13,10 L26,6 L26,18 L13,22 L13,10 Z" id="Rectangle-490" fill="#E90B12" sketch:type="MSShapeGroup"></path>
                <g id="Rectangle-494-+-Rectangle-495" transform="translate(13.000000, 6.000000)">
                    <mask id="mask-2" sketch:name="Rectangle 494" fill="white">
                        <use xlink:href="#path-1"></use>
                    </mask>
                    <use id="Rectangle-494" fill="#E90B12" sketch:type="MSShapeGroup" xlink:href="#path-1"></use>
                    <path d="M4.5,3 L8.5,0.5 L8.5,13.5 L4.5,15 L4.5,3 Z" id="Rectangle-495" fill="#F7F600" sketch:type="MSShapeGroup" mask="url(#mask-2)"></path>
                </g>
                <path d="M0,6 L13,10 L13,22 L0,18 L0,6 Z" id="Rectangle-491" fill="#CB0C11" sketch:type="MSShapeGroup"></path>
                <path d="M4,7.40000153 L8,8.70000076 L8,20.5 L4,19.2000008 L4,7.40000153 Z" id="Rectangle-493" fill="#D7D713" sketch:type="MSShapeGroup"></path>
                <g id="Rectangle-492-+-Rectangle-496" transform="translate(0.000000, 2.000000)">
                    <mask id="mask-4" sketch:name="Rectangle 492" fill="white">
                        <use xlink:href="#path-3"></use>
                    </mask>
                    <use id="Rectangle-492" fill="#F7161C" sketch:type="MSShapeGroup" xlink:href="#path-3"></use>
                    <path d="M17,1 L22.5,2 L7.5,7 L3.5,5.5 L17,1 Z" id="Rectangle-496" fill="#FEFD00" sketch:type="MSShapeGroup" mask="url(#mask-4)"></path>
                    <path d="M16,1 L21.5,2 L7,7.20000076 L3.5,5.60000038 L16,1 Z" id="Rectangle-497" fill="#FEFD00" sketch:type="MSShapeGroup" mask="url(#mask-4)">
                        <g transform="translate(12.500000, 4.100000) scale(-1, 1) translate(-12.500000, -4.100000) "></g>
                    </path>
                </g>
                <path d="M12.5,5 C6.49999999,-4.99999991 -0.499999802,6.0000001 10.0000002,6.00000009" id="Path-43" stroke="#FFFE00" stroke-width="3" sketch:type="MSShapeGroup"></path>
                <path d="M21.5,5 C15.5,-4.99999991 8.5000002,6.0000001 19.0000002,6.00000009" id="Path-44" stroke="#FFFE00" stroke-width="3" sketch:type="MSShapeGroup" transform="translate(17.547344, 3.400391) scale(-1, 1) translate(-17.547344, -3.400391) "></path>
            </g>
        </g>
    </g>
</svg>