<?xml version="1.0" encoding="UTF-8" standalone="no"?>
<svg width="28px" height="23px" viewBox="0 0 28 23" version="1.1" xmlns="http://www.w3.org/2000/svg" xmlns:xlink="http://www.w3.org/1999/xlink" xmlns:sketch="http://www.bohemiancoding.com/sketch/ns">
    <!-- Generator: Sketch 3.2.1 (9971) - http://www.bohemiancoding.com/sketch -->
    <title>present_3</title>
    <desc>Created with Sketch.</desc>
    <defs>
        <path id="path-1" d="M0,4 L13,0 L13,12 L0,16 L0,4 Z"></path>
        <path id="path-3" d="M13,0 L26,4 L13,8.5 L0,4 L13,0 Z"></path>
    </defs>
    <g id="Page-1" stroke="none" stroke-width="1" fill="none" fill-rule="evenodd" sketch:type="MSPage">
        <g id="present_3" sketch:type="MSArtboardGroup">
            <path d="M14,11 L27,7 L27,19 L14,23 L14,11 Z" id="Rectangle-490" fill="#E90B12" sketch:type="MSShapeGroup"></path>
            <g id="Rectangle-494-+-Rectangle-495" sketch:type="MSLayerGroup" transform="translate(14.000000, 7.000000)">
                <mask id="mask-2" sketch:name="Rectangle 494" fill="white">
                    <use xlink:href="#path-1"></use>
                </mask>
                <use id="Rectangle-494" fill="#E90B12" sketch:type="MSShapeGroup" xlink:href="#path-1"></use>
                <path d="M4.5,3 L8.5,0.5 L8.5,13.5 L4.5,15 L4.5,3 Z" id="Rectangle-495" fill="#F7F600" sketch:type="MSShapeGroup" mask="url(#mask-2)"></path>
            </g>
            <path d="M1,7 L14,11 L14,23 L1,19 L1,7 Z" id="Rectangle-491" fill="#CB0C11" sketch:type="MSShapeGroup"></path>
            <path d="M5,8.40000153 L9,9.70000076 L9,21.5 L5,20.2000008 L5,8.40000153 Z" id="Rectangle-493" fill="#D7D713" sketch:type="MSShapeGroup"></path>
            <g id="Rectangle-492-+-Rectangle-496" sketch:type="MSLayerGroup" transform="translate(1.000000, 3.000000)">
                <mask id="mask-4" sketch:name="Rectangle 492" fill="white">
                    <use xlink:href="#path-3"></use>
                </mask>
                <use id="Rectangle-492" fill="#F7161C" sketch:type="MSShapeGroup" xlink:href="#path-3"></use>
                <path d="M17,1 L22.5,2 L7.5,7 L3.5,5.5 L17,1 Z" id="Rectangle-496" fill="#FEFD00" sketch:type="MSShapeGroup" mask="url(#mask-4)"></path>
                <path d="M16,1 L21.5,2 L7,7.20000076 L3.5,5.60000038 L16,1 Z" id="Rectangle-497" fill="#FEFD00" sketch:type="MSShapeGroup" mask="url(#mask-4)">
                    <g transform="translate(12.500000, 4.100000) scale(-1, 1) translate(-12.500000, -4.100000) "></g>
                </path>
            </g>
            <path d="M13.5,6 C7.49999999,-3.99999991 0.500000198,7.0000001 11.0000002,7.00000009" id="Path-43" stroke="#FFFE00" stroke-width="3" sketch:type="MSShapeGroup"></path>
            <path d="M22.5,6 C16.5,-3.99999991 9.5000002,7.0000001 20.0000002,7.00000009" id="Path-44" stroke="#FFFE00" stroke-width="3" sketch:type="MSShapeGroup" transform="translate(18.547344, 4.400391) scale(-1, 1) translate(-18.547344, -4.400391) "></path>
        </g>
    </g>
</svg>