<?xml version="1.0" encoding="UTF-8" standalone="no"?>
<svg width="65px" height="81px" viewBox="0 0 65 81" version="1.1" xmlns="http://www.w3.org/2000/svg" xmlns:xlink="http://www.w3.org/1999/xlink" xmlns:sketch="http://www.bohemiancoding.com/sketch/ns">
    <!-- Generator: Sketch 3.2.1 (9971) - http://www.bohemiancoding.com/sketch -->
    <title>rob</title>
    <desc>Created with Sketch.</desc>
    <defs>
        <filter x="-50%" y="-50%" width="200%" height="200%" filterUnits="objectBoundingBox" id="filter-1">
            <feOffset dx="-1" dy="-1" in="SourceAlpha" result="shadowOffsetInner1"></feOffset>
            <feGaussianBlur stdDeviation="1" in="shadowOffsetInner1" result="shadowBlurInner1"></feGaussianBlur>
            <feComposite in="shadowBlurInner1" in2="SourceAlpha" operator="arithmetic" k2="-1" k3="1" result="shadowInnerInner1"></feComposite>
            <feColorMatrix values="0 0 0 0 0   0 0 0 0 0   0 0 0 0 0  0 0 0 0.145615376 0" in="shadowInnerInner1" type="matrix" result="shadowMatrixInner1"></feColorMatrix>
            <feMerge>
                <feMergeNode in="SourceGraphic"></feMergeNode>
                <feMergeNode in="shadowMatrixInner1"></feMergeNode>
            </feMerge>
        </filter>
        <filter x="-50%" y="-50%" width="200%" height="200%" filterUnits="objectBoundingBox" id="filter-2">
            <feOffset dx="3" dy="-1" in="SourceAlpha" result="shadowOffsetInner1"></feOffset>
            <feGaussianBlur stdDeviation="1" in="shadowOffsetInner1" result="shadowBlurInner1"></feGaussianBlur>
            <feComposite in="shadowBlurInner1" in2="SourceAlpha" operator="arithmetic" k2="-1" k3="1" result="shadowInnerInner1"></feComposite>
            <feColorMatrix values="0 0 0 0 0   0 0 0 0 0   0 0 0 0 0  0 0 0 0.145615376 0" in="shadowInnerInner1" type="matrix" result="shadowMatrixInner1"></feColorMatrix>
            <feMerge>
                <feMergeNode in="SourceGraphic"></feMergeNode>
                <feMergeNode in="shadowMatrixInner1"></feMergeNode>
            </feMerge>
        </filter>
        <filter x="-50%" y="-50%" width="200%" height="200%" filterUnits="objectBoundingBox" id="filter-3">
            <feOffset dx="1" dy="-1" in="SourceAlpha" result="shadowOffsetInner1"></feOffset>
            <feGaussianBlur stdDeviation="1" in="shadowOffsetInner1" result="shadowBlurInner1"></feGaussianBlur>
            <feComposite in="shadowBlurInner1" in2="SourceAlpha" operator="arithmetic" k2="-1" k3="1" result="shadowInnerInner1"></feComposite>
            <feColorMatrix values="0 0 0 0 0   0 0 0 0 0   0 0 0 0 0  0 0 0 0.35 0" in="shadowInnerInner1" type="matrix" result="shadowMatrixInner1"></feColorMatrix>
            <feMerge>
                <feMergeNode in="SourceGraphic"></feMergeNode>
                <feMergeNode in="shadowMatrixInner1"></feMergeNode>
            </feMerge>
        </filter>
        <filter x="-50%" y="-50%" width="200%" height="200%" filterUnits="objectBoundingBox" id="filter-4">
            <feOffset dx="1" dy="-1" in="SourceAlpha" result="shadowOffsetInner1"></feOffset>
            <feGaussianBlur stdDeviation="1" in="shadowOffsetInner1" result="shadowBlurInner1"></feGaussianBlur>
            <feComposite in="shadowBlurInner1" in2="SourceAlpha" operator="arithmetic" k2="-1" k3="1" result="shadowInnerInner1"></feComposite>
            <feColorMatrix values="0 0 0 0 0   0 0 0 0 0   0 0 0 0 0  0 0 0 0.35 0" in="shadowInnerInner1" type="matrix" result="shadowMatrixInner1"></feColorMatrix>
            <feMerge>
                <feMergeNode in="SourceGraphic"></feMergeNode>
                <feMergeNode in="shadowMatrixInner1"></feMergeNode>
            </feMerge>
        </filter>
        <filter x="-50%" y="-50%" width="200%" height="200%" filterUnits="objectBoundingBox" id="filter-5">
            <feOffset dx="2" dy="-2" in="SourceAlpha" result="shadowOffsetInner1"></feOffset>
            <feGaussianBlur stdDeviation="1" in="shadowOffsetInner1" result="shadowBlurInner1"></feGaussianBlur>
            <feComposite in="shadowBlurInner1" in2="SourceAlpha" operator="arithmetic" k2="-1" k3="1" result="shadowInnerInner1"></feComposite>
            <feColorMatrix values="0 0 0 0 0   0 0 0 0 0   0 0 0 0 0  0 0 0 0.180013021 0" in="shadowInnerInner1" type="matrix" result="shadowMatrixInner1"></feColorMatrix>
            <feMerge>
                <feMergeNode in="SourceGraphic"></feMergeNode>
                <feMergeNode in="shadowMatrixInner1"></feMergeNode>
            </feMerge>
        </filter>
        <ellipse id="path-6" cx="28.5" cy="25" rx="28.5" ry="25"></ellipse>
        <filter x="-50%" y="-50%" width="200%" height="200%" filterUnits="objectBoundingBox" id="filter-8">
            <feOffset dx="0" dy="-0.200000003" in="SourceAlpha" result="shadowOffsetInner1"></feOffset>
            <feGaussianBlur stdDeviation="0" in="shadowOffsetInner1" result="shadowBlurInner1"></feGaussianBlur>
            <feComposite in="shadowBlurInner1" in2="SourceAlpha" operator="arithmetic" k2="-1" k3="1" result="shadowInnerInner1"></feComposite>
            <feColorMatrix values="0 0 0 0 0.428571429   0 0 0 0 0.303376963   0 0 0 0 0.222952178  0 0 0 0.294202899 0" in="shadowInnerInner1" type="matrix" result="shadowMatrixInner1"></feColorMatrix>
            <feMerge>
                <feMergeNode in="SourceGraphic"></feMergeNode>
                <feMergeNode in="shadowMatrixInner1"></feMergeNode>
            </feMerge>
        </filter>
    </defs>
    <g id="Page-1" stroke="none" stroke-width="1" fill="none" fill-rule="evenodd" sketch:type="MSPage">
        <g id="rob" sketch:type="MSArtboardGroup">
            <ellipse id="Oval-450" fill="#B46C6C" filter="url(#filter-1)" sketch:type="MSShapeGroup" cx="49.5" cy="53" rx="6.5" ry="6"></ellipse>
            <ellipse id="Oval-451" fill="#B46C6C" filter="url(#filter-2)" sketch:type="MSShapeGroup" cx="16.5" cy="53" rx="6.5" ry="6"></ellipse>
            <circle id="Oval-452" fill="#555555" filter="url(#filter-3)" sketch:type="MSShapeGroup" cx="41" cy="74" r="6"></circle>
            <circle id="Oval-453" fill="#555555" filter="url(#filter-4)" sketch:type="MSShapeGroup" cx="25" cy="74" r="6"></circle>
            <rect id="Rectangle-528" fill="#B46C6C" filter="url(#filter-5)" sketch:type="MSShapeGroup" x="18" y="47" width="30" height="27"></rect>
            <path d="M37,51 C38.5,52 38.5,54.5 38,56 C37.5,57.5 38,60.5 38,60.5" id="Path-92" stroke="#D9D7D7" stroke-linecap="round" sketch:type="MSShapeGroup"></path>
            <path d="M26.1296195,51 C25.8305814,53.5 26.1296195,54.5 27.1296195,56 C28.1296195,57.5 26.1296195,61.5 26.1296195,61.5" id="Path-93" stroke="#D9D7D7" stroke-linecap="round" sketch:type="MSShapeGroup" transform="translate(26.714329, 56.250000) scale(-1, 1) translate(-26.714329, -56.250000) "></path>
            <path d="M32.5,65.5 L32.5,74" id="Path-91" stroke="#D9D7D7" sketch:type="MSShapeGroup"></path>
            <path d="M32.5,65.9999992 C32.5,65.9999992 34,55 36,50 C35.1358903,45.3091186 29.9237621,44.9852914 29,50 C31,54.5 32.5,65.9999992 32.5,65.9999992 Z" id="Oval-493" stroke="#D9D7D7" fill="#AEAEAE" sketch:type="MSShapeGroup"></path>
            <g id="Oval-449-+-Oval-458" sketch:type="MSLayerGroup" transform="translate(4.000000, 2.000000)">
                <mask id="mask-7" sketch:name="Oval 449" fill="white">
                    <use xlink:href="#path-6"></use>
                </mask>
                <use id="Oval-449" fill="#E2AE89" sketch:type="MSShapeGroup" xlink:href="#path-6"></use>
                <path d="M-1,40.3331577 C-1,40.3331577 11,28.9998243 25,28.9998243 C28.1741618,28.9998243 36.7210168,29.9071264 43.5,32.9998243 C50.9379635,36.3931613 56.5,41.9998243 56.5,41.9998243 C56.5,41.9998243 52.5650391,51.0459348 52.5,50.9998243 C51.3425839,50.1792555 44.3736715,32.0379819 25,31.4998243 C7,30.9998243 -3,50.9998243 -3,50.9998243 L-1,40.3331577 Z" id="Rectangle-534" fill-opacity="0.185552731" sketch:type="MSShapeGroup" mask="url(#mask-7)">
                    <g transform="translate(26.750000, 39.999912) rotate(-180.000000) translate(-26.750000, -39.999912) "></g>
                </path>
                <path d="M12.5,43 C12.5,43 15.0990541,39.1383345 17.7354268,37.9080272 C20.3717995,36.67772 25.4333207,37 28.5,37 C31.7933886,37 37.4976874,36.8719781 39.4988437,37.935989 C41.5,38.9999999 45,43 45,43 L41.5,45 C41.5,45 40.5,40.7309546 39.5039761,39.9353879 C38.5079522,39.1398212 31.9797107,39 29,39 C25.5572332,39 19,39 17.6141029,39.9243859 C16.2282059,40.8487717 15.5,45 15.5,45 L12.5,43 Z" id="Rectangle-533" fill-opacity="0.185552731" sketch:type="MSShapeGroup" mask="url(#mask-7)"></path>
                <ellipse id="Oval-458" fill="#3C2412" sketch:type="MSShapeGroup" mask="url(#mask-7)" cx="-0.5" cy="13" rx="7.5" ry="18">
                    <g transform="translate(-0.500000, 13.000000) rotate(6.000000) translate(0.500000, -13.000000) "></g>
                </ellipse>
                <ellipse id="Oval-459" fill="#3C2412" sketch:type="MSShapeGroup" mask="url(#mask-7)" cx="56.1875" cy="10.6875" rx="7.5" ry="18">
                    <g transform="translate(56.187500, 10.687500) scale(-1, 1) rotate(6.000000) translate(-56.187500, -10.687500) "></g>
                </ellipse>
                <path d="M50.5,3 C49,12 38.4999983,12.5 33.4999983,11 C28.4999983,9.5 16.5,15 9.5,16 C2.5,17 0,10 0,10 L7.50000023,-3.5 L34.5,-2 C34.5,-2 55,-1 50.5,3 Z" id="Path-94" fill="#3C2412" filter="url(#filter-8)" sketch:type="MSShapeGroup" mask="url(#mask-7)"></path>
                <path d="M15.5000001,17.5 C15.5000001,17.5 14.1145881,17.6062587 13.5,16.5 C12.8854118,15.3937413 13,13 13,13 L15,13 L15.5000001,17.5 Z" id="Path-110" fill="#3D2413" sketch:type="MSShapeGroup" mask="url(#mask-7)"></path>
                <path d="M31.9999998,10.4999999 C26.4999998,11.4999999 17.5,3 16,8.5 C14.5,14 15.5,17.5000003 15.5,17.5000003" id="Path-108" stroke="#4E301B" stroke-width="0.5" stroke-linecap="round" stroke-linejoin="round" sketch:type="MSShapeGroup" mask="url(#mask-7)"></path>
                <path d="M32.9999998,9.49999983 C27.4999998,10.4999998 15.5,1 14,6.5 C12.5,12 13.5,16.5000003 13.5,16.5000003" id="Path-109" stroke="#4E301B" stroke-width="0.5" stroke-linecap="round" stroke-linejoin="round" sketch:type="MSShapeGroup" mask="url(#mask-7)"></path>
            </g>
            <path d="M23.9754518,29.8668995 C23.8044924,27.6813844 22.7613319,26 21.5,26 C20.1192881,26 19,28.0147186 19,30.5 C19,31.9919822 19.4033834,33.314377 20.0245482,34.1331005 C20.0083676,33.9262502 20,33.714884 20,33.5 C20,31.0147186 21.1192881,29 22.5,29 C23.0518329,29 23.5619064,29.3218277 23.9754518,29.8668995 Z" id="Oval-461" fill="#555555" sketch:type="MSShapeGroup"></path>
            <path d="M43.9754518,29.8668995 C43.8044924,27.6813844 42.7613319,26 41.5,26 C40.1192881,26 39,28.0147186 39,30.5 C39,31.9919822 39.4033834,33.314377 40.0245482,34.1331005 C40.0083676,33.9262502 40,33.714884 40,33.5 C40,31.0147186 41.1192881,29 42.5,29 C43.0518329,29 43.5619064,29.3218277 43.9754518,29.8668995 Z" id="Oval-463" fill="#555555" sketch:type="MSShapeGroup"></path>
            <path d="M42.8578281,43.9123785 C42.0321241,45.0968682 37.7090313,46 32.5,46 C27.2909687,46 22.9678759,45.0968682 22.1421719,43.9123785 C24.7648071,44.5691722 28.902231,45 32.5,45 C36.097769,45 40.2351929,44.5691722 42.8578281,43.9123785 Z" id="Oval-465" fill="#555555" sketch:type="MSShapeGroup"></path>
        </g>
    </g>
</svg>