<?xml version="1.0" encoding="UTF-8" standalone="no"?>
<svg width="281px" height="164px" viewBox="0 0 281 164" version="1.1" xmlns="http://www.w3.org/2000/svg" xmlns:xlink="http://www.w3.org/1999/xlink" xmlns:sketch="http://www.bohemiancoding.com/sketch/ns">
    <!-- Generator: Sketch 3.2.1 (9971) - http://www.bohemiancoding.com/sketch -->
    <title>tree</title>
    <desc>Created with Sketch.</desc>
    <defs>
        <filter x="-50%" y="-50%" width="200%" height="200%" filterUnits="objectBoundingBox" id="filter-1">
            <feOffset dx="0" dy="-2" in="SourceAlpha" result="shadowOffsetInner1"></feOffset>
            <feGaussianBlur stdDeviation="1.5" in="shadowOffsetInner1" result="shadowBlurInner1"></feGaussianBlur>
            <feComposite in="shadowBlurInner1" in2="SourceAlpha" operator="arithmetic" k2="-1" k3="1" result="shadowInnerInner1"></feComposite>
            <feColorMatrix values="0 0 0 0 0   0 0 0 0 0   0 0 0 0 0  0 0 0 0.35 0" in="shadowInnerInner1" type="matrix" result="shadowMatrixInner1"></feColorMatrix>
            <feMerge>
                <feMergeNode in="SourceGraphic"></feMergeNode>
                <feMergeNode in="shadowMatrixInner1"></feMergeNode>
            </feMerge>
        </filter>
        <filter x="-50%" y="-50%" width="200%" height="200%" filterUnits="objectBoundingBox" id="filter-2">
            <feOffset dx="0" dy="-2" in="SourceAlpha" result="shadowOffsetInner1"></feOffset>
            <feGaussianBlur stdDeviation="1.5" in="shadowOffsetInner1" result="shadowBlurInner1"></feGaussianBlur>
            <feComposite in="shadowBlurInner1" in2="SourceAlpha" operator="arithmetic" k2="-1" k3="1" result="shadowInnerInner1"></feComposite>
            <feColorMatrix values="0 0 0 0 0   0 0 0 0 0   0 0 0 0 0  0 0 0 0.35 0" in="shadowInnerInner1" type="matrix" result="shadowMatrixInner1"></feColorMatrix>
            <feMerge>
                <feMergeNode in="SourceGraphic"></feMergeNode>
                <feMergeNode in="shadowMatrixInner1"></feMergeNode>
            </feMerge>
        </filter>
        <filter x="-50%" y="-50%" width="200%" height="200%" filterUnits="objectBoundingBox" id="filter-3">
            <feOffset dx="0" dy="-2" in="SourceAlpha" result="shadowOffsetInner1"></feOffset>
            <feGaussianBlur stdDeviation="1.5" in="shadowOffsetInner1" result="shadowBlurInner1"></feGaussianBlur>
            <feComposite in="shadowBlurInner1" in2="SourceAlpha" operator="arithmetic" k2="-1" k3="1" result="shadowInnerInner1"></feComposite>
            <feColorMatrix values="0 0 0 0 0   0 0 0 0 0   0 0 0 0 0  0 0 0 0.35 0" in="shadowInnerInner1" type="matrix" result="shadowMatrixInner1"></feColorMatrix>
            <feMerge>
                <feMergeNode in="SourceGraphic"></feMergeNode>
                <feMergeNode in="shadowMatrixInner1"></feMergeNode>
            </feMerge>
        </filter>
        <filter x="-50%" y="-50%" width="200%" height="200%" filterUnits="objectBoundingBox" id="filter-4">
            <feOffset dx="0" dy="-2" in="SourceAlpha" result="shadowOffsetInner1"></feOffset>
            <feGaussianBlur stdDeviation="1.5" in="shadowOffsetInner1" result="shadowBlurInner1"></feGaussianBlur>
            <feComposite in="shadowBlurInner1" in2="SourceAlpha" operator="arithmetic" k2="-1" k3="1" result="shadowInnerInner1"></feComposite>
            <feColorMatrix values="0 0 0 0 0   0 0 0 0 0   0 0 0 0 0  0 0 0 0.35 0" in="shadowInnerInner1" type="matrix" result="shadowMatrixInner1"></feColorMatrix>
            <feMerge>
                <feMergeNode in="SourceGraphic"></feMergeNode>
                <feMergeNode in="shadowMatrixInner1"></feMergeNode>
            </feMerge>
        </filter>
        <filter x="-50%" y="-50%" width="200%" height="200%" filterUnits="objectBoundingBox" id="filter-5">
            <feOffset dx="0" dy="-2" in="SourceAlpha" result="shadowOffsetInner1"></feOffset>
            <feGaussianBlur stdDeviation="1.5" in="shadowOffsetInner1" result="shadowBlurInner1"></feGaussianBlur>
            <feComposite in="shadowBlurInner1" in2="SourceAlpha" operator="arithmetic" k2="-1" k3="1" result="shadowInnerInner1"></feComposite>
            <feColorMatrix values="0 0 0 0 0   0 0 0 0 0   0 0 0 0 0  0 0 0 0.35 0" in="shadowInnerInner1" type="matrix" result="shadowMatrixInner1"></feColorMatrix>
            <feMerge>
                <feMergeNode in="SourceGraphic"></feMergeNode>
                <feMergeNode in="shadowMatrixInner1"></feMergeNode>
            </feMerge>
        </filter>
        <filter x="-50%" y="-50%" width="200%" height="200%" filterUnits="objectBoundingBox" id="filter-6">
            <feOffset dx="0" dy="-2" in="SourceAlpha" result="shadowOffsetInner1"></feOffset>
            <feGaussianBlur stdDeviation="1.5" in="shadowOffsetInner1" result="shadowBlurInner1"></feGaussianBlur>
            <feComposite in="shadowBlurInner1" in2="SourceAlpha" operator="arithmetic" k2="-1" k3="1" result="shadowInnerInner1"></feComposite>
            <feColorMatrix values="0 0 0 0 0   0 0 0 0 0   0 0 0 0 0  0 0 0 0.35 0" in="shadowInnerInner1" type="matrix" result="shadowMatrixInner1"></feColorMatrix>
            <feMerge>
                <feMergeNode in="SourceGraphic"></feMergeNode>
                <feMergeNode in="shadowMatrixInner1"></feMergeNode>
            </feMerge>
        </filter>
        <filter x="-50%" y="-50%" width="200%" height="200%" filterUnits="objectBoundingBox" id="filter-7">
            <feOffset dx="0" dy="-2" in="SourceAlpha" result="shadowOffsetInner1"></feOffset>
            <feGaussianBlur stdDeviation="1.5" in="shadowOffsetInner1" result="shadowBlurInner1"></feGaussianBlur>
            <feComposite in="shadowBlurInner1" in2="SourceAlpha" operator="arithmetic" k2="-1" k3="1" result="shadowInnerInner1"></feComposite>
            <feColorMatrix values="0 0 0 0 0   0 0 0 0 0   0 0 0 0 0  0 0 0 0.35 0" in="shadowInnerInner1" type="matrix" result="shadowMatrixInner1"></feColorMatrix>
            <feMerge>
                <feMergeNode in="SourceGraphic"></feMergeNode>
                <feMergeNode in="shadowMatrixInner1"></feMergeNode>
            </feMerge>
        </filter>
        <filter x="-50%" y="-50%" width="200%" height="200%" filterUnits="objectBoundingBox" id="filter-8">
            <feOffset dx="0" dy="-2" in="SourceAlpha" result="shadowOffsetInner1"></feOffset>
            <feGaussianBlur stdDeviation="1.5" in="shadowOffsetInner1" result="shadowBlurInner1"></feGaussianBlur>
            <feComposite in="shadowBlurInner1" in2="SourceAlpha" operator="arithmetic" k2="-1" k3="1" result="shadowInnerInner1"></feComposite>
            <feColorMatrix values="0 0 0 0 0   0 0 0 0 0   0 0 0 0 0  0 0 0 0.35 0" in="shadowInnerInner1" type="matrix" result="shadowMatrixInner1"></feColorMatrix>
            <feMerge>
                <feMergeNode in="SourceGraphic"></feMergeNode>
                <feMergeNode in="shadowMatrixInner1"></feMergeNode>
            </feMerge>
        </filter>
        <filter x="-50%" y="-50%" width="200%" height="200%" filterUnits="objectBoundingBox" id="filter-9">
            <feOffset dx="0" dy="-2" in="SourceAlpha" result="shadowOffsetInner1"></feOffset>
            <feGaussianBlur stdDeviation="1.5" in="shadowOffsetInner1" result="shadowBlurInner1"></feGaussianBlur>
            <feComposite in="shadowBlurInner1" in2="SourceAlpha" operator="arithmetic" k2="-1" k3="1" result="shadowInnerInner1"></feComposite>
            <feColorMatrix values="0 0 0 0 0   0 0 0 0 0   0 0 0 0 0  0 0 0 0.35 0" in="shadowInnerInner1" type="matrix" result="shadowMatrixInner1"></feColorMatrix>
            <feMerge>
                <feMergeNode in="SourceGraphic"></feMergeNode>
                <feMergeNode in="shadowMatrixInner1"></feMergeNode>
            </feMerge>
        </filter>
        <filter x="-50%" y="-50%" width="200%" height="200%" filterUnits="objectBoundingBox" id="filter-10">
            <feOffset dx="0" dy="-2" in="SourceAlpha" result="shadowOffsetInner1"></feOffset>
            <feGaussianBlur stdDeviation="1.5" in="shadowOffsetInner1" result="shadowBlurInner1"></feGaussianBlur>
            <feComposite in="shadowBlurInner1" in2="SourceAlpha" operator="arithmetic" k2="-1" k3="1" result="shadowInnerInner1"></feComposite>
            <feColorMatrix values="0 0 0 0 0   0 0 0 0 0   0 0 0 0 0  0 0 0 0.35 0" in="shadowInnerInner1" type="matrix" result="shadowMatrixInner1"></feColorMatrix>
            <feMerge>
                <feMergeNode in="SourceGraphic"></feMergeNode>
                <feMergeNode in="shadowMatrixInner1"></feMergeNode>
            </feMerge>
        </filter>
        <filter x="-50%" y="-50%" width="200%" height="200%" filterUnits="objectBoundingBox" id="filter-11">
            <feOffset dx="0" dy="-2" in="SourceAlpha" result="shadowOffsetInner1"></feOffset>
            <feGaussianBlur stdDeviation="1.5" in="shadowOffsetInner1" result="shadowBlurInner1"></feGaussianBlur>
            <feComposite in="shadowBlurInner1" in2="SourceAlpha" operator="arithmetic" k2="-1" k3="1" result="shadowInnerInner1"></feComposite>
            <feColorMatrix values="0 0 0 0 0   0 0 0 0 0   0 0 0 0 0  0 0 0 0.35 0" in="shadowInnerInner1" type="matrix" result="shadowMatrixInner1"></feColorMatrix>
            <feMerge>
                <feMergeNode in="SourceGraphic"></feMergeNode>
                <feMergeNode in="shadowMatrixInner1"></feMergeNode>
            </feMerge>
        </filter>
        <filter x="-50%" y="-50%" width="200%" height="200%" filterUnits="objectBoundingBox" id="filter-12">
            <feOffset dx="0" dy="-2" in="SourceAlpha" result="shadowOffsetInner1"></feOffset>
            <feGaussianBlur stdDeviation="1.5" in="shadowOffsetInner1" result="shadowBlurInner1"></feGaussianBlur>
            <feComposite in="shadowBlurInner1" in2="SourceAlpha" operator="arithmetic" k2="-1" k3="1" result="shadowInnerInner1"></feComposite>
            <feColorMatrix values="0 0 0 0 0   0 0 0 0 0   0 0 0 0 0  0 0 0 0.35 0" in="shadowInnerInner1" type="matrix" result="shadowMatrixInner1"></feColorMatrix>
            <feMerge>
                <feMergeNode in="SourceGraphic"></feMergeNode>
                <feMergeNode in="shadowMatrixInner1"></feMergeNode>
            </feMerge>
        </filter>
    </defs>
    <g id="Page-1" stroke="none" stroke-width="1" fill="none" fill-rule="evenodd" sketch:type="MSPage">
        <g id="tree" sketch:type="MSArtboardGroup">
            <g id="Group" sketch:type="MSLayerGroup" transform="translate(2.000000, 4.000000)">
                <ellipse id="Oval-303" fill="#B67450" sketch:type="MSShapeGroup" cx="41.6117352" cy="144.736466" rx="35.5640828" ry="11.0125572"></ellipse>
                <rect id="Rectangle-516" fill="#A16443" sketch:type="MSShapeGroup" x="33.0376716" y="121.138129" width="15.7322246" height="25.1715593"></rect>
                <path d="M9.43933475,112.540796 C10.172151,114.804122 15.7322246,119.343321 20.451892,118.371531 C21.9338478,121.422909 25.1715593,126.145846 32.2510604,122.258688 C36.9707278,127.117635 38.5439502,124.202267 40.9037839,124.202267 C45.7120919,124.202267 47.1966738,127.117635 51.1297299,121.286899 C52.8424626,122.69752 58.9958422,123.230478 62.1422871,118.371531 C65.8773676,119.210507 71.5816219,118.371531 71.5816219,113.512585 C77.8745117,112.540796 81.8075679,106.369888 81.8075679,102.822903 C81.8075679,97.0601807 77.8876582,88.20371 70.7950107,84.3589068 C63.3552188,80.3259226 52.4688682,81.443539 40.9037839,81.443539 C29.6811389,81.443539 17.6164889,81.505562 10.225946,85.3306961 C2.73975301,89.2053359 0,96.8811965 0,102.822903 C0,107.142288 4.71966738,112.540796 9.43933475,112.540796 Z" id="Oval-304" fill="#2A7121" filter="url(#filter-1)" sketch:type="MSShapeGroup"></path>
                <path d="M9.43933474,91.1614321 C10.1667532,93.7277995 13.3723909,96.9921674 16.5188361,95.0485892 C17.305447,97.9639566 21.3826832,97.8248661 23.185337,97.453696 C24.4692258,100.09725 29.8912267,102.822903 33.8242824,100.879325 C34.6108941,103.794692 38.5439502,104.766482 40.9037839,102.50514 C43.2636176,103.794692 46.4100625,105.738271 47.9832846,101.851114 C49.7169928,103.457497 54.2761748,102.822903 55.0627856,99.9075356 C58.209231,100.879324 64.5021208,98.9357459 64.5021234,95.0485892 C66.8619545,96.0203781 70.7950132,94.3991792 70.7950132,90.1896429 C74.7280668,90.1896424 76.3406777,87.0561018 76.3406777,83.9831796 C76.3406777,79.1365469 72.6917202,70.1677841 66.8619571,66.8666999 C60.3873102,63.2004524 51.2022843,65.4612196 40.9037839,65.4612196 C31.6957293,65.4612196 22.0332992,63.8573541 15.7322249,66.8666999 C8.64068327,70.2535669 5.46689012,78.5665987 5.46689012,83.9831796 C5.46689012,87.7252682 5.35046238,91.1614321 9.43933474,91.1614321 Z" id="Oval-304" fill="#2D7823" filter="url(#filter-2)" sketch:type="MSShapeGroup"></path>
                <path d="M68.8538916,68.0860742 C68.2077168,70.36581 65.3601094,73.2655881 62.5650833,71.5390838 C61.8663271,74.1288405 58.2444681,74.0052847 56.6431485,73.6755697 C55.5026542,76.0238709 50.686224,78.4451024 47.1924422,76.718598 C46.4936854,79.3083548 42.9999031,80.1716072 40.9036338,78.1628293 C38.8073645,79.3083548 36.0123387,81.0348596 34.6148262,77.5818504 C33.0747518,79.0088203 29.0247742,78.4451024 28.3260182,75.8553457 C25.530992,76.7185977 19.9409405,74.9920929 19.9409382,71.5390838 C17.8446711,72.4023358 14.3508866,70.9622049 14.3508866,67.2228219 C10.8571067,67.2228215 9.42460452,64.4392587 9.42460452,61.7095441 C9.42460452,55.7162131 16.795511,47.1609974 25.9581704,44.2844695 C30.687645,42.799697 34.9849068,45.2562588 40.9036338,45.2562588 C48.0018251,45.2562588 54.5168812,42.2128234 59.7824533,44.2844695 C67.4136896,47.2868444 72.3826631,56.332689 72.3826631,61.7095441 C72.3826631,65.0336875 72.4860873,68.0860742 68.8538916,68.0860742 Z" id="Oval-304" fill="#378D2C" filter="url(#filter-3)" sketch:type="MSShapeGroup"></path>
                <path d="M64.1117183,46.9563952 C63.5751772,48.8493381 62.9288984,52.7994959 57.4226197,49.8841282 C57.4226197,53.7712853 52.7029531,54.7430746 50.3431194,53.7712853 C49.3961279,55.7211605 42.6442637,56.9914283 40.9036593,55.3234711 C39.1630549,56.2746402 32.8312608,56.8934386 32.2510596,54.7430746 C29.9302534,55.4598624 25.1715605,53.7230696 25.1715586,50.8559175 C23.430956,51.5727053 18.8560013,49.3445453 18.8560013,46.2396071 C15.9549959,46.2396068 14.7655401,43.9283191 14.7655401,41.6617432 C14.7655401,34.1165793 31.4644492,24.617607 40.9036601,11.0125573 C50.3431187,25.5893963 67.0417784,34.1165793 67.0417784,41.6617432 C67.0417784,44.4218937 67.1276551,46.9563952 64.1117183,46.9563952 Z" id="Oval-304" fill="#378D2C" filter="url(#filter-4)" sketch:type="MSShapeGroup"></path>
                <polygon id="Star-1" stroke="#D2D2D2" stroke-width="0.299999923" fill="#FEFD00" sketch:type="MSShapeGroup" points="40.7464581 10.6192516 36.5852318 12.8069377 37.3799553 8.17334414 34.0134525 4.89181492 38.6658449 4.21578273 40.7464581 0 42.8270712 4.21578273 47.4794637 4.89181492 44.1129609 8.17334414 44.9076844 12.8069377 "></polygon>
                <ellipse id="Oval-308" fill="#F34444" sketch:type="MSShapeGroup" cx="29.8912267" cy="33.0376716" rx="3.14644492" ry="3.14644492"></ellipse>
                <ellipse id="Oval-308" fill="#F34444" sketch:type="MSShapeGroup" cx="70.7950107" cy="97.5397925" rx="3.14644492" ry="3.14644492"></ellipse>
                <ellipse id="Oval-308" fill="#F34444" sketch:type="MSShapeGroup" cx="17.305447" cy="108.55235" rx="3.14644492" ry="3.14644492"></ellipse>
                <ellipse id="Oval-308" fill="#F34444" sketch:type="MSShapeGroup" cx="31.4644492" cy="61.3556759" rx="3.14644492" ry="3.14644492"></ellipse>
                <ellipse id="Oval-308" fill="#F34444" sketch:type="MSShapeGroup" cx="50.3431187" cy="45.6234513" rx="3.14644492" ry="3.14644492"></ellipse>
                <ellipse id="Oval-308" fill="#F34444" sketch:type="MSShapeGroup" cx="51.9163411" cy="95.96657" rx="3.14644492" ry="3.14644492"></ellipse>
                <ellipse id="Oval-308" fill="#5A7BF5" sketch:type="MSShapeGroup" cx="29.8912267" cy="94.3933475" rx="3.14644492" ry="3.14644492"></ellipse>
                <ellipse id="Oval-308" fill="#5A7BF5" sketch:type="MSShapeGroup" cx="70.7950107" cy="80.2343454" rx="3.14644492" ry="3.14644492"></ellipse>
                <ellipse id="Oval-308" fill="#5A7BF5" sketch:type="MSShapeGroup" cx="17.305447" cy="58.209231" rx="3.14644492" ry="3.14644492"></ellipse>
                <ellipse id="Oval-308" fill="#5A7BF5" sketch:type="MSShapeGroup" cx="48.7698962" cy="29.8912267" rx="3.14644492" ry="3.14644492"></ellipse>
                <ellipse id="Oval-308" fill="#5A7BF5" sketch:type="MSShapeGroup" cx="17.911985" cy="83.3807903" rx="3.14644492" ry="3.14644492"></ellipse>
                <ellipse id="Oval-308" fill="#5A7BF5" sketch:type="MSShapeGroup" cx="48.7698962" cy="70.7950107" rx="3.14644492" ry="3.14644492"></ellipse>
                <ellipse id="Oval-308" fill="#5A7BF5" sketch:type="MSShapeGroup" cx="48.7698962" cy="114.84524" rx="3.14644492" ry="3.14644492"></ellipse>
                <ellipse id="Oval-308" fill="#F8E81C" sketch:type="MSShapeGroup" cx="9.43933475" cy="95.96657" rx="3.14644492" ry="3.14644492"></ellipse>
                <ellipse id="Oval-308" fill="#F8E81C" sketch:type="MSShapeGroup" cx="37.757339" cy="84.9540128" rx="3.14644492" ry="3.14644492"></ellipse>
                <ellipse id="Oval-308" fill="#F8E81C" sketch:type="MSShapeGroup" cx="37.757339" cy="45.6234513" rx="3.14644492" ry="3.14644492"></ellipse>
                <ellipse id="Oval-308" fill="#F8E81C" sketch:type="MSShapeGroup" cx="64.5021208" cy="64.5021208" rx="3.14644492" ry="3.14644492"></ellipse>
            </g>
            <g id="Group" sketch:type="MSLayerGroup" transform="translate(100.000000, 4.000000)">
                <ellipse id="Oval-303" fill="#B67450" sketch:type="MSShapeGroup" cx="41.6117352" cy="144.736466" rx="35.5640828" ry="11.0125572"></ellipse>
                <rect id="Rectangle-516" fill="#A16443" sketch:type="MSShapeGroup" x="33.0376716" y="121.138129" width="15.7322246" height="25.1715593"></rect>
                <path d="M9.43933475,112.540796 C10.172151,114.804122 15.7322246,119.343321 20.451892,118.371531 C21.9338478,121.422909 25.1715593,126.145846 32.2510604,122.258688 C36.9707278,127.117635 38.5439502,124.202267 40.9037839,124.202267 C45.7120919,124.202267 47.1966738,127.117635 51.1297299,121.286899 C52.8424626,122.69752 58.9958422,123.230478 62.1422871,118.371531 C65.8773676,119.210507 71.5816219,118.371531 71.5816219,113.512585 C77.8745117,112.540796 81.8075679,106.369888 81.8075679,102.822903 C81.8075679,97.0601807 77.8876582,88.20371 70.7950107,84.3589068 C63.3552188,80.3259226 52.4688682,81.443539 40.9037839,81.443539 C29.6811389,81.443539 17.6164889,81.505562 10.225946,85.3306961 C2.73975301,89.2053359 0,96.8811965 0,102.822903 C0,107.142288 4.71966738,112.540796 9.43933475,112.540796 Z" id="Oval-304" fill="#2A7121" filter="url(#filter-5)" sketch:type="MSShapeGroup"></path>
                <path d="M9.43933474,91.1614321 C10.1667532,93.7277995 13.3723909,96.9921674 16.5188361,95.0485892 C17.305447,97.9639566 21.3826832,97.8248661 23.185337,97.453696 C24.4692258,100.09725 29.8912267,102.822903 33.8242824,100.879325 C34.6108941,103.794692 38.5439502,104.766482 40.9037839,102.50514 C43.2636176,103.794692 46.4100625,105.738271 47.9832846,101.851114 C49.7169928,103.457497 54.2761748,102.822903 55.0627856,99.9075356 C58.209231,100.879324 64.5021208,98.9357459 64.5021234,95.0485892 C66.8619545,96.0203781 70.7950132,94.3991792 70.7950132,90.1896429 C74.7280668,90.1896424 76.3406777,87.0561018 76.3406777,83.9831796 C76.3406777,79.1365469 72.6917202,70.1677841 66.8619571,66.8666999 C60.3873102,63.2004524 51.2022843,65.4612196 40.9037839,65.4612196 C31.6957293,65.4612196 22.0332992,63.8573541 15.7322249,66.8666999 C8.64068327,70.2535669 5.46689012,78.5665987 5.46689012,83.9831796 C5.46689012,87.7252682 5.35046238,91.1614321 9.43933474,91.1614321 Z" id="Oval-304" fill="#2D7823" filter="url(#filter-6)" sketch:type="MSShapeGroup"></path>
                <path d="M68.8538916,68.0860742 C68.2077168,70.36581 65.3601094,73.2655881 62.5650833,71.5390838 C61.8663271,74.1288405 58.2444681,74.0052847 56.6431485,73.6755697 C55.5026542,76.0238709 50.686224,78.4451024 47.1924422,76.718598 C46.4936854,79.3083548 42.9999031,80.1716072 40.9036338,78.1628293 C38.8073645,79.3083548 36.0123387,81.0348596 34.6148262,77.5818504 C33.0747518,79.0088203 29.0247742,78.4451024 28.3260182,75.8553457 C25.530992,76.7185977 19.9409405,74.9920929 19.9409382,71.5390838 C17.8446711,72.4023358 14.3508866,70.9622049 14.3508866,67.2228219 C10.8571067,67.2228215 9.42460452,64.4392587 9.42460452,61.7095441 C9.42460452,55.7162131 16.795511,47.1609974 25.9581704,44.2844695 C30.687645,42.799697 34.9849068,45.2562588 40.9036338,45.2562588 C48.0018251,45.2562588 54.5168812,42.2128234 59.7824533,44.2844695 C67.4136896,47.2868444 72.3826631,56.332689 72.3826631,61.7095441 C72.3826631,65.0336875 72.4860873,68.0860742 68.8538916,68.0860742 Z" id="Oval-304" fill="#378D2C" filter="url(#filter-7)" sketch:type="MSShapeGroup"></path>
                <path d="M64.1117183,46.9563952 C63.5751772,48.8493381 62.9288984,52.7994959 57.4226197,49.8841282 C57.4226197,53.7712853 52.7029531,54.7430746 50.3431194,53.7712853 C49.3961279,55.7211605 42.6442637,56.9914283 40.9036593,55.3234711 C39.1630549,56.2746402 32.8312608,56.8934386 32.2510596,54.7430746 C29.9302534,55.4598624 25.1715605,53.7230696 25.1715586,50.8559175 C23.430956,51.5727053 18.8560013,49.3445453 18.8560013,46.2396071 C15.9549959,46.2396068 14.7655401,43.9283191 14.7655401,41.6617432 C14.7655401,34.1165793 31.4644492,24.617607 40.9036601,11.0125573 C50.3431187,25.5893963 67.0417784,34.1165793 67.0417784,41.6617432 C67.0417784,44.4218937 67.1276551,46.9563952 64.1117183,46.9563952 Z" id="Oval-304" fill="#378D2C" filter="url(#filter-8)" sketch:type="MSShapeGroup"></path>
                <polygon id="Star-1" stroke="#D2D2D2" stroke-width="0.299999923" fill="#FEFD00" sketch:type="MSShapeGroup" points="40.7464581 10.6192516 36.5852318 12.8069377 37.3799553 8.17334414 34.0134525 4.89181492 38.6658449 4.21578273 40.7464581 0 42.8270712 4.21578273 47.4794637 4.89181492 44.1129609 8.17334414 44.9076844 12.8069377 "></polygon>
                <ellipse id="Oval-308" fill="#F8E71C" sketch:type="MSShapeGroup" cx="29.8912267" cy="33.0376716" rx="3.14644492" ry="3.14644492"></ellipse>
                <ellipse id="Oval-308" fill="#F8E71C" sketch:type="MSShapeGroup" cx="70.7950107" cy="97.5397925" rx="3.14644492" ry="3.14644492"></ellipse>
                <ellipse id="Oval-308" fill="#F8E71C" sketch:type="MSShapeGroup" cx="17.305447" cy="108.55235" rx="3.14644492" ry="3.14644492"></ellipse>
                <ellipse id="Oval-308" fill="#F8E71C" sketch:type="MSShapeGroup" cx="31.4644492" cy="61.3556759" rx="3.14644492" ry="3.14644492"></ellipse>
                <ellipse id="Oval-308" fill="#F8E71C" sketch:type="MSShapeGroup" cx="50.3431187" cy="45.6234513" rx="3.14644492" ry="3.14644492"></ellipse>
                <ellipse id="Oval-308" fill="#F8E71C" sketch:type="MSShapeGroup" cx="51.9163411" cy="95.96657" rx="3.14644492" ry="3.14644492"></ellipse>
                <ellipse id="Oval-308" fill="#F34545" sketch:type="MSShapeGroup" cx="29.8912267" cy="94.3933475" rx="3.14644492" ry="3.14644492"></ellipse>
                <ellipse id="Oval-308" fill="#F34545" sketch:type="MSShapeGroup" cx="70.7950107" cy="80.2343454" rx="3.14644492" ry="3.14644492"></ellipse>
                <ellipse id="Oval-308" fill="#F34545" sketch:type="MSShapeGroup" cx="17.305447" cy="58.209231" rx="3.14644492" ry="3.14644492"></ellipse>
                <ellipse id="Oval-308" fill="#F34545" sketch:type="MSShapeGroup" cx="48.7698962" cy="29.8912267" rx="3.14644492" ry="3.14644492"></ellipse>
                <ellipse id="Oval-308" fill="#F34545" sketch:type="MSShapeGroup" cx="17.911985" cy="83.3807903" rx="3.14644492" ry="3.14644492"></ellipse>
                <ellipse id="Oval-308" fill="#F8E71C" sketch:type="MSShapeGroup" cx="48.7698962" cy="70.7950107" rx="3.14644492" ry="3.14644492"></ellipse>
                <ellipse id="Oval-308" fill="#F34545" sketch:type="MSShapeGroup" cx="48.7698962" cy="114.84524" rx="3.14644492" ry="3.14644492"></ellipse>
                <ellipse id="Oval-308" fill="#5A7BF5" sketch:type="MSShapeGroup" cx="9.43933475" cy="95.96657" rx="3.14644492" ry="3.14644492"></ellipse>
                <ellipse id="Oval-308" fill="#5A7BF5" sketch:type="MSShapeGroup" cx="37.757339" cy="84.9540128" rx="3.14644492" ry="3.14644492"></ellipse>
                <ellipse id="Oval-308" fill="#5A7BF5" sketch:type="MSShapeGroup" cx="37.757339" cy="45.6234513" rx="3.14644492" ry="3.14644492"></ellipse>
                <ellipse id="Oval-308" fill="#5A7BF5" sketch:type="MSShapeGroup" cx="64.5021208" cy="64.5021208" rx="3.14644492" ry="3.14644492"></ellipse>
            </g>
            <g id="Group" sketch:type="MSLayerGroup" transform="translate(197.000000, 4.000000)">
                <ellipse id="Oval-303" fill="#B67450" sketch:type="MSShapeGroup" cx="42.1117352" cy="144.736466" rx="35.5640828" ry="11.0125572"></ellipse>
                <rect id="Rectangle-516" fill="#A16443" sketch:type="MSShapeGroup" x="33.5376716" y="121.138129" width="15.7322246" height="25.1715593"></rect>
                <path d="M9.93933475,112.540796 C10.672151,114.804122 16.2322246,119.343321 20.951892,118.371531 C22.4338478,121.422909 25.6715593,126.145846 32.7510604,122.258688 C37.4707278,127.117635 39.0439502,124.202267 41.4037839,124.202267 C46.2120919,124.202267 47.6966738,127.117635 51.6297299,121.286899 C53.3424626,122.69752 59.4958422,123.230478 62.6422871,118.371531 C66.3773676,119.210507 72.0816219,118.371531 72.0816219,113.512585 C78.3745117,112.540796 82.3075679,106.369888 82.3075679,102.822903 C82.3075679,97.0601807 78.3876582,88.20371 71.2950107,84.3589068 C63.8552188,80.3259226 52.9688682,81.443539 41.4037839,81.443539 C30.1811389,81.443539 18.1164889,81.505562 10.725946,85.3306961 C3.23975301,89.2053359 0.5,96.8811965 0.5,102.822903 C0.5,107.142288 5.21966738,112.540796 9.93933475,112.540796 Z" id="Oval-304" fill="#2A7121" filter="url(#filter-9)" sketch:type="MSShapeGroup"></path>
                <path d="M9.93933474,91.1614321 C10.6667532,93.7277995 13.8723909,96.9921674 17.0188361,95.0485892 C17.805447,97.9639566 21.8826832,97.8248661 23.685337,97.453696 C24.9692258,100.09725 30.3912267,102.822903 34.3242824,100.879325 C35.1108941,103.794692 39.0439502,104.766482 41.4037839,102.50514 C43.7636176,103.794692 46.9100625,105.738271 48.4832846,101.851114 C50.2169928,103.457497 54.7761748,102.822903 55.5627856,99.9075356 C58.709231,100.879324 65.0021208,98.9357459 65.0021234,95.0485892 C67.3619545,96.0203781 71.2950132,94.3991792 71.2950132,90.1896429 C75.2280668,90.1896424 76.8406777,87.0561018 76.8406777,83.9831796 C76.8406777,79.1365469 73.1917202,70.1677841 67.3619571,66.8666999 C60.8873102,63.2004524 51.7022843,65.4612196 41.4037839,65.4612196 C32.1957293,65.4612196 22.5332992,63.8573541 16.2322249,66.8666999 C9.14068327,70.2535669 5.96689012,78.5665987 5.96689012,83.9831796 C5.96689012,87.7252682 5.85046238,91.1614321 9.93933474,91.1614321 Z" id="Oval-304" fill="#2D7823" filter="url(#filter-10)" sketch:type="MSShapeGroup"></path>
                <path d="M69.3538916,68.0860742 C68.7077168,70.36581 65.8601094,73.2655881 63.0650833,71.5390838 C62.3663271,74.1288405 58.7444681,74.0052847 57.1431485,73.6755697 C56.0026542,76.0238709 51.186224,78.4451024 47.6924422,76.718598 C46.9936854,79.3083548 43.4999031,80.1716072 41.4036338,78.1628293 C39.3073645,79.3083548 36.5123387,81.0348596 35.1148262,77.5818504 C33.5747518,79.0088203 29.5247742,78.4451024 28.8260182,75.8553457 C26.030992,76.7185977 20.4409405,74.9920929 20.4409382,71.5390838 C18.3446711,72.4023358 14.8508866,70.9622049 14.8508866,67.2228219 C11.3571067,67.2228215 9.92460452,64.4392587 9.92460452,61.7095441 C9.92460452,55.7162131 17.295511,47.1609974 26.4581704,44.2844695 C31.187645,42.799697 35.4849068,45.2562588 41.4036338,45.2562588 C48.5018251,45.2562588 55.0168812,42.2128234 60.2824533,44.2844695 C67.9136896,47.2868444 72.8826631,56.332689 72.8826631,61.7095441 C72.8826631,65.0336875 72.9860873,68.0860742 69.3538916,68.0860742 Z" id="Oval-304" fill="#378D2C" filter="url(#filter-11)" sketch:type="MSShapeGroup"></path>
                <path d="M64.6117183,46.9563952 C64.0751772,48.8493381 63.4288984,52.7994959 57.9226197,49.8841282 C57.9226197,53.7712853 53.2029531,54.7430746 50.8431194,53.7712853 C49.8961279,55.7211605 43.1442637,56.9914283 41.4036593,55.3234711 C39.6630549,56.2746402 33.3312608,56.8934386 32.7510596,54.7430746 C30.4302534,55.4598624 25.6715605,53.7230696 25.6715586,50.8559175 C23.930956,51.5727053 19.3560013,49.3445453 19.3560013,46.2396071 C16.4549959,46.2396068 15.2655401,43.9283191 15.2655401,41.6617432 C15.2655401,34.1165793 31.9644492,24.617607 41.4036601,11.0125573 C50.8431187,25.5893963 67.5417784,34.1165793 67.5417784,41.6617432 C67.5417784,44.4218937 67.6276551,46.9563952 64.6117183,46.9563952 Z" id="Oval-304" fill="#378D2C" filter="url(#filter-12)" sketch:type="MSShapeGroup"></path>
                <polygon id="Star-1" stroke="#D2D2D2" stroke-width="0.299999923" fill="#FEFD00" sketch:type="MSShapeGroup" points="41.2464581 10.6192516 37.0852318 12.8069377 37.8799553 8.17334414 34.5134525 4.89181492 39.1658449 4.21578273 41.2464581 0 43.3270712 4.21578273 47.9794637 4.89181492 44.6129609 8.17334414 45.4076844 12.8069377 "></polygon>
                <ellipse id="Oval-308" fill="#5A7BF5" sketch:type="MSShapeGroup" cx="30.3912267" cy="33.0376716" rx="3.14644492" ry="3.14644492"></ellipse>
                <ellipse id="Oval-308" fill="#5A7BF5" sketch:type="MSShapeGroup" cx="71.2950107" cy="97.5397925" rx="3.14644492" ry="3.14644492"></ellipse>
                <ellipse id="Oval-308" fill="#5A7BF5" sketch:type="MSShapeGroup" cx="17.805447" cy="108.55235" rx="3.14644492" ry="3.14644492"></ellipse>
                <ellipse id="Oval-308" fill="#5A7BF5" sketch:type="MSShapeGroup" cx="31.9644492" cy="61.3556759" rx="3.14644492" ry="3.14644492"></ellipse>
                <ellipse id="Oval-308" fill="#5A7BF5" sketch:type="MSShapeGroup" cx="50.8431187" cy="45.6234513" rx="3.14644492" ry="3.14644492"></ellipse>
                <ellipse id="Oval-308" fill="#5A7BF5" sketch:type="MSShapeGroup" cx="52.4163411" cy="95.96657" rx="3.14644492" ry="3.14644492"></ellipse>
                <ellipse id="Oval-308" fill="#F8E71C" sketch:type="MSShapeGroup" cx="30.3912267" cy="94.3933475" rx="3.14644492" ry="3.14644492"></ellipse>
                <ellipse id="Oval-308" fill="#F34545" sketch:type="MSShapeGroup" cx="71.2950107" cy="80.2343454" rx="3.14644492" ry="3.14644492"></ellipse>
                <ellipse id="Oval-308" fill="#F8E71C" sketch:type="MSShapeGroup" cx="17.805447" cy="58.209231" rx="3.14644492" ry="3.14644492"></ellipse>
                <ellipse id="Oval-308" fill="#F8E71C" sketch:type="MSShapeGroup" cx="49.2698962" cy="29.8912267" rx="3.14644492" ry="3.14644492"></ellipse>
                <ellipse id="Oval-308" fill="#F8E71C" sketch:type="MSShapeGroup" cx="18.411985" cy="83.3807903" rx="3.14644492" ry="3.14644492"></ellipse>
                <ellipse id="Oval-308" fill="#F34545" sketch:type="MSShapeGroup" cx="49.2698962" cy="70.7950107" rx="3.14644492" ry="3.14644492"></ellipse>
                <ellipse id="Oval-308" fill="#F34545" sketch:type="MSShapeGroup" cx="49.2698962" cy="114.84524" rx="3.14644492" ry="3.14644492"></ellipse>
                <ellipse id="Oval-308" fill="#F34545" sketch:type="MSShapeGroup" cx="9.93933475" cy="95.96657" rx="3.14644492" ry="3.14644492"></ellipse>
                <ellipse id="Oval-308" fill="#F34545" sketch:type="MSShapeGroup" cx="38.257339" cy="84.9540128" rx="3.14644492" ry="3.14644492"></ellipse>
                <ellipse id="Oval-308" fill="#F34545" sketch:type="MSShapeGroup" cx="38.257339" cy="45.6234513" rx="3.14644492" ry="3.14644492"></ellipse>
                <ellipse id="Oval-308" fill="#F8E81C" sketch:type="MSShapeGroup" cx="65.0021208" cy="64.5021208" rx="3.14644492" ry="3.14644492"></ellipse>
            </g>
        </g>
    </g>
</svg>