<?xml version="1.0" encoding="UTF-8" standalone="no"?>
<svg width="85px" height="20px" viewBox="0 0 85 20" version="1.1" xmlns="http://www.w3.org/2000/svg" xmlns:xlink="http://www.w3.org/1999/xlink" xmlns:sketch="http://www.bohemiancoding.com/sketch/ns">
    <!-- Generator: Sketch 3.4.4 (17249) - http://www.bohemiancoding.com/sketch -->
    <title>fire-one</title>
    <desc>Created with Sketch.</desc>
    <defs></defs>
    <g id="Page-1" stroke="none" stroke-width="1" fill="none" fill-rule="evenodd" sketch:type="MSPage">
        <g id="fire-one" sketch:type="MSArtboardGroup">
            <g id="Group-Copy-2" sketch:type="MSLayerGroup" transform="translate(0.000000, 1.000000)">
                <path d="M0,19.4851855 C2.65434121,14.6311407 8.33521876,16.1945833 9.06452816,13.8074358 C9.66972698,11.8265222 8.28322672,9.69299401 9.24554171,7.76467754 L11.6932843,0.7878332 C12.0785623,0.0158011926 13.7385793,1.90645938 14.2312949,2.65571589 C15.4331858,4.48339228 15.3098486,6.58471464 16.6785599,8.36877969 C17.5725642,9.53408156 20.0667731,10.0857665 20.8480804,11.2804536 C21.4942055,12.2684352 21.2927935,13.4741428 20.6665893,14.4668247 C19.5184705,16.2868648 17.3430722,17.8029429 15.6813137,19.471002 L0,19.4851855 Z" id="Path-434-Copy-2" fill="#B31C1C" sketch:type="MSShapeGroup"></path>
                <path d="M40.0429309,19.4851855 C42.6972721,14.6311407 39.3781496,16.1945833 40.107459,13.8074358 C40.7126579,11.8265222 47.6551037,12.3109644 49.2884726,6.55255632 L51.7362152,0.7878332 C52.1214932,0.0158011926 53.7815102,1.90645938 54.2742258,2.65571589 C55.4761166,4.48339228 55.3527795,6.58471464 56.7214908,8.36877969 C57.6154951,9.53408156 60.109704,10.0857665 60.8910113,11.2804536 C61.5371364,12.2684352 61.3357244,13.4741428 60.7095202,14.4668247 C59.5614014,16.2868648 63.3860031,17.8029429 61.7242446,19.471002 L40.0429309,19.4851855 Z" id="Path-434-Copy-3" fill="#F56623" sketch:type="MSShapeGroup" transform="translate(51.074727, 10.045623) scale(-1, 1) translate(-51.074727, -10.045623) "></path>
                <path d="M30.3292957,15.4309969 C38.910184,3.34070431 30.10791,17.7521354 33.5927933,4.27898754 C33.9762101,2.79663366 34.6727471,-0.794885771 36.5840542,0.158819829 C39.2561532,1.49214603 36.4409462,4.4895891 37.8530595,6.40477872 C41.0266953,10.709047 52.2300159,11.8474978 44.5878143,19.566506 L28,19.5792422 L29.8722246,16.4646571 L30.3292957,15.4309969 Z" id="Path-435-Copy-4" fill="#B31C1C" sketch:type="MSShapeGroup"></path>
                <path d="M67.3292957,15.4309969 C75.910184,3.34070431 67.10791,17.7521354 70.5927933,4.27898754 C70.9762101,2.79663366 71.6727471,-0.794885771 73.5840542,0.158819829 C76.2561532,1.49214603 73.4409462,4.4895891 74.8530595,6.40477872 C78.0266953,10.709047 89.2300159,11.8474978 81.5878143,19.566506 L65,19.5792422 L66.8722246,16.4646571 L67.3292957,15.4309969 Z" id="Path-435-Copy-5" fill="#F56623" sketch:type="MSShapeGroup"></path>
                <path d="M54.6096518,15.8652392 C59.4769582,-3.52710608 59.5842248,17.7521354 63.0691082,4.27898754 C63.4525249,2.79663366 64.149062,-0.794885771 66.0603691,0.158819829 C68.7324681,1.49214603 65.9172611,4.4895891 67.3293744,6.40477872 C70.5030102,10.709047 81.7063307,11.8474978 74.0641292,19.566506 L52,19.5665071 L54.6096518,15.8652392 Z" id="Path-435-Copy-6" fill="#B31C1C" sketch:type="MSShapeGroup"></path>
                <path d="M16.6096518,15.8652392 C21.4769582,-3.52710608 21.5842248,17.7521354 25.0691082,4.27898754 C25.4525249,2.79663366 26.149062,-0.794885771 28.0603691,0.158819829 C30.7324681,1.49214603 27.9172611,4.4895891 29.3293744,6.40477872 C32.5030102,10.709047 43.7063307,11.8474978 36.0641292,19.566506 L14,19.5665071 L16.6096518,15.8652392 Z" id="Path-435-Copy-7" fill="#F56623" sketch:type="MSShapeGroup"></path>
            </g>
        </g>
    </g>
</svg>