<?xml version="1.0" encoding="UTF-8" standalone="no"?>
<svg width="60px" height="64px" viewBox="0 0 60 64" version="1.1" xmlns="http://www.w3.org/2000/svg" xmlns:xlink="http://www.w3.org/1999/xlink" xmlns:sketch="http://www.bohemiancoding.com/sketch/ns">
    <!-- Generator: Sketch 3.4.4 (17249) - http://www.bohemiancoding.com/sketch -->
    <title>golden-beaker</title>
    <desc>Created with Sketch.</desc>
    <defs>
        <path id="path-1" d="M0,0.0106666667 L59.3476491,0.0106666667 L59.3476491,63.4385965 L0,63.4385965"></path>
        <path id="path-3" d="M0,0.0106666667 L59.3476491,0.0106666667 L59.3476491,63.4385965 L0,63.4385965"></path>
    </defs>
    <g id="Page-1" stroke="none" stroke-width="1" fill="none" fill-rule="evenodd" sketch:type="MSPage">
        <g id="golden-beaker" sketch:type="MSArtboardGroup">
            <g id="Group" sketch:type="MSLayerGroup">
                <g id="Page-1">
                    <g id="Group-3">
                        <mask id="mask-2" sketch:name="Clip 2" fill="white">
                            <use xlink:href="#path-1"></use>
                        </mask>
                        <g id="Clip-2"></g>
                        <path d="M59.3477053,59.5288702 C59.3477053,61.6880281 46.0620912,63.4384842 29.6736,63.4384842 C13.2856702,63.4384842 5.6140351e-05,61.6880281 5.6140351e-05,59.5288702 C5.6140351e-05,57.3697123 13.2856702,55.6192561 29.6736,55.6192561 C46.0620912,55.6192561 59.3477053,57.3697123 59.3477053,59.5288702" id="Fill-1" fill="#010201" sketch:type="MSShapeGroup" mask="url(#mask-2)"></path>
                    </g>
                    <g id="Group-6">
                        <mask id="mask-4" sketch:name="Clip 5" fill="white">
                            <use xlink:href="#path-3"></use>
                        </mask>
                        <g id="Clip-5"></g>
                        <path d="M46.7543579,59.9291509 C46.7543579,59.9291509 46.7487439,59.9347649 46.7375158,59.9403789 C46.6420772,60.0021333 46.2097965,60.2323088 45.2161123,60.2828351 C30.7599719,63.5726596 7.01260351,60.2547649 7.01260351,60.2547649 C7.01260351,60.2547649 6.50172632,60.1817825 6.02453333,59.8280982 C6.0189193,59.8280982 6.0189193,59.8224842 6.01330526,59.8224842 C5.07014737,59.2891509 4.55927018,58.1326596 4.9466386,57.0098526 L19.3185684,15.5165193 C19.4027789,15.2695018 19.4476912,15.0112561 19.4476912,14.7530105 L19.4476912,2.59862456 L18.9704982,2.59862456 C18.4371649,2.59862456 17.9992702,2.16072982 17.9992702,1.62178246 L17.9992702,0.981782456 C17.9992702,0.448449123 18.4371649,0.010554386 18.9704982,0.010554386 L34.0161123,0.010554386 C34.5550596,0.010554386 34.9873404,0.448449123 34.9873404,0.981782456 L34.9873404,1.62178246 C34.9873404,2.16072982 34.5550596,2.59862456 34.0161123,2.59862456 L33.5389193,2.59862456 L33.5389193,14.7530105 C33.5389193,15.0112561 33.5838316,15.2695018 33.6680421,15.5165193 L48.0399719,57.0098526 C48.4610246,58.2168702 47.8322526,59.4688 46.7543579,59.9291509" id="Fill-4" fill="#C5B357" sketch:type="MSShapeGroup" mask="url(#mask-4)"></path>
                    </g>
                    <path d="M10.3823158,47.378807 C10.3823158,47.378807 10.0887018,48.4825263 9.73670175,50.1347368 C9.57164912,50.9633684 9.38021053,51.9272982 9.26624561,52.9602807 C9.20336842,53.4756491 9.16070175,54.0084211 9.15396491,54.5423158 C9.1522807,55.0750877 9.16182456,55.6129123 9.25389474,56.1187368 C9.33978947,56.6245614 9.50596491,57.0955789 9.75017544,57.4464561 C9.99101754,57.8029474 10.3211228,58.0185263 10.7169123,58.1235088 C10.9207018,58.1796491 11.1115789,58.1931228 11.3574737,58.2049123 C11.6123509,58.2138947 11.8638596,58.226807 12.1041404,58.2430877 C12.586386,58.2722807 13.0433684,58.3166316 13.4638596,58.3710877 C14.3054035,58.4777544 15.0049123,58.6186667 15.4967018,58.7421754 C15.9884912,58.864 16.2742456,58.9594386 16.2742456,58.9594386 C16.2742456,58.9594386 15.9935439,59.0762105 15.4944561,59.1912982 C14.9959298,59.309193 14.2801404,59.4231579 13.424,59.4669474 C12.9956491,59.4905263 12.533614,59.4961404 12.0435088,59.4792982 C11.797614,59.4736842 11.5500351,59.4590877 11.2945965,59.442807 C11.0318596,59.4259649 10.698386,59.3973333 10.3907368,59.3047018 C9.7602807,59.1385263 9.12477193,58.6995088 8.75705263,58.1150877 C8.37810526,57.5357193 8.2242807,56.8906667 8.14680702,56.2798596 C7.99915789,55.0481404 8.18385965,53.8798596 8.3994386,52.8165614 C8.50947368,52.2843509 8.65431579,51.7813333 8.79298246,51.3075088 C8.93221053,50.8336842 9.08210526,50.3924211 9.23368421,49.9904561 C9.52729825,49.1842807 9.81922807,48.5319298 10.0303158,48.08 C10.2543158,47.6336842 10.3823158,47.378807 10.3823158,47.378807" id="Fill-7" fill="#FEFEFE" sketch:type="MSShapeGroup"></path>
                </g>
            </g>
        </g>
    </g>
</svg>