<?xml version="1.0" encoding="UTF-8" standalone="no"?>
<svg width="70px" height="260px" viewBox="0 0 70 260" version="1.1" xmlns="http://www.w3.org/2000/svg" xmlns:xlink="http://www.w3.org/1999/xlink" xmlns:sketch="http://www.bohemiancoding.com/sketch/ns">
    <!-- Generator: Sketch 3.4.4 (17249) - http://www.bohemiancoding.com/sketch -->
    <title>long-white-table-tall</title>
    <desc>Created with Sketch.</desc>
    <defs>
        <path d="M13,0 L10,0 L0,25 L4,25 L13.2,2 L33,2 L33,0 L13,0 Z" id="path-1"></path>
        <path d="M13,0 L10,0 L0,25 L4,25 L13.2,2 L33,2 L33,0 L13,0 Z" id="path-3"></path>
    </defs>
    <g id="Page-1" stroke="none" stroke-width="1" fill="none" fill-rule="evenodd" sketch:type="MSPage">
        <g id="long-white-table-tall" sketch:type="MSArtboardGroup">
            <g id="Group" sketch:type="MSLayerGroup">
                <rect id="Rectangle-314" fill="#FFFFFF" sketch:type="MSShapeGroup" transform="translate(34.999999, 115.000000) rotate(-270.000000) translate(-34.999999, -115.000000) " x="-80.0000014" y="80" width="230" height="70"></rect>
                <rect id="Rectangle-360" fill="#E3E3E3" sketch:type="MSShapeGroup" x="0" y="230" width="70" height="5"></rect>
                <path id="Path-41" stroke="#979797" sketch:type="MSShapeGroup" d="M1.5,260 C1.5,260 4.5,232.5 22,232.5"></path>
                <g id="Rectangle-361-+-Rectangle-365" transform="translate(2.000000, 235.000000)">
                    <mask id="mask-2" sketch:name="Rectangle 361" fill="white">
                        <use xlink:href="#path-1"></use>
                    </mask>
                    <use id="Rectangle-361" fill="#DBDBDB" sketch:type="MSShapeGroup" xlink:href="#path-1"></use>
                    <rect id="Rectangle-365" fill-opacity="0.41332654" fill="#504E4E" sketch:type="MSShapeGroup" mask="url(#mask-2)" x="4" y="0" width="31" height="10"></rect>
                </g>
                <g id="Rectangle-361-+-Rectangle-366" transform="translate(51.500000, 247.500000) scale(-1, 1) translate(-51.500000, -247.500000) translate(35.000000, 235.000000)">
                    <mask id="mask-4" sketch:name="Rectangle 361" fill="white">
                        <use xlink:href="#path-3"></use>
                    </mask>
                    <use id="Rectangle-361" fill="#DBDBDB" sketch:type="MSShapeGroup" xlink:href="#path-3"></use>
                    <rect id="Rectangle-365" fill-opacity="0.41332654" fill="#504E4E" sketch:type="MSShapeGroup" mask="url(#mask-4)" x="4" y="0" width="31" height="10"></rect>
                </g>
            </g>
        </g>
    </g>
</svg>